<?xml version="1.0" encoding="utf-8" standalone="no"?>
<!DOCTYPE svg PUBLIC "-//W3C//DTD SVG 1.1//EN"
  "http://www.w3.org/Graphics/SVG/1.1/DTD/svg11.dtd">
<svg xmlns:xlink="http://www.w3.org/1999/xlink" width="460.8pt" height="345.6pt" viewBox="0 0 460.8 345.6" xmlns="http://www.w3.org/2000/svg" version="1.1">
 <metadata>
  <rdf:RDF xmlns:dc="http://purl.org/dc/elements/1.1/" xmlns:cc="http://creativecommons.org/ns#" xmlns:rdf="http://www.w3.org/1999/02/22-rdf-syntax-ns#">
   <cc:Work>
    <dc:type rdf:resource="http://purl.org/dc/dcmitype/StillImage"/>
    <dc:date>2023-06-10T13:08:20.066410</dc:date>
    <dc:format>image/svg+xml</dc:format>
    <dc:creator>
     <cc:Agent>
      <dc:title>Matplotlib v3.6.3, https://matplotlib.org/</dc:title>
     </cc:Agent>
    </dc:creator>
   </cc:Work>
  </rdf:RDF>
 </metadata>
 <defs>
  <style type="text/css">*{stroke-linejoin: round; stroke-linecap: butt}</style>
 </defs>
 <g id="figure_1">
  <g id="patch_1">
   <path d="M 0 345.6 
L 460.8 345.6 
L 460.8 0 
L 0 0 
L 0 345.6 
z
" style="fill: none"/>
  </g>
  <g id="axes_1">
   <g id="patch_2">
    <path d="M 77.271112 300.76 
L 450 300.76 
L 450 10.8 
L 77.271112 10.8 
L 77.271112 300.76 
z
" style="fill: none"/>
   </g>
   <g id="matplotlib.axis_1">
    <g id="xtick_1">
     <g id="line2d_1">
      <path d="M 94.213334 300.76 
L 94.213334 10.8 
" clip-path="url(#p95cf3922a5)" style="fill: none; stroke: #ffffff; stroke-width: 0.8; stroke-linecap: square"/>
     </g>
     <g id="line2d_2">
      <defs>
       <path id="m49047d909f" d="M 0 0 
L 0 3.5 
" style="stroke: #555555; stroke-width: 0.8"/>
      </defs>
      <g>
       <use xlink:href="#m49047d909f" x="94.213334" y="300.76" style="fill: #555555; stroke: #555555; stroke-width: 0.8"/>
      </g>
     </g>
     <g id="text_1">
      <!-- 0 -->
      <g style="fill: #555555" transform="translate(91.032084 315.358437) scale(0.1 -0.1)">
       <defs>
        <path id="DejaVuSans-30" d="M 2034 4250 
Q 1547 4250 1301 3770 
Q 1056 3291 1056 2328 
Q 1056 1369 1301 889 
Q 1547 409 2034 409 
Q 2525 409 2770 889 
Q 3016 1369 3016 2328 
Q 3016 3291 2770 3770 
Q 2525 4250 2034 4250 
z
M 2034 4750 
Q 2819 4750 3233 4129 
Q 3647 3509 3647 2328 
Q 3647 1150 3233 529 
Q 2819 -91 2034 -91 
Q 1250 -91 836 529 
Q 422 1150 422 2328 
Q 422 3509 836 4129 
Q 1250 4750 2034 4750 
z
" transform="scale(0.015625)"/>
       </defs>
       <use xlink:href="#DejaVuSans-30"/>
      </g>
     </g>
    </g>
    <g id="xtick_2">
     <g id="line2d_3">
      <path d="M 136.590078 300.76 
L 136.590078 10.8 
" clip-path="url(#p95cf3922a5)" style="fill: none; stroke: #ffffff; stroke-width: 0.8; stroke-linecap: square"/>
     </g>
     <g id="line2d_4">
      <g>
       <use xlink:href="#m49047d909f" x="136.590078" y="300.76" style="fill: #555555; stroke: #555555; stroke-width: 0.8"/>
      </g>
     </g>
     <g id="text_2">
      <!-- 250 -->
      <g style="fill: #555555" transform="translate(127.046328 315.358437) scale(0.1 -0.1)">
       <defs>
        <path id="DejaVuSans-32" d="M 1228 531 
L 3431 531 
L 3431 0 
L 469 0 
L 469 531 
Q 828 903 1448 1529 
Q 2069 2156 2228 2338 
Q 2531 2678 2651 2914 
Q 2772 3150 2772 3378 
Q 2772 3750 2511 3984 
Q 2250 4219 1831 4219 
Q 1534 4219 1204 4116 
Q 875 4013 500 3803 
L 500 4441 
Q 881 4594 1212 4672 
Q 1544 4750 1819 4750 
Q 2544 4750 2975 4387 
Q 3406 4025 3406 3419 
Q 3406 3131 3298 2873 
Q 3191 2616 2906 2266 
Q 2828 2175 2409 1742 
Q 1991 1309 1228 531 
z
" transform="scale(0.015625)"/>
        <path id="DejaVuSans-35" d="M 691 4666 
L 3169 4666 
L 3169 4134 
L 1269 4134 
L 1269 2991 
Q 1406 3038 1543 3061 
Q 1681 3084 1819 3084 
Q 2600 3084 3056 2656 
Q 3513 2228 3513 1497 
Q 3513 744 3044 326 
Q 2575 -91 1722 -91 
Q 1428 -91 1123 -41 
Q 819 9 494 109 
L 494 744 
Q 775 591 1075 516 
Q 1375 441 1709 441 
Q 2250 441 2565 725 
Q 2881 1009 2881 1497 
Q 2881 1984 2565 2268 
Q 2250 2553 1709 2553 
Q 1456 2553 1204 2497 
Q 953 2441 691 2322 
L 691 4666 
z
" transform="scale(0.015625)"/>
       </defs>
       <use xlink:href="#DejaVuSans-32"/>
       <use xlink:href="#DejaVuSans-35" x="63.623047"/>
       <use xlink:href="#DejaVuSans-30" x="127.246094"/>
      </g>
     </g>
    </g>
    <g id="xtick_3">
     <g id="line2d_5">
      <path d="M 178.966821 300.76 
L 178.966821 10.8 
" clip-path="url(#p95cf3922a5)" style="fill: none; stroke: #ffffff; stroke-width: 0.8; stroke-linecap: square"/>
     </g>
     <g id="line2d_6">
      <g>
       <use xlink:href="#m49047d909f" x="178.966821" y="300.76" style="fill: #555555; stroke: #555555; stroke-width: 0.8"/>
      </g>
     </g>
     <g id="text_3">
      <!-- 500 -->
      <g style="fill: #555555" transform="translate(169.423071 315.358437) scale(0.1 -0.1)">
       <use xlink:href="#DejaVuSans-35"/>
       <use xlink:href="#DejaVuSans-30" x="63.623047"/>
       <use xlink:href="#DejaVuSans-30" x="127.246094"/>
      </g>
     </g>
    </g>
    <g id="xtick_4">
     <g id="line2d_7">
      <path d="M 221.343565 300.76 
L 221.343565 10.8 
" clip-path="url(#p95cf3922a5)" style="fill: none; stroke: #ffffff; stroke-width: 0.8; stroke-linecap: square"/>
     </g>
     <g id="line2d_8">
      <g>
       <use xlink:href="#m49047d909f" x="221.343565" y="300.76" style="fill: #555555; stroke: #555555; stroke-width: 0.8"/>
      </g>
     </g>
     <g id="text_4">
      <!-- 750 -->
      <g style="fill: #555555" transform="translate(211.799815 315.358437) scale(0.1 -0.1)">
       <defs>
        <path id="DejaVuSans-37" d="M 525 4666 
L 3525 4666 
L 3525 4397 
L 1831 0 
L 1172 0 
L 2766 4134 
L 525 4134 
L 525 4666 
z
" transform="scale(0.015625)"/>
       </defs>
       <use xlink:href="#DejaVuSans-37"/>
       <use xlink:href="#DejaVuSans-35" x="63.623047"/>
       <use xlink:href="#DejaVuSans-30" x="127.246094"/>
      </g>
     </g>
    </g>
    <g id="xtick_5">
     <g id="line2d_9">
      <path d="M 263.720309 300.76 
L 263.720309 10.8 
" clip-path="url(#p95cf3922a5)" style="fill: none; stroke: #ffffff; stroke-width: 0.8; stroke-linecap: square"/>
     </g>
     <g id="line2d_10">
      <g>
       <use xlink:href="#m49047d909f" x="263.720309" y="300.76" style="fill: #555555; stroke: #555555; stroke-width: 0.8"/>
      </g>
     </g>
     <g id="text_5">
      <!-- 1000 -->
      <g style="fill: #555555" transform="translate(250.995309 315.358437) scale(0.1 -0.1)">
       <defs>
        <path id="DejaVuSans-31" d="M 794 531 
L 1825 531 
L 1825 4091 
L 703 3866 
L 703 4441 
L 1819 4666 
L 2450 4666 
L 2450 531 
L 3481 531 
L 3481 0 
L 794 0 
L 794 531 
z
" transform="scale(0.015625)"/>
       </defs>
       <use xlink:href="#DejaVuSans-31"/>
       <use xlink:href="#DejaVuSans-30" x="63.623047"/>
       <use xlink:href="#DejaVuSans-30" x="127.246094"/>
       <use xlink:href="#DejaVuSans-30" x="190.869141"/>
      </g>
     </g>
    </g>
    <g id="xtick_6">
     <g id="line2d_11">
      <path d="M 306.097053 300.76 
L 306.097053 10.8 
" clip-path="url(#p95cf3922a5)" style="fill: none; stroke: #ffffff; stroke-width: 0.8; stroke-linecap: square"/>
     </g>
     <g id="line2d_12">
      <g>
       <use xlink:href="#m49047d909f" x="306.097053" y="300.76" style="fill: #555555; stroke: #555555; stroke-width: 0.8"/>
      </g>
     </g>
     <g id="text_6">
      <!-- 1250 -->
      <g style="fill: #555555" transform="translate(293.372053 315.358437) scale(0.1 -0.1)">
       <use xlink:href="#DejaVuSans-31"/>
       <use xlink:href="#DejaVuSans-32" x="63.623047"/>
       <use xlink:href="#DejaVuSans-35" x="127.246094"/>
       <use xlink:href="#DejaVuSans-30" x="190.869141"/>
      </g>
     </g>
    </g>
    <g id="xtick_7">
     <g id="line2d_13">
      <path d="M 348.473797 300.76 
L 348.473797 10.8 
" clip-path="url(#p95cf3922a5)" style="fill: none; stroke: #ffffff; stroke-width: 0.8; stroke-linecap: square"/>
     </g>
     <g id="line2d_14">
      <g>
       <use xlink:href="#m49047d909f" x="348.473797" y="300.76" style="fill: #555555; stroke: #555555; stroke-width: 0.8"/>
      </g>
     </g>
     <g id="text_7">
      <!-- 1500 -->
      <g style="fill: #555555" transform="translate(335.748797 315.358437) scale(0.1 -0.1)">
       <use xlink:href="#DejaVuSans-31"/>
       <use xlink:href="#DejaVuSans-35" x="63.623047"/>
       <use xlink:href="#DejaVuSans-30" x="127.246094"/>
       <use xlink:href="#DejaVuSans-30" x="190.869141"/>
      </g>
     </g>
    </g>
    <g id="xtick_8">
     <g id="line2d_15">
      <path d="M 390.850541 300.76 
L 390.850541 10.8 
" clip-path="url(#p95cf3922a5)" style="fill: none; stroke: #ffffff; stroke-width: 0.8; stroke-linecap: square"/>
     </g>
     <g id="line2d_16">
      <g>
       <use xlink:href="#m49047d909f" x="390.850541" y="300.76" style="fill: #555555; stroke: #555555; stroke-width: 0.8"/>
      </g>
     </g>
     <g id="text_8">
      <!-- 1750 -->
      <g style="fill: #555555" transform="translate(378.125541 315.358437) scale(0.1 -0.1)">
       <use xlink:href="#DejaVuSans-31"/>
       <use xlink:href="#DejaVuSans-37" x="63.623047"/>
       <use xlink:href="#DejaVuSans-35" x="127.246094"/>
       <use xlink:href="#DejaVuSans-30" x="190.869141"/>
      </g>
     </g>
    </g>
    <g id="xtick_9">
     <g id="line2d_17">
      <path d="M 433.227285 300.76 
L 433.227285 10.8 
" clip-path="url(#p95cf3922a5)" style="fill: none; stroke: #ffffff; stroke-width: 0.8; stroke-linecap: square"/>
     </g>
     <g id="line2d_18">
      <g>
       <use xlink:href="#m49047d909f" x="433.227285" y="300.76" style="fill: #555555; stroke: #555555; stroke-width: 0.8"/>
      </g>
     </g>
     <g id="text_9">
      <!-- 2000 -->
      <g style="fill: #555555" transform="translate(420.502285 315.358437) scale(0.1 -0.1)">
       <use xlink:href="#DejaVuSans-32"/>
       <use xlink:href="#DejaVuSans-30" x="63.623047"/>
       <use xlink:href="#DejaVuSans-30" x="127.246094"/>
       <use xlink:href="#DejaVuSans-30" x="190.869141"/>
      </g>
     </g>
    </g>
    <g id="text_10">
     <!-- epoch -->
     <g style="fill: #555555" transform="translate(245.361806 330.55625) scale(0.12 -0.12)">
      <defs>
       <path id="DejaVuSans-65" d="M 3597 1894 
L 3597 1613 
L 953 1613 
Q 991 1019 1311 708 
Q 1631 397 2203 397 
Q 2534 397 2845 478 
Q 3156 559 3463 722 
L 3463 178 
Q 3153 47 2828 -22 
Q 2503 -91 2169 -91 
Q 1331 -91 842 396 
Q 353 884 353 1716 
Q 353 2575 817 3079 
Q 1281 3584 2069 3584 
Q 2775 3584 3186 3129 
Q 3597 2675 3597 1894 
z
M 3022 2063 
Q 3016 2534 2758 2815 
Q 2500 3097 2075 3097 
Q 1594 3097 1305 2825 
Q 1016 2553 972 2059 
L 3022 2063 
z
" transform="scale(0.015625)"/>
       <path id="DejaVuSans-70" d="M 1159 525 
L 1159 -1331 
L 581 -1331 
L 581 3500 
L 1159 3500 
L 1159 2969 
Q 1341 3281 1617 3432 
Q 1894 3584 2278 3584 
Q 2916 3584 3314 3078 
Q 3713 2572 3713 1747 
Q 3713 922 3314 415 
Q 2916 -91 2278 -91 
Q 1894 -91 1617 61 
Q 1341 213 1159 525 
z
M 3116 1747 
Q 3116 2381 2855 2742 
Q 2594 3103 2138 3103 
Q 1681 3103 1420 2742 
Q 1159 2381 1159 1747 
Q 1159 1113 1420 752 
Q 1681 391 2138 391 
Q 2594 391 2855 752 
Q 3116 1113 3116 1747 
z
" transform="scale(0.015625)"/>
       <path id="DejaVuSans-6f" d="M 1959 3097 
Q 1497 3097 1228 2736 
Q 959 2375 959 1747 
Q 959 1119 1226 758 
Q 1494 397 1959 397 
Q 2419 397 2687 759 
Q 2956 1122 2956 1747 
Q 2956 2369 2687 2733 
Q 2419 3097 1959 3097 
z
M 1959 3584 
Q 2709 3584 3137 3096 
Q 3566 2609 3566 1747 
Q 3566 888 3137 398 
Q 2709 -91 1959 -91 
Q 1206 -91 779 398 
Q 353 888 353 1747 
Q 353 2609 779 3096 
Q 1206 3584 1959 3584 
z
" transform="scale(0.015625)"/>
       <path id="DejaVuSans-63" d="M 3122 3366 
L 3122 2828 
Q 2878 2963 2633 3030 
Q 2388 3097 2138 3097 
Q 1578 3097 1268 2742 
Q 959 2388 959 1747 
Q 959 1106 1268 751 
Q 1578 397 2138 397 
Q 2388 397 2633 464 
Q 2878 531 3122 666 
L 3122 134 
Q 2881 22 2623 -34 
Q 2366 -91 2075 -91 
Q 1284 -91 818 406 
Q 353 903 353 1747 
Q 353 2603 823 3093 
Q 1294 3584 2113 3584 
Q 2378 3584 2631 3529 
Q 2884 3475 3122 3366 
z
" transform="scale(0.015625)"/>
       <path id="DejaVuSans-68" d="M 3513 2113 
L 3513 0 
L 2938 0 
L 2938 2094 
Q 2938 2591 2744 2837 
Q 2550 3084 2163 3084 
Q 1697 3084 1428 2787 
Q 1159 2491 1159 1978 
L 1159 0 
L 581 0 
L 581 4863 
L 1159 4863 
L 1159 2956 
Q 1366 3272 1645 3428 
Q 1925 3584 2291 3584 
Q 2894 3584 3203 3211 
Q 3513 2838 3513 2113 
z
" transform="scale(0.015625)"/>
      </defs>
      <use xlink:href="#DejaVuSans-65"/>
      <use xlink:href="#DejaVuSans-70" x="61.523438"/>
      <use xlink:href="#DejaVuSans-6f" x="125"/>
      <use xlink:href="#DejaVuSans-63" x="186.181641"/>
      <use xlink:href="#DejaVuSans-68" x="241.162109"/>
     </g>
    </g>
   </g>
   <g id="matplotlib.axis_2">
    <g id="ytick_1">
     <g id="line2d_19">
      <path d="M 77.271112 299.255133 
L 450 299.255133 
" clip-path="url(#p95cf3922a5)" style="fill: none; stroke: #ffffff; stroke-width: 0.8; stroke-linecap: square"/>
     </g>
     <g id="line2d_20">
      <defs>
       <path id="m3a82a07f2e" d="M 0 0 
L -3.5 0 
" style="stroke: #555555; stroke-width: 0.8"/>
      </defs>
      <g>
       <use xlink:href="#m3a82a07f2e" x="77.271112" y="299.255133" style="fill: #555555; stroke: #555555; stroke-width: 0.8"/>
      </g>
     </g>
     <g id="text_11">
      <!-- $\mathdefault{10^{-1}}$ -->
      <g style="fill: #555555" transform="translate(46.771112 303.054351) scale(0.1 -0.1)">
       <defs>
        <path id="DejaVuSans-2212" d="M 678 2272 
L 4684 2272 
L 4684 1741 
L 678 1741 
L 678 2272 
z
" transform="scale(0.015625)"/>
       </defs>
       <use xlink:href="#DejaVuSans-31" transform="translate(0 0.684375)"/>
       <use xlink:href="#DejaVuSans-30" transform="translate(63.623047 0.684375)"/>
       <use xlink:href="#DejaVuSans-2212" transform="translate(128.203125 38.965625) scale(0.7)"/>
       <use xlink:href="#DejaVuSans-31" transform="translate(186.855469 38.965625) scale(0.7)"/>
      </g>
     </g>
    </g>
    <g id="ytick_2">
     <g id="line2d_21">
      <path d="M 77.271112 224.588832 
L 450 224.588832 
" clip-path="url(#p95cf3922a5)" style="fill: none; stroke: #ffffff; stroke-width: 0.8; stroke-linecap: square"/>
     </g>
     <g id="line2d_22">
      <g>
       <use xlink:href="#m3a82a07f2e" x="77.271112" y="224.588832" style="fill: #555555; stroke: #555555; stroke-width: 0.8"/>
      </g>
     </g>
     <g id="text_12">
      <!-- $\mathdefault{\frac{1}{2}}$ -->
      <g style="fill: #555555" transform="translate(64.471112 229.338832) scale(0.1 -0.1)">
       <use xlink:href="#DejaVuSans-31" transform="translate(0 43.965625) scale(0.7)"/>
       <use xlink:href="#DejaVuSans-32" transform="translate(0 -39.2375) scale(0.7)"/>
       <path d="M 0 18.965625 
L 0 25.215625 
L 44.536133 25.215625 
L 44.536133 18.965625 
L 0 18.965625 
z
"/>
      </g>
     </g>
    </g>
    <g id="ytick_3">
     <g id="line2d_23">
      <path d="M 77.271112 149.922531 
L 450 149.922531 
" clip-path="url(#p95cf3922a5)" style="fill: none; stroke: #ffffff; stroke-width: 0.8; stroke-linecap: square"/>
     </g>
     <g id="line2d_24">
      <g>
       <use xlink:href="#m3a82a07f2e" x="77.271112" y="149.922531" style="fill: #555555; stroke: #555555; stroke-width: 0.8"/>
      </g>
     </g>
     <g id="text_13">
      <!-- $\mathdefault{1-10^{-1}}$ -->
      <g style="fill: #555555" transform="translate(28.171112 153.72175) scale(0.1 -0.1)">
       <use xlink:href="#DejaVuSans-31" transform="translate(0 0.684375)"/>
       <use xlink:href="#DejaVuSans-2212" transform="translate(83.105469 0.684375)"/>
       <use xlink:href="#DejaVuSans-31" transform="translate(186.376953 0.684375)"/>
       <use xlink:href="#DejaVuSans-30" transform="translate(250 0.684375)"/>
       <use xlink:href="#DejaVuSans-2212" transform="translate(314.580078 38.965625) scale(0.7)"/>
       <use xlink:href="#DejaVuSans-31" transform="translate(373.232422 38.965625) scale(0.7)"/>
      </g>
     </g>
    </g>
    <g id="ytick_4">
     <g id="line2d_25">
      <path d="M 77.271112 68.43702 
L 450 68.43702 
" clip-path="url(#p95cf3922a5)" style="fill: none; stroke: #ffffff; stroke-width: 0.8; stroke-linecap: square"/>
     </g>
     <g id="line2d_26">
      <g>
       <use xlink:href="#m3a82a07f2e" x="77.271112" y="68.43702" style="fill: #555555; stroke: #555555; stroke-width: 0.8"/>
      </g>
     </g>
     <g id="text_14">
      <!-- $\mathdefault{1-10^{-2}}$ -->
      <g style="fill: #555555" transform="translate(28.171112 72.236238) scale(0.1 -0.1)">
       <use xlink:href="#DejaVuSans-31" transform="translate(0 0.765625)"/>
       <use xlink:href="#DejaVuSans-2212" transform="translate(83.105469 0.765625)"/>
       <use xlink:href="#DejaVuSans-31" transform="translate(186.376953 0.765625)"/>
       <use xlink:href="#DejaVuSans-30" transform="translate(250 0.765625)"/>
       <use xlink:href="#DejaVuSans-2212" transform="translate(314.580078 39.046875) scale(0.7)"/>
       <use xlink:href="#DejaVuSans-32" transform="translate(373.232422 39.046875) scale(0.7)"/>
      </g>
     </g>
    </g>
    <g id="ytick_5">
     <g id="line2d_27">
      <defs>
       <path id="ma556fba7df" d="M 0 0 
L -2 0 
" style="stroke: #555555; stroke-width: 0.6"/>
      </defs>
      <g>
       <use xlink:href="#ma556fba7df" x="77.271112" y="271.698023" style="fill: #555555; stroke: #555555; stroke-width: 0.6"/>
      </g>
     </g>
    </g>
    <g id="ytick_6">
     <g id="line2d_28">
      <g>
       <use xlink:href="#ma556fba7df" x="77.271112" y="253.381791" style="fill: #555555; stroke: #555555; stroke-width: 0.6"/>
      </g>
     </g>
    </g>
    <g id="ytick_7">
     <g id="line2d_29">
      <g>
       <use xlink:href="#ma556fba7df" x="77.271112" y="238.367387" style="fill: #555555; stroke: #555555; stroke-width: 0.6"/>
      </g>
     </g>
    </g>
    <g id="ytick_8">
     <g id="line2d_30">
      <g>
       <use xlink:href="#ma556fba7df" x="77.271112" y="210.810277" style="fill: #555555; stroke: #555555; stroke-width: 0.6"/>
      </g>
     </g>
    </g>
    <g id="ytick_9">
     <g id="line2d_31">
      <g>
       <use xlink:href="#ma556fba7df" x="77.271112" y="195.795873" style="fill: #555555; stroke: #555555; stroke-width: 0.6"/>
      </g>
     </g>
    </g>
    <g id="ytick_10">
     <g id="line2d_32">
      <g>
       <use xlink:href="#ma556fba7df" x="77.271112" y="177.479641" style="fill: #555555; stroke: #555555; stroke-width: 0.6"/>
      </g>
     </g>
    </g>
    <g id="ytick_11">
     <g id="line2d_33">
      <g>
       <use xlink:href="#ma556fba7df" x="77.271112" y="145.966663" style="fill: #555555; stroke: #555555; stroke-width: 0.6"/>
      </g>
     </g>
    </g>
    <g id="ytick_12">
     <g id="line2d_34">
      <g>
       <use xlink:href="#ma556fba7df" x="77.271112" y="141.592756" style="fill: #555555; stroke: #555555; stroke-width: 0.6"/>
      </g>
     </g>
    </g>
    <g id="ytick_13">
     <g id="line2d_35">
      <g>
       <use xlink:href="#ma556fba7df" x="77.271112" y="136.687702" style="fill: #555555; stroke: #555555; stroke-width: 0.6"/>
      </g>
     </g>
    </g>
    <g id="ytick_14">
     <g id="line2d_36">
      <g>
       <use xlink:href="#ma556fba7df" x="77.271112" y="131.08589" style="fill: #555555; stroke: #555555; stroke-width: 0.6"/>
      </g>
     </g>
    </g>
    <g id="ytick_15">
     <g id="line2d_37">
      <g>
       <use xlink:href="#ma556fba7df" x="77.271112" y="124.530618" style="fill: #555555; stroke: #555555; stroke-width: 0.6"/>
      </g>
     </g>
    </g>
    <g id="ytick_16">
     <g id="line2d_38">
      <g>
       <use xlink:href="#ma556fba7df" x="77.271112" y="116.591896" style="fill: #555555; stroke: #555555; stroke-width: 0.6"/>
      </g>
     </g>
    </g>
    <g id="ytick_17">
     <g id="line2d_39">
      <g>
       <use xlink:href="#ma556fba7df" x="77.271112" y="106.463706" style="fill: #555555; stroke: #555555; stroke-width: 0.6"/>
      </g>
     </g>
    </g>
    <g id="ytick_18">
     <g id="line2d_40">
      <g>
       <use xlink:href="#ma556fba7df" x="77.271112" y="92.336614" style="fill: #555555; stroke: #555555; stroke-width: 0.6"/>
      </g>
     </g>
    </g>
    <g id="ytick_19">
     <g id="line2d_41">
      <g>
       <use xlink:href="#ma556fba7df" x="77.271112" y="64.82234" style="fill: #555555; stroke: #555555; stroke-width: 0.6"/>
      </g>
     </g>
    </g>
    <g id="ytick_20">
     <g id="line2d_42">
      <g>
       <use xlink:href="#ma556fba7df" x="77.271112" y="60.785552" style="fill: #555555; stroke: #555555; stroke-width: 0.6"/>
      </g>
     </g>
    </g>
    <g id="ytick_21">
     <g id="line2d_43">
      <g>
       <use xlink:href="#ma556fba7df" x="77.271112" y="56.213636" style="fill: #555555; stroke: #555555; stroke-width: 0.6"/>
      </g>
     </g>
    </g>
    <g id="ytick_22">
     <g id="line2d_44">
      <g>
       <use xlink:href="#ma556fba7df" x="77.271112" y="50.941068" style="fill: #555555; stroke: #555555; stroke-width: 0.6"/>
      </g>
     </g>
    </g>
    <g id="ytick_23">
     <g id="line2d_45">
      <g>
       <use xlink:href="#ma556fba7df" x="77.271112" y="44.711229" style="fill: #555555; stroke: #555555; stroke-width: 0.6"/>
      </g>
     </g>
    </g>
    <g id="ytick_24">
     <g id="line2d_46">
      <g>
       <use xlink:href="#ma556fba7df" x="77.271112" y="37.094208" style="fill: #555555; stroke: #555555; stroke-width: 0.6"/>
      </g>
     </g>
    </g>
    <g id="ytick_25">
     <g id="line2d_47">
      <g>
       <use xlink:href="#ma556fba7df" x="77.271112" y="27.284066" style="fill: #555555; stroke: #555555; stroke-width: 0.6"/>
      </g>
     </g>
    </g>
    <g id="ytick_26">
     <g id="line2d_48">
      <g>
       <use xlink:href="#ma556fba7df" x="77.271112" y="13.471444" style="fill: #555555; stroke: #555555; stroke-width: 0.6"/>
      </g>
     </g>
    </g>
    <g id="text_15">
     <!-- logit(acc) -->
     <g style="fill: #555555" transform="translate(21.675487 183.903125) rotate(-90) scale(0.12 -0.12)">
      <defs>
       <path id="DejaVuSans-6c" d="M 603 4863 
L 1178 4863 
L 1178 0 
L 603 0 
L 603 4863 
z
" transform="scale(0.015625)"/>
       <path id="DejaVuSans-67" d="M 2906 1791 
Q 2906 2416 2648 2759 
Q 2391 3103 1925 3103 
Q 1463 3103 1205 2759 
Q 947 2416 947 1791 
Q 947 1169 1205 825 
Q 1463 481 1925 481 
Q 2391 481 2648 825 
Q 2906 1169 2906 1791 
z
M 3481 434 
Q 3481 -459 3084 -895 
Q 2688 -1331 1869 -1331 
Q 1566 -1331 1297 -1286 
Q 1028 -1241 775 -1147 
L 775 -588 
Q 1028 -725 1275 -790 
Q 1522 -856 1778 -856 
Q 2344 -856 2625 -561 
Q 2906 -266 2906 331 
L 2906 616 
Q 2728 306 2450 153 
Q 2172 0 1784 0 
Q 1141 0 747 490 
Q 353 981 353 1791 
Q 353 2603 747 3093 
Q 1141 3584 1784 3584 
Q 2172 3584 2450 3431 
Q 2728 3278 2906 2969 
L 2906 3500 
L 3481 3500 
L 3481 434 
z
" transform="scale(0.015625)"/>
       <path id="DejaVuSans-69" d="M 603 3500 
L 1178 3500 
L 1178 0 
L 603 0 
L 603 3500 
z
M 603 4863 
L 1178 4863 
L 1178 4134 
L 603 4134 
L 603 4863 
z
" transform="scale(0.015625)"/>
       <path id="DejaVuSans-74" d="M 1172 4494 
L 1172 3500 
L 2356 3500 
L 2356 3053 
L 1172 3053 
L 1172 1153 
Q 1172 725 1289 603 
Q 1406 481 1766 481 
L 2356 481 
L 2356 0 
L 1766 0 
Q 1100 0 847 248 
Q 594 497 594 1153 
L 594 3053 
L 172 3053 
L 172 3500 
L 594 3500 
L 594 4494 
L 1172 4494 
z
" transform="scale(0.015625)"/>
       <path id="DejaVuSans-28" d="M 1984 4856 
Q 1566 4138 1362 3434 
Q 1159 2731 1159 2009 
Q 1159 1288 1364 580 
Q 1569 -128 1984 -844 
L 1484 -844 
Q 1016 -109 783 600 
Q 550 1309 550 2009 
Q 550 2706 781 3412 
Q 1013 4119 1484 4856 
L 1984 4856 
z
" transform="scale(0.015625)"/>
       <path id="DejaVuSans-61" d="M 2194 1759 
Q 1497 1759 1228 1600 
Q 959 1441 959 1056 
Q 959 750 1161 570 
Q 1363 391 1709 391 
Q 2188 391 2477 730 
Q 2766 1069 2766 1631 
L 2766 1759 
L 2194 1759 
z
M 3341 1997 
L 3341 0 
L 2766 0 
L 2766 531 
Q 2569 213 2275 61 
Q 1981 -91 1556 -91 
Q 1019 -91 701 211 
Q 384 513 384 1019 
Q 384 1609 779 1909 
Q 1175 2209 1959 2209 
L 2766 2209 
L 2766 2266 
Q 2766 2663 2505 2880 
Q 2244 3097 1772 3097 
Q 1472 3097 1187 3025 
Q 903 2953 641 2809 
L 641 3341 
Q 956 3463 1253 3523 
Q 1550 3584 1831 3584 
Q 2591 3584 2966 3190 
Q 3341 2797 3341 1997 
z
" transform="scale(0.015625)"/>
       <path id="DejaVuSans-29" d="M 513 4856 
L 1013 4856 
Q 1481 4119 1714 3412 
Q 1947 2706 1947 2009 
Q 1947 1309 1714 600 
Q 1481 -109 1013 -844 
L 513 -844 
Q 928 -128 1133 580 
Q 1338 1288 1338 2009 
Q 1338 2731 1133 3434 
Q 928 4138 513 4856 
z
" transform="scale(0.015625)"/>
      </defs>
      <use xlink:href="#DejaVuSans-6c"/>
      <use xlink:href="#DejaVuSans-6f" x="27.783203"/>
      <use xlink:href="#DejaVuSans-67" x="88.964844"/>
      <use xlink:href="#DejaVuSans-69" x="152.441406"/>
      <use xlink:href="#DejaVuSans-74" x="180.224609"/>
      <use xlink:href="#DejaVuSans-28" x="219.433594"/>
      <use xlink:href="#DejaVuSans-61" x="258.447266"/>
      <use xlink:href="#DejaVuSans-63" x="319.726562"/>
      <use xlink:href="#DejaVuSans-63" x="374.707031"/>
      <use xlink:href="#DejaVuSans-29" x="429.6875"/>
     </g>
    </g>
   </g>
   <g id="line2d_49">
    <path d="M 94.213334 287.58 
L 94.891362 84.522239 
L 95.060869 76.64103 
L 95.399883 74.608759 
L 95.738897 74.242838 
L 95.908403 74.334637 
L 96.247417 74.242838 
L 97.264459 74.242838 
L 97.433966 74.426194 
L 97.942487 74.242838 
L 98.281501 74.242838 
L 98.451008 74.699599 
L 98.620515 74.242838 
L 98.790022 74.608759 
L 98.959529 74.517682 
L 99.129036 74.058512 
L 99.298543 72.835444 
L 99.46805 72.547109 
L 100.146078 67.237387 
L 100.315585 62.026442 
L 100.485092 62.6743 
L 100.993613 57.565232 
L 101.16312 58.008715 
L 101.332627 59.164729 
L 101.502134 57.86152 
L 101.671641 58.155284 
L 101.841148 57.266094 
L 102.010655 57.86152 
L 102.180162 55.731365 
L 102.349669 55.415806 
L 102.858189 57.565232 
L 103.027696 56.812893 
L 103.197203 57.86152 
L 103.36671 56.043768 
L 103.536217 56.353365 
L 103.705724 55.257085 
L 103.875231 57.86152 
L 104.044738 57.415847 
L 104.383752 55.731365 
L 104.553259 55.573798 
L 104.722766 56.812893 
L 104.892273 55.887921 
L 105.231287 57.266094 
L 105.400794 56.507126 
L 105.570301 57.713694 
L 105.909315 54.124771 
L 106.078822 56.507126 
L 106.248329 57.266094 
L 106.417836 55.415806 
L 106.587343 56.812893 
L 106.75685 55.415806 
L 106.926357 55.731365 
L 107.095864 56.964623 
L 107.265371 56.964623 
L 107.604385 55.573798 
L 107.773892 56.660493 
L 107.943399 55.731365 
L 108.112906 56.353365 
L 108.282413 56.043768 
L 108.45192 54.776185 
L 108.621427 55.887921 
L 108.790934 54.452018 
L 108.960441 56.198914 
L 109.299455 55.573798 
L 109.468962 56.353365 
L 109.638468 55.09763 
L 109.807975 55.415806 
L 109.977482 56.043768 
L 110.146989 55.257085 
L 110.316496 56.043768 
L 110.486003 53.959974 
L 110.65551 56.043768 
L 110.825017 56.043768 
L 110.994524 55.573798 
L 111.164031 55.731365 
L 111.333538 54.614483 
L 111.503045 55.415806 
L 111.672552 56.964623 
L 111.842059 56.507126 
L 112.181073 54.937434 
L 112.35058 56.043768 
L 112.520087 55.257085 
L 112.859101 56.507126 
L 113.028608 56.198914 
L 113.198115 55.09763 
L 113.367622 57.266094 
L 113.706636 53.62768 
L 113.876143 55.257085 
L 114.04565 54.614483 
L 114.215157 54.776185 
L 114.384664 55.09763 
L 114.554171 55.09763 
L 114.723678 55.731365 
L 114.893185 54.614483 
L 115.062692 55.887921 
L 115.232199 54.614483 
L 115.401706 54.614483 
L 115.571213 55.257085 
L 115.74072 54.937434 
L 115.910227 53.62768 
L 116.079734 53.460481 
L 116.249241 55.09763 
L 116.418748 54.124771 
L 116.588254 54.288783 
L 116.757761 54.288783 
L 116.927268 54.614483 
L 117.096775 55.731365 
L 117.266282 55.415806 
L 117.435789 54.776185 
L 117.605296 53.62768 
L 117.774803 55.09763 
L 117.94431 55.415806 
L 118.113817 55.257085 
L 118.283324 54.288783 
L 118.452831 54.288783 
L 118.622338 55.09763 
L 118.961352 54.124771 
L 119.130859 54.288783 
L 119.300366 53.460481 
L 119.469873 54.937434 
L 119.63938 54.452018 
L 119.808887 54.614483 
L 119.978394 55.257085 
L 120.147901 54.937434 
L 120.317408 53.62768 
L 120.656422 55.09763 
L 120.995436 53.460481 
L 121.33445 55.415806 
L 121.673464 53.460481 
L 122.012478 55.09763 
L 122.520999 53.959974 
L 122.690506 54.776185 
L 122.860013 54.614483 
L 123.02952 55.731365 
L 123.368534 53.794072 
L 123.53804 55.09763 
L 123.707547 54.937434 
L 123.877054 52.953954 
L 124.046561 54.776185 
L 124.216068 53.292466 
L 124.385575 54.124771 
L 124.555082 54.124771 
L 124.724589 54.614483 
L 125.063603 53.794072 
L 125.23311 54.124771 
L 125.572124 55.887921 
L 125.911138 53.292466 
L 126.080645 53.794072 
L 126.419659 53.460481 
L 126.589166 53.460481 
L 126.758673 54.776185 
L 126.92818 53.794072 
L 127.097687 55.09763 
L 127.267194 53.62768 
L 127.436701 54.452018 
L 127.606208 54.288783 
L 127.945222 53.794072 
L 128.114729 53.62768 
L 128.284236 53.794072 
L 128.453743 54.614483 
L 128.62325 54.288783 
L 128.962264 54.614483 
L 129.131771 54.614483 
L 129.301278 52.953954 
L 129.640292 55.09763 
L 129.979306 53.959974 
L 130.148813 53.959974 
L 130.31832 53.123626 
L 130.487826 53.794072 
L 130.657333 53.794072 
L 130.82684 54.452018 
L 130.996347 52.78312 
L 131.165854 53.62768 
L 131.335361 55.257085 
L 131.504868 53.292466 
L 131.674375 53.460481 
L 131.843882 54.288783 
L 132.013389 54.452018 
L 132.182896 53.959974 
L 132.352403 54.452018 
L 132.52191 53.123626 
L 132.691417 53.794072 
L 132.860924 52.092489 
L 133.030431 54.452018 
L 133.199938 53.62768 
L 133.369445 53.460481 
L 133.538952 53.62768 
L 133.708459 53.959974 
L 133.877966 53.460481 
L 134.047473 52.611757 
L 134.21698 54.288783 
L 134.386487 53.292466 
L 134.555994 53.959974 
L 134.725501 53.959974 
L 135.064515 53.292466 
L 135.234022 52.611757 
L 135.403529 52.439537 
L 135.742543 54.124771 
L 135.91205 52.953954 
L 136.081557 52.611757 
L 136.251064 53.62768 
L 136.420571 53.62768 
L 136.759585 52.439537 
L 136.929092 53.123626 
L 137.098599 54.776185 
L 137.437612 52.611757 
L 137.607119 52.78312 
L 137.776626 52.266451 
L 137.946133 54.124771 
L 138.11564 52.953954 
L 138.285147 54.124771 
L 138.454654 53.123626 
L 138.624161 53.292466 
L 138.793668 52.953954 
L 139.132682 52.953954 
L 139.302189 53.123626 
L 139.471696 53.123626 
L 139.641203 53.62768 
L 139.980217 53.292466 
L 140.149724 53.460481 
L 140.319231 53.292466 
L 140.488738 53.460481 
L 140.658245 52.266451 
L 140.827752 54.124771 
L 140.997259 52.953954 
L 141.166766 52.953954 
L 141.336273 51.741573 
L 141.50578 54.124771 
L 141.844794 52.78312 
L 142.014301 53.62768 
L 142.353315 53.62768 
L 142.522822 53.123626 
L 142.692329 53.62768 
L 142.861836 53.123626 
L 143.20085 53.460481 
L 143.370357 52.611757 
L 143.539864 52.953954 
L 143.709371 52.953954 
L 143.878878 53.794072 
L 144.048385 53.292466 
L 144.387398 53.62768 
L 144.556905 53.292466 
L 144.726412 53.292466 
L 144.895919 52.78312 
L 145.065426 54.124771 
L 145.40444 52.953954 
L 145.573947 53.959974 
L 145.912961 53.292466 
L 146.082468 53.292466 
L 146.251975 54.452018 
L 146.590989 52.78312 
L 146.760496 53.123626 
L 146.930003 54.124771 
L 147.09951 54.124771 
L 147.269017 53.292466 
L 147.438524 53.959974 
L 147.608031 53.460481 
L 147.777538 53.460481 
L 147.947045 52.266451 
L 148.116552 55.257085 
L 148.286059 53.123626 
L 148.625073 53.62768 
L 148.79458 52.611757 
L 148.964087 53.62768 
L 149.133594 53.959974 
L 149.303101 53.123626 
L 149.472608 53.460481 
L 149.642115 52.092489 
L 149.981129 53.62768 
L 150.150636 53.460481 
L 150.320143 53.460481 
L 150.48965 54.124771 
L 150.659157 54.288783 
L 150.828664 54.124771 
L 150.998171 52.266451 
L 151.167678 53.123626 
L 151.337184 53.292466 
L 151.676198 53.292466 
L 151.845705 52.611757 
L 152.015212 53.123626 
L 152.184719 52.953954 
L 152.523733 53.959974 
L 152.69324 52.611757 
L 152.862747 53.460481 
L 153.032254 52.439537 
L 153.201761 53.292466 
L 153.371268 52.092489 
L 153.540775 51.917313 
L 153.710282 53.123626 
L 153.879789 52.266451 
L 154.049296 53.460481 
L 154.218803 52.266451 
L 154.38831 53.959974 
L 154.557817 53.292466 
L 154.727324 53.794072 
L 154.896831 52.611757 
L 155.235845 52.953954 
L 155.405352 52.78312 
L 155.574859 52.266451 
L 155.744366 52.611757 
L 155.913873 52.611757 
L 156.08338 52.439537 
L 156.252887 54.124771 
L 156.422394 53.794072 
L 156.761408 52.439537 
L 156.930915 52.953954 
L 157.100422 53.959974 
L 157.269929 52.266451 
L 157.608943 53.959974 
L 157.77845 52.78312 
L 157.947957 54.452018 
L 158.117463 52.953954 
L 158.28697 53.62768 
L 158.625984 52.78312 
L 158.795491 53.794072 
L 158.964998 52.439537 
L 159.134505 53.292466 
L 159.304012 52.78312 
L 159.473519 53.959974 
L 159.643026 52.953954 
L 159.98204 53.292466 
L 160.151547 53.794072 
L 160.490561 52.611757 
L 160.660068 53.62768 
L 160.829575 53.959974 
L 160.999082 53.794072 
L 161.168589 52.78312 
L 161.338096 53.460481 
L 161.507603 53.460481 
L 161.67711 53.292466 
L 161.846617 53.460481 
L 162.016124 54.288783 
L 162.185631 52.266451 
L 162.355138 53.62768 
L 162.524645 53.959974 
L 162.694152 52.78312 
L 162.863659 52.78312 
L 163.033166 52.611757 
L 163.202673 52.611757 
L 163.37218 51.741573 
L 163.711194 52.953954 
L 163.880701 52.953954 
L 164.050208 53.123626 
L 164.219715 53.460481 
L 164.389222 53.460481 
L 164.558729 53.292466 
L 164.728236 53.292466 
L 165.067249 52.439537 
L 165.236756 54.124771 
L 165.406263 52.092489 
L 165.57577 53.62768 
L 165.745277 52.953954 
L 165.914784 53.460481 
L 166.084291 52.439537 
L 166.253798 53.123626 
L 166.423305 52.611757 
L 166.592812 51.387376 
L 166.762319 52.953954 
L 166.931826 53.292466 
L 167.101333 52.78312 
L 167.27084 52.78312 
L 167.440347 53.123626 
L 167.609854 53.794072 
L 167.779361 52.092489 
L 167.948868 53.292466 
L 168.118375 53.123626 
L 168.457389 52.266451 
L 168.626896 53.292466 
L 168.796403 52.611757 
L 168.96591 52.953954 
L 169.135417 52.439537 
L 169.304924 52.78312 
L 169.474431 52.439537 
L 169.643938 52.439537 
L 169.813445 53.62768 
L 169.982952 52.092489 
L 170.152459 54.124771 
L 170.321966 52.439537 
L 170.491473 53.292466 
L 170.66098 53.123626 
L 170.830487 53.62768 
L 170.999994 51.917313 
L 171.169501 53.123626 
L 171.339008 53.460481 
L 171.508515 52.611757 
L 171.678022 52.953954 
L 171.847529 52.439537 
L 172.017035 52.611757 
L 172.186542 52.266451 
L 172.356049 53.460481 
L 172.525556 51.741573 
L 172.695063 53.62768 
L 172.86457 51.917313 
L 173.034077 51.564931 
L 173.203584 53.123626 
L 173.373091 52.611757 
L 173.712105 53.794072 
L 173.881612 52.439537 
L 174.051119 52.953954 
L 174.220626 52.78312 
L 174.390133 51.387376 
L 174.55964 52.78312 
L 174.729147 51.741573 
L 175.068161 53.460481 
L 175.237668 51.741573 
L 175.407175 52.092489 
L 175.576682 51.741573 
L 175.746189 53.62768 
L 175.915696 52.266451 
L 176.085203 52.611757 
L 176.25471 52.266451 
L 176.424217 52.439537 
L 176.593724 51.387376 
L 176.932738 52.78312 
L 177.102245 51.741573 
L 177.271752 52.611757 
L 177.441259 50.302016 
L 177.610766 52.78312 
L 177.780273 52.611757 
L 177.94978 51.741573 
L 178.119287 51.741573 
L 178.288794 51.564931 
L 178.458301 51.741573 
L 178.627808 50.848807 
L 178.797315 52.611757 
L 178.966821 52.439537 
L 179.136328 51.741573 
L 179.305835 51.917313 
L 179.475342 51.387376 
L 179.644849 51.387376 
L 179.814356 51.741573 
L 180.15337 50.848807 
L 180.322877 50.848807 
L 180.492384 51.564931 
L 180.831398 51.917313 
L 181.000905 51.917313 
L 181.170412 50.667508 
L 181.339919 50.667508 
L 181.509426 51.917313 
L 181.678933 51.029495 
L 181.84844 51.741573 
L 182.017947 51.564931 
L 182.187454 52.439537 
L 182.356961 51.917313 
L 182.526468 51.917313 
L 182.695975 50.667508 
L 183.034989 51.564931 
L 183.204496 50.848807 
L 183.54351 51.741573 
L 183.713017 51.029495 
L 183.882524 52.266451 
L 184.052031 51.387376 
L 184.221538 51.387376 
L 184.391045 50.667508 
L 184.560552 51.917313 
L 184.730059 50.485248 
L 184.899566 51.564931 
L 185.069073 50.667508 
L 185.23858 51.741573 
L 185.747101 50.302016 
L 185.916607 52.439537 
L 186.086114 51.917313 
L 186.255621 51.917313 
L 186.594635 50.302016 
L 186.933649 51.387376 
L 187.103156 51.387376 
L 187.272663 51.208901 
L 187.611677 47.825888 
L 187.781184 48.413171 
L 187.950691 51.741573 
L 188.120198 48.413171 
L 188.459212 51.029495 
L 188.798226 48.990946 
L 188.967733 48.022767 
L 189.13724 47.825888 
L 189.306747 50.117804 
L 189.476254 49.18128 
L 189.984775 51.029495 
L 190.154282 50.117804 
L 190.323789 50.485248 
L 190.493296 48.79919 
L 190.662803 48.79919 
L 190.83231 48.606723 
L 191.001817 48.022767 
L 191.171324 48.413171 
L 191.340831 49.932599 
L 191.510338 49.932599 
L 191.679845 49.558815 
L 191.849352 48.606723 
L 192.018859 48.606723 
L 192.188366 48.413171 
L 192.52738 50.302016 
L 192.696887 49.558815 
L 192.866393 50.302016 
L 193.0359 46.208093 
L 193.205407 49.370565 
L 193.544421 46.619934 
L 193.713928 48.413171 
L 193.883435 48.218523 
L 194.052942 47.825888 
L 194.222449 47.026514 
L 194.391956 47.428338 
L 194.561463 46.619934 
L 194.73097 47.428338 
L 194.900477 47.026514 
L 195.069984 46.208093 
L 195.408998 49.370565 
L 195.578505 43.405418 
L 195.748012 48.606723 
L 196.087026 47.228014 
L 196.256533 45.791648 
L 196.42604 46.208093 
L 196.595547 48.022767 
L 196.765054 46.823826 
L 197.104068 48.413171 
L 197.273575 45.581516 
L 197.443082 48.022767 
L 197.612589 44.727478 
L 197.782096 48.022767 
L 197.951603 45.369691 
L 198.12111 45.369691 
L 198.290617 47.026514 
L 198.460124 47.428338 
L 198.629631 43.629258 
L 198.799138 43.851648 
L 198.968645 47.428338 
L 199.307659 44.51071 
L 199.477166 47.428338 
L 199.646673 46.208093 
L 199.816179 43.629258 
L 199.985686 45.369691 
L 200.155193 44.942887 
L 200.3247 45.369691 
L 200.494207 47.026514 
L 200.663714 43.180107 
L 201.002728 45.791648 
L 201.341742 42.494725 
L 201.511249 44.292563 
L 201.680756 44.727478 
L 201.850263 47.825888 
L 202.01977 44.292563 
L 202.189277 43.405418 
L 202.358784 45.156952 
L 202.867305 43.629258 
L 203.036812 44.292563 
L 203.206319 43.629258 
L 203.375826 41.795812 
L 203.71484 45.156952 
L 203.884347 44.942887 
L 204.053854 41.795812 
L 204.223361 43.629258 
L 204.392868 43.180107 
L 204.562375 41.321381 
L 204.731882 43.851648 
L 204.901389 43.405418 
L 205.070896 43.405418 
L 205.240403 42.724566 
L 205.40991 44.292563 
L 205.579417 44.072606 
L 205.748924 46.000502 
L 205.918431 40.353286 
L 206.257445 43.405418 
L 206.426952 42.724566 
L 206.596458 45.581516 
L 206.765965 42.030369 
L 206.935472 42.263333 
L 207.104979 43.180107 
L 207.274486 40.84075 
L 207.443993 42.494725 
L 207.6135 42.724566 
L 207.783007 40.597884 
L 207.952514 40.597884 
L 208.122021 43.629258 
L 208.291528 44.072606 
L 208.461035 45.369691 
L 208.630542 41.795812 
L 208.800049 43.405418 
L 208.969556 40.84075 
L 209.30857 42.263333 
L 209.478077 40.84075 
L 209.647584 42.494725 
L 209.817091 42.263333 
L 209.986598 43.851648 
L 210.156105 40.353286 
L 210.325612 39.356581 
L 210.664626 41.559194 
L 210.834133 40.106464 
L 211.173147 41.321381 
L 211.342654 40.597884 
L 211.512161 41.795812 
L 211.681668 40.106464 
L 212.020682 42.030369 
L 212.190189 38.589438 
L 212.359696 39.858321 
L 212.529203 45.156952 
L 212.69871 39.356581 
L 213.037724 41.559194 
L 213.207231 40.84075 
L 213.376738 38.847387 
L 213.715751 41.321381 
L 213.885258 39.858321 
L 214.054765 40.106464 
L 214.393779 43.629258 
L 214.563286 39.356581 
L 214.9023 42.030369 
L 215.410821 39.608369 
L 215.580328 39.858321 
L 215.919342 39.858321 
L 216.088849 41.321381 
L 216.427863 38.589438 
L 216.59737 39.10293 
L 216.766877 41.321381 
L 217.105891 39.356581 
L 217.275398 41.321381 
L 217.444905 41.321381 
L 217.614412 39.608369 
L 217.783919 41.795812 
L 217.953426 40.106464 
L 218.122933 39.858321 
L 218.29244 40.353286 
L 218.461947 41.559194 
L 218.800961 39.608369 
L 218.970468 39.356581 
L 219.139975 38.847387 
L 219.309482 38.847387 
L 219.478989 38.589438 
L 219.648496 39.608369 
L 219.818003 38.847387 
L 219.98751 38.847387 
L 220.157017 40.353286 
L 220.326524 38.847387 
L 220.49603 40.84075 
L 220.665537 38.068629 
L 220.835044 39.608369 
L 221.004551 38.330023 
L 221.343565 41.321381 
L 221.513072 40.84075 
L 221.682579 39.608369 
L 221.852086 37.002132 
L 222.021593 39.608369 
L 222.1911 39.858321 
L 222.360607 39.608369 
L 222.530114 40.597884 
L 222.699621 40.106464 
L 222.869128 40.84075 
L 223.038635 39.10293 
L 223.208142 38.589438 
L 223.377649 40.353286 
L 223.547156 38.847387 
L 223.88617 40.106464 
L 224.055677 39.608369 
L 224.225184 40.106464 
L 224.394691 39.858321 
L 224.564198 39.10293 
L 224.733705 39.608369 
L 224.903212 39.608369 
L 225.072719 38.330023 
L 225.242226 40.353286 
L 225.58124 38.330023 
L 225.750747 38.330023 
L 225.920254 37.539781 
L 226.089761 38.068629 
L 226.259268 37.805225 
L 226.428775 38.589438 
L 226.598282 40.353286 
L 226.767789 38.068629 
L 226.937296 38.330023 
L 227.106803 39.608369 
L 227.27631 38.847387 
L 227.445816 38.847387 
L 227.615323 39.356581 
L 227.954337 37.539781 
L 228.293351 40.106464 
L 228.462858 38.847387 
L 228.632365 38.589438 
L 228.801872 40.106464 
L 229.140886 36.730366 
L 229.4799 39.608369 
L 229.649407 38.068629 
L 229.818914 39.10293 
L 229.988421 38.068629 
L 230.157928 37.805225 
L 230.327435 37.271758 
L 230.496942 39.608369 
L 230.666449 37.805225 
L 230.835956 38.330023 
L 231.005463 37.002132 
L 231.17497 39.608369 
L 231.344477 38.589438 
L 231.513984 39.10293 
L 231.683491 38.847387 
L 231.852998 38.330023 
L 232.022505 38.330023 
L 232.361519 39.858321 
L 232.531026 36.730366 
L 232.87004 40.106464 
L 233.039547 39.858321 
L 233.378561 38.589438 
L 233.548068 39.608369 
L 233.887082 37.805225 
L 234.056589 38.847387 
L 234.226096 38.068629 
L 234.395602 38.330023 
L 234.565109 39.10293 
L 234.734616 39.10293 
L 235.07363 37.002132 
L 235.243137 41.081908 
L 235.582151 37.002132 
L 235.751658 38.068629 
L 235.921165 38.330023 
L 236.090672 38.330023 
L 236.260179 38.068629 
L 236.429686 38.847387 
L 236.7687 36.180279 
L 236.938207 38.589438 
L 237.107714 38.330023 
L 237.277221 40.597884 
L 237.446728 39.608369 
L 237.616235 37.002132 
L 237.785742 36.180279 
L 237.955249 39.608369 
L 238.124756 39.10293 
L 238.294263 40.353286 
L 238.46377 37.805225 
L 238.633277 37.002132 
L 238.802784 38.847387 
L 238.972291 36.456427 
L 239.311305 39.608369 
L 239.480812 38.589438 
L 239.650319 39.10293 
L 239.989333 37.271758 
L 240.15884 37.805225 
L 240.328347 38.847387 
L 240.497854 37.002132 
L 240.667361 38.068629 
L 240.836868 37.271758 
L 241.006375 39.356581 
L 241.175882 37.805225 
L 241.345388 38.847387 
L 241.514895 37.002132 
L 241.684402 37.539781 
L 241.853909 39.608369 
L 242.192923 38.847387 
L 242.36243 37.002132 
L 242.531937 37.271758 
L 242.870951 38.589438 
L 243.040458 38.068629 
L 243.209965 38.847387 
L 243.379472 38.068629 
L 243.548979 38.068629 
L 243.718486 40.597884 
L 244.0575 37.002132 
L 244.227007 39.356581 
L 244.396514 39.608369 
L 244.566021 36.456427 
L 244.735528 37.002132 
L 244.905035 39.608369 
L 245.244049 35.901887 
L 245.413556 37.539781 
L 245.583063 38.068629 
L 245.75257 36.456427 
L 245.922077 38.589438 
L 246.091584 37.271758 
L 246.430598 38.847387 
L 246.769612 37.271758 
L 247.108626 38.589438 
L 247.278133 36.730366 
L 247.44764 38.847387 
L 247.617147 37.539781 
L 247.786654 37.539781 
L 248.125668 39.10293 
L 248.295174 37.805225 
L 248.464681 37.805225 
L 248.634188 38.068629 
L 248.973202 36.730366 
L 249.142709 39.356581 
L 249.481723 36.730366 
L 249.65123 37.271758 
L 249.820737 38.330023 
L 250.159751 35.620682 
L 250.329258 37.539781 
L 250.498765 37.805225 
L 250.668272 39.10293 
L 250.837779 37.271758 
L 251.007286 38.589438 
L 251.176793 38.847387 
L 251.3463 38.330023 
L 251.515807 37.271758 
L 251.685314 38.330023 
L 251.854821 37.271758 
L 252.024328 37.271758 
L 252.193835 38.847387 
L 252.363342 38.847387 
L 252.532849 38.068629 
L 252.702356 40.106464 
L 252.871863 39.356581 
L 253.210877 36.730366 
L 253.380384 37.805225 
L 253.549891 39.608369 
L 253.719398 36.730366 
L 253.888905 37.271758 
L 254.058412 38.330023 
L 254.227919 37.539781 
L 254.397426 37.539781 
L 254.566933 38.847387 
L 254.73644 35.620682 
L 254.905947 38.330023 
L 255.414467 36.180279 
L 255.753481 37.002132 
L 255.922988 37.002132 
L 256.092495 36.180279 
L 256.262002 38.589438 
L 256.431509 35.901887 
L 256.601016 38.589438 
L 256.770523 37.805225 
L 256.94003 36.456427 
L 257.109537 38.330023 
L 257.279044 38.330023 
L 257.448551 37.539781 
L 257.618058 39.356581 
L 257.787565 37.002132 
L 257.957072 38.330023 
L 258.126579 35.620682 
L 258.296086 38.330023 
L 258.465593 38.330023 
L 258.6351 39.10293 
L 258.804607 35.901887 
L 258.974114 37.539781 
L 259.143621 37.805225 
L 259.313128 37.539781 
L 259.482635 38.330023 
L 259.652142 36.730366 
L 259.821649 36.456427 
L 259.991156 38.589438 
L 260.160663 38.330023 
L 260.499677 36.730366 
L 260.669184 38.330023 
L 261.008198 37.271758 
L 261.177705 37.539781 
L 261.347212 37.002132 
L 261.516719 38.589438 
L 262.025239 36.456427 
L 262.364253 37.271758 
L 262.53376 39.356581 
L 262.872774 36.180279 
L 263.042281 36.180279 
L 263.211788 38.068629 
L 263.550802 36.456427 
L 263.720309 38.330023 
L 263.889816 38.068629 
L 264.059323 37.271758 
L 264.22883 39.10293 
L 264.567844 35.620682 
L 264.737351 38.589438 
L 265.076365 36.456427 
L 265.245872 39.858321 
L 265.415379 37.002132 
L 265.584886 36.730366 
L 265.754393 37.539781 
L 265.9239 36.456427 
L 266.262914 38.847387 
L 266.432421 35.620682 
L 266.601928 38.589438 
L 266.940942 37.002132 
L 267.110449 38.330023 
L 267.279956 36.730366 
L 267.449463 36.730366 
L 267.61897 35.901887 
L 267.957984 38.847387 
L 268.296998 37.002132 
L 268.466505 35.337684 
L 268.636012 37.271758 
L 268.805519 37.002132 
L 268.975025 39.356581 
L 269.144532 37.539781 
L 269.314039 38.589438 
L 269.483546 38.068629 
L 269.653053 36.456427 
L 269.82256 38.068629 
L 269.992067 37.271758 
L 270.161574 37.271758 
L 270.331081 37.002132 
L 270.500588 38.330023 
L 270.670095 37.539781 
L 270.839602 37.539781 
L 271.178616 35.620682 
L 271.348123 39.608369 
L 271.51763 36.456427 
L 271.687137 38.068629 
L 271.856644 37.002132 
L 272.026151 38.589438 
L 272.195658 39.10293 
L 272.365165 36.180279 
L 272.534672 36.730366 
L 272.704179 36.456427 
L 272.873686 37.002132 
L 273.043193 37.002132 
L 273.2127 38.847387 
L 273.551714 37.002132 
L 273.721221 38.068629 
L 273.890728 37.002132 
L 274.229742 38.330023 
L 274.399249 38.589438 
L 274.568756 35.901887 
L 274.738263 35.620682 
L 274.90777 35.901887 
L 275.077277 38.330023 
L 275.246784 37.002132 
L 275.416291 38.330023 
L 275.585798 36.456427 
L 275.755305 37.002132 
L 275.924811 37.002132 
L 276.094318 37.271758 
L 276.263825 37.271758 
L 276.433332 35.901887 
L 276.602839 36.730366 
L 276.772346 38.847387 
L 277.11136 36.730366 
L 277.280867 37.002132 
L 277.450374 38.068629 
L 277.619881 36.180279 
L 277.789388 37.539781 
L 277.958895 37.271758 
L 278.128402 38.847387 
L 278.297909 37.002132 
L 278.467416 38.068629 
L 278.636923 37.002132 
L 278.80643 38.068629 
L 279.145444 35.620682 
L 279.314951 37.539781 
L 279.484458 36.180279 
L 279.653965 38.330023 
L 279.823472 38.847387 
L 279.992979 37.539781 
L 280.162486 39.10293 
L 280.331993 37.271758 
L 280.5015 37.002132 
L 280.671007 38.068629 
L 280.840514 37.271758 
L 281.179528 37.805225 
L 281.349035 39.10293 
L 281.518542 39.10293 
L 281.688049 37.002132 
L 281.857556 37.805225 
L 282.027063 37.805225 
L 282.19657 38.589438 
L 282.366077 37.002132 
L 282.535584 37.539781 
L 282.705091 35.052328 
L 282.874597 38.330023 
L 283.044104 37.271758 
L 283.213611 37.002132 
L 283.383118 38.330023 
L 283.552625 35.901887 
L 283.722132 37.002132 
L 283.891639 36.730366 
L 284.061146 38.330023 
L 284.230653 38.589438 
L 284.40016 36.180279 
L 284.569667 35.620682 
L 284.739174 37.539781 
L 284.908681 37.271758 
L 285.078188 38.589438 
L 285.247695 36.456427 
L 285.586709 37.805225 
L 285.756216 36.730366 
L 285.925723 38.847387 
L 286.09523 38.330023 
L 286.264737 34.474381 
L 286.434244 38.068629 
L 286.603751 35.620682 
L 286.773258 36.730366 
L 286.942765 37.002132 
L 287.112272 37.002132 
L 287.281779 35.620682 
L 287.451286 37.539781 
L 287.620793 35.901887 
L 287.7903 37.539781 
L 287.959807 37.271758 
L 288.129314 37.539781 
L 288.298821 36.456427 
L 288.637835 38.847387 
L 288.807342 36.180279 
L 289.146356 38.330023 
L 289.315863 37.002132 
L 289.654877 36.456427 
L 289.824383 38.589438 
L 289.99389 35.901887 
L 290.163397 39.356581 
L 290.332904 38.068629 
L 290.502411 37.805225 
L 290.671918 37.002132 
L 290.841425 34.181153 
L 291.010932 37.539781 
L 291.180439 36.456427 
L 291.349946 36.730366 
L 291.519453 38.589438 
L 291.858467 35.337684 
L 292.027974 37.539781 
L 292.197481 37.539781 
L 292.366988 36.456427 
L 292.536495 38.330023 
L 292.706002 37.539781 
L 292.875509 35.620682 
L 293.045016 36.180279 
L 293.214523 38.068629 
L 293.38403 38.330023 
L 293.553537 35.337684 
L 293.723044 38.068629 
L 294.062058 35.901887 
L 294.401072 37.805225 
L 294.740086 37.805225 
L 294.909593 36.730366 
L 295.0791 37.002132 
L 295.248607 34.181153 
L 295.418114 38.589438 
L 295.587621 36.730366 
L 295.757128 38.068629 
L 295.926635 36.456427 
L 296.096142 38.068629 
L 296.265649 36.730366 
L 296.435156 36.730366 
L 296.604663 39.356581 
L 296.774169 35.901887 
L 296.943676 37.539781 
L 297.452197 35.620682 
L 297.621704 37.805225 
L 297.791211 37.805225 
L 297.960718 36.456427 
L 298.130225 37.271758 
L 298.299732 36.180279 
L 298.469239 38.068629 
L 298.638746 36.456427 
L 298.808253 36.456427 
L 298.97776 37.805225 
L 299.316774 36.456427 
L 299.655788 38.068629 
L 299.825295 36.180279 
L 299.994802 36.730366 
L 300.164309 35.337684 
L 300.333816 35.901887 
L 300.503323 37.271758 
L 300.67283 33.88595 
L 301.011844 37.539781 
L 301.181351 36.730366 
L 301.350858 37.002132 
L 301.520365 38.847387 
L 301.689872 36.180279 
L 301.859379 36.730366 
L 302.198393 36.730366 
L 302.3679 36.180279 
L 302.537407 37.002132 
L 302.706914 35.052328 
L 302.876421 38.068629 
L 303.045928 37.002132 
L 303.215435 34.181153 
L 303.384942 38.847387 
L 303.554448 38.330023 
L 303.723955 37.271758 
L 303.893462 37.271758 
L 304.062969 38.847387 
L 304.232476 35.901887 
L 304.401983 38.068629 
L 304.57149 37.002132 
L 304.740997 38.847387 
L 304.910504 38.330023 
L 305.080011 37.002132 
L 305.249518 37.805225 
L 305.419025 37.271758 
L 305.588532 37.271758 
L 305.758039 37.002132 
L 305.927546 35.052328 
L 306.097053 37.539781 
L 306.26656 36.180279 
L 306.436067 36.730366 
L 306.605574 38.330023 
L 306.775081 38.847387 
L 306.944588 35.337684 
L 307.114095 38.068629 
L 307.283602 34.474381 
L 307.453109 37.271758 
L 307.622616 36.456427 
L 307.96163 37.805225 
L 308.131137 36.730366 
L 308.300644 37.002132 
L 308.470151 37.539781 
L 308.639658 36.180279 
L 308.809165 37.539781 
L 308.978672 35.620682 
L 309.148179 37.002132 
L 309.317686 35.620682 
L 309.487193 37.271758 
L 309.826207 35.052328 
L 309.995714 34.474381 
L 310.165221 36.456427 
L 310.334728 37.002132 
L 310.504234 35.337684 
L 310.673741 35.052328 
L 310.843248 37.805225 
L 311.012755 36.180279 
L 311.182262 35.901887 
L 311.351769 36.456427 
L 311.521276 37.805225 
L 311.690783 35.620682 
L 311.86029 38.330023 
L 312.029797 36.730366 
L 312.199304 38.068629 
L 312.368811 37.805225 
L 312.538318 35.620682 
L 312.707825 38.068629 
L 313.046839 37.539781 
L 313.385853 36.456427 
L 313.724867 37.002132 
L 313.894374 34.764574 
L 314.233388 38.068629 
L 314.402895 35.901887 
L 314.572402 37.271758 
L 314.741909 36.456427 
L 314.911416 37.271758 
L 315.080923 39.10293 
L 315.419937 36.180279 
L 315.928458 37.002132 
L 316.097965 37.805225 
L 316.267472 38.068629 
L 316.436979 33.287796 
L 316.606486 35.901887 
L 316.775993 35.052328 
L 316.9455 37.002132 
L 317.284514 37.539781 
L 317.45402 35.901887 
L 317.623527 37.002132 
L 317.793034 38.847387 
L 317.962541 36.180279 
L 318.132048 37.271758 
L 318.301555 35.052328 
L 318.471062 37.002132 
L 318.640569 35.052328 
L 318.810076 36.180279 
L 318.979583 34.764574 
L 319.318597 37.805225 
L 319.488104 37.539781 
L 319.657611 37.805225 
L 319.827118 36.456427 
L 319.996625 38.330023 
L 320.166132 35.620682 
L 320.335639 37.271758 
L 320.505146 36.180279 
L 320.674653 33.88595 
L 320.84416 37.271758 
L 321.013667 34.474381 
L 321.183174 35.901887 
L 321.352681 34.764574 
L 321.522188 38.068629 
L 321.691695 35.901887 
L 322.200216 37.805225 
L 322.369723 35.052328 
L 322.53923 36.730366 
L 322.708737 36.180279 
L 322.878244 35.052328 
L 323.047751 36.730366 
L 323.217258 36.456427 
L 323.386765 34.764574 
L 323.556272 37.271758 
L 323.725779 37.539781 
L 323.895286 36.456427 
L 324.064793 36.180279 
L 324.2343 37.271758 
L 324.403806 35.620682 
L 324.573313 37.805225 
L 324.74282 37.805225 
L 324.912327 35.901887 
L 325.081834 35.620682 
L 325.251341 36.456427 
L 325.420848 34.764574 
L 325.590355 37.002132 
L 325.759862 35.901887 
L 325.929369 37.271758 
L 326.098876 37.539781 
L 326.268383 36.180279 
L 326.43789 38.068629 
L 326.776904 33.88595 
L 327.115918 35.620682 
L 327.285425 38.068629 
L 327.454932 33.88595 
L 327.624439 38.068629 
L 327.793946 35.620682 
L 327.963453 35.901887 
L 328.13296 37.271758 
L 328.302467 37.539781 
L 328.471974 34.474381 
L 328.641481 35.901887 
L 328.810988 35.901887 
L 328.980495 36.456427 
L 329.319509 35.052328 
L 329.489016 38.068629 
L 329.82803 32.679002 
L 329.997537 36.180279 
L 330.167044 36.456427 
L 330.336551 38.589438 
L 330.675565 34.764574 
L 330.845072 35.052328 
L 331.014579 35.620682 
L 331.184086 34.764574 
L 331.353592 35.052328 
L 331.523099 36.456427 
L 331.692606 34.181153 
L 332.201127 38.068629 
L 332.370634 39.608369 
L 332.540141 36.180279 
L 332.709648 35.901887 
L 332.879155 35.052328 
L 333.048662 36.730366 
L 333.387676 33.588179 
L 333.557183 35.052328 
L 333.72669 35.337684 
L 333.896197 36.456427 
L 334.065704 33.88595 
L 334.235211 34.474381 
L 334.404718 37.539781 
L 334.574225 37.002132 
L 334.743732 34.764574 
L 334.913239 35.052328 
L 335.082746 37.002132 
L 335.252253 35.052328 
L 335.591267 37.805225 
L 335.760774 32.984752 
L 335.930281 35.901887 
L 336.099788 36.180279 
L 336.269295 34.474381 
L 336.608309 36.456427 
L 336.947323 33.287796 
L 337.11683 37.539781 
L 337.455844 35.620682 
L 337.794858 37.539781 
L 337.964365 33.287796 
L 338.133872 37.002132 
L 338.303378 33.588179 
L 338.642392 36.730366 
L 338.811899 35.620682 
L 338.981406 37.539781 
L 339.150913 33.588179 
L 339.32042 37.271758 
L 339.489927 32.058592 
L 339.659434 35.337684 
L 339.828941 33.588179 
L 339.998448 35.620682 
L 340.167955 35.901887 
L 340.337462 34.764574 
L 340.506969 36.180279 
L 340.676476 36.456427 
L 340.845983 32.058592 
L 341.01549 35.620682 
L 341.184997 36.730366 
L 341.354504 32.058592 
L 341.524011 33.588179 
L 341.693518 38.068629 
L 342.032532 33.88595 
L 342.202039 35.901887 
L 342.371546 35.052328 
L 342.541053 33.588179 
L 342.71056 37.002132 
L 342.880067 32.679002 
L 343.049574 32.679002 
L 343.219081 38.847387 
L 343.558095 33.588179 
L 343.727602 37.271758 
L 343.897109 35.901887 
L 344.066616 30.128115 
L 344.236123 36.456427 
L 344.40563 36.180279 
L 344.575137 32.369911 
L 344.744644 35.620682 
L 344.914151 36.456427 
L 345.083658 33.88595 
L 345.253164 34.474381 
L 345.422671 36.456427 
L 345.592178 35.337684 
L 345.761685 35.052328 
L 345.931192 33.588179 
L 346.100699 35.337684 
L 346.270206 35.337684 
L 346.439713 34.181153 
L 346.60922 37.271758 
L 347.117741 35.337684 
L 347.287248 35.052328 
L 347.456755 32.679002 
L 347.795769 36.180279 
L 347.965276 34.764574 
L 348.134783 36.730366 
L 348.30429 32.679002 
L 348.643304 35.901887 
L 348.812811 28.431635 
L 348.982318 36.730366 
L 349.151825 35.052328 
L 349.321332 35.337684 
L 349.490839 31.744415 
L 349.660346 36.180279 
L 349.829853 35.337684 
L 349.99936 33.588179 
L 350.168867 35.337684 
L 350.338374 32.984752 
L 350.507881 34.181153 
L 350.677388 38.330023 
L 351.016402 32.369911 
L 351.185909 37.271758 
L 351.524923 33.88595 
L 351.69443 37.539781 
L 351.863937 37.805225 
L 352.033443 32.679002 
L 352.372457 34.474381 
L 352.541964 36.456427 
L 352.711471 35.337684 
L 352.880978 35.901887 
L 353.050485 33.588179 
L 353.219992 34.474381 
L 353.389499 34.474381 
L 353.559006 35.052328 
L 353.728513 33.88595 
L 353.89802 34.474381 
L 354.067527 35.620682 
L 354.237034 32.369911 
L 354.406541 36.456427 
L 354.576048 33.588179 
L 354.745555 35.901887 
L 354.915062 34.181153 
L 355.084569 38.068629 
L 355.254076 35.052328 
L 355.423583 34.181153 
L 355.59309 35.901887 
L 355.762597 34.474381 
L 355.932104 35.052328 
L 356.101611 35.052328 
L 356.271118 33.588179 
L 356.440625 35.337684 
L 356.610132 32.058592 
L 356.949146 35.337684 
L 357.28816 32.058592 
L 357.457667 33.287796 
L 357.627174 32.369911 
L 357.796681 36.180279 
L 357.966188 33.287796 
L 358.135695 36.456427 
L 358.474709 33.588179 
L 358.644216 35.337684 
L 358.813723 33.588179 
L 358.983229 29.79561 
L 359.152736 35.901887 
L 359.322243 35.337684 
L 359.49175 29.459841 
L 359.661257 35.337684 
L 359.830764 35.620682 
L 360.000271 28.431635 
L 360.169778 36.180279 
L 360.339285 35.620682 
L 360.508792 30.128115 
L 360.847806 36.180279 
L 361.017313 32.058592 
L 361.356327 36.180279 
L 361.695341 33.88595 
L 361.864848 34.764574 
L 362.034355 38.068629 
L 362.373369 32.679002 
L 362.542876 36.730366 
L 362.712383 33.588179 
L 362.88189 34.181153 
L 363.051397 35.901887 
L 363.220904 35.337684 
L 363.390411 33.588179 
L 363.559918 35.620682 
L 363.898932 31.107271 
L 364.237946 37.002132 
L 364.407453 33.287796 
L 364.57696 36.730366 
L 364.746467 32.679002 
L 364.915974 32.058592 
L 365.085481 33.88595 
L 365.254988 32.369911 
L 365.424495 36.180279 
L 365.594002 32.058592 
L 365.763509 34.474381 
L 365.933015 35.052328 
L 366.102522 32.984752 
L 366.272029 37.805225 
L 366.611043 32.679002 
L 366.950057 35.337684 
L 367.119564 33.88595 
L 367.289071 29.120743 
L 367.458578 36.730366 
L 367.628085 34.764574 
L 367.797592 31.107271 
L 368.136606 33.88595 
L 368.306113 33.588179 
L 368.47562 35.052328 
L 368.645127 35.337684 
L 368.984141 33.287796 
L 369.153648 34.764574 
L 369.323155 31.107271 
L 369.492662 30.457419 
L 369.662169 34.764574 
L 369.831676 34.181153 
L 370.001183 31.427326 
L 370.17069 35.620682 
L 370.340197 31.427326 
L 370.509704 33.588179 
L 370.679211 34.181153 
L 370.848718 32.679002 
L 371.018225 28.777601 
L 371.187732 35.052328 
L 371.526746 32.679002 
L 371.696253 35.620682 
L 371.86576 32.984752 
L 372.035267 34.474381 
L 372.204774 30.784194 
L 372.713295 32.679002 
L 372.882801 32.369911 
L 373.052308 30.128115 
L 373.391322 34.474381 
L 373.560829 32.369911 
L 373.730336 33.588179 
L 374.06935 30.457419 
L 374.238857 36.180279 
L 374.408364 32.679002 
L 374.577871 32.058592 
L 374.747378 34.181153 
L 374.916885 33.588179 
L 375.086392 30.784194 
L 375.255899 31.427326 
L 375.425406 35.337684 
L 375.594913 28.777601 
L 375.76442 37.002132 
L 375.933927 30.784194 
L 376.272941 32.984752 
L 376.442448 31.107271 
L 376.611955 31.427326 
L 376.781462 30.784194 
L 376.950969 32.058592 
L 377.120476 31.744415 
L 377.289983 32.679002 
L 377.45949 34.474381 
L 377.628997 32.679002 
L 377.798504 32.369911 
L 377.968011 30.457419 
L 378.137518 35.337684 
L 378.476532 29.459841 
L 378.646039 34.764574 
L 378.985053 30.128115 
L 379.15456 34.474381 
L 379.324067 32.058592 
L 379.493574 26.278237 
L 379.663081 34.181153 
L 379.832587 34.474381 
L 380.002094 29.79561 
L 380.171601 35.620682 
L 380.341108 28.777601 
L 380.510615 30.784194 
L 380.680122 34.181153 
L 380.849629 30.128115 
L 381.019136 34.474381 
L 381.188643 31.107271 
L 381.35815 33.88595 
L 381.527657 30.784194 
L 381.697164 33.88595 
L 381.866671 29.459841 
L 382.036178 33.287796 
L 382.375192 31.107271 
L 382.544699 33.588179 
L 382.714206 32.984752 
L 382.883713 34.764574 
L 383.05322 35.052328 
L 383.222727 30.457419 
L 383.392234 34.764574 
L 383.731248 28.777601 
L 383.900755 35.337684 
L 384.239769 29.459841 
L 384.578783 35.901887 
L 384.74829 32.369911 
L 384.917797 32.984752 
L 385.087304 35.052328 
L 385.256811 27.729022 
L 385.426318 35.052328 
L 385.765332 29.459841 
L 385.934839 38.330023 
L 386.104346 28.777601 
L 386.273853 35.620682 
L 386.44336 34.181153 
L 386.612867 28.082133 
L 386.782373 33.88595 
L 386.95188 32.369911 
L 387.121387 25.905888 
L 387.290894 31.107271 
L 387.460401 32.369911 
L 387.629908 28.082133 
L 387.799415 34.181153 
L 387.968922 31.744415 
L 388.138429 32.058592 
L 388.307936 31.107271 
L 388.477443 33.287796 
L 388.64695 32.984752 
L 388.816457 28.431635 
L 388.985964 33.88595 
L 389.155471 28.431635 
L 389.324978 32.984752 
L 389.494485 32.679002 
L 389.663992 31.427326 
L 389.833499 31.427326 
L 390.003006 32.679002 
L 390.172513 29.79561 
L 390.34202 31.744415 
L 390.511527 35.052328 
L 390.681034 28.777601 
L 390.850541 29.79561 
L 391.020048 33.588179 
L 391.189555 32.369911 
L 391.359062 33.88595 
L 391.528569 32.679002 
L 391.698076 25.905888 
L 391.867583 33.88595 
L 392.03709 32.984752 
L 392.206597 28.777601 
L 392.376104 35.337684 
L 392.715118 27.372226 
L 392.884625 33.588179 
L 393.223639 29.120743 
L 393.393146 35.052328 
L 393.562652 28.431635 
L 393.732159 33.88595 
L 393.901666 28.777601 
L 394.071173 33.88595 
L 394.24068 32.679002 
L 394.410187 33.287796 
L 394.579694 29.79561 
L 394.749201 34.764574 
L 394.918708 29.120743 
L 395.088215 34.181153 
L 395.257722 30.784194 
L 395.766243 34.181153 
L 396.105257 33.287796 
L 396.274764 27.372226 
L 396.444271 32.984752 
L 396.613778 29.79561 
L 396.783285 30.128115 
L 396.952792 33.287796 
L 397.122299 26.646574 
L 397.291806 32.369911 
L 397.461313 32.679002 
L 397.63082 28.082133 
L 397.800327 35.052328 
L 398.139341 28.777601 
L 398.308848 35.901887 
L 398.478355 25.148795 
L 398.647862 28.431635 
L 398.817369 35.337684 
L 398.986876 25.905888 
L 399.32589 35.901887 
L 399.495397 24.373811 
L 399.834411 38.068629 
L 400.003918 29.120743 
L 400.173425 33.287796 
L 400.342932 33.88595 
L 400.512438 27.729022 
L 400.681945 36.180279 
L 400.851452 32.984752 
L 401.020959 25.905888 
L 401.190466 34.764574 
L 401.52948 30.128115 
L 401.698987 28.082133 
L 401.868494 34.764574 
L 402.038001 27.372226 
L 402.207508 30.784194 
L 402.377015 29.459841 
L 402.546522 31.107271 
L 402.716029 28.431635 
L 403.055043 33.588179 
L 403.22455 26.646574 
L 403.394057 32.058592 
L 403.563564 31.744415 
L 403.733071 26.278237 
L 403.902578 32.679002 
L 404.072085 27.729022 
L 404.241592 29.120743 
L 404.411099 35.337684 
L 404.580606 29.79561 
L 404.750113 33.287796 
L 404.91962 33.287796 
L 405.089127 27.372226 
L 405.428141 32.369911 
L 405.597648 26.278237 
L 405.767155 31.744415 
L 406.106169 29.459841 
L 406.275676 29.120743 
L 406.445183 32.984752 
L 406.784197 28.777601 
L 406.953704 33.88595 
L 407.123211 26.646574 
L 407.292718 32.369911 
L 407.631731 27.372226 
L 407.801238 32.058592 
L 407.970745 32.679002 
L 408.140252 29.459841 
L 408.479266 32.369911 
L 408.648773 27.011667 
L 408.81828 36.456427 
L 408.987787 27.011667 
L 409.326801 32.369911 
L 409.496308 27.729022 
L 409.665815 27.372226 
L 409.835322 35.620682 
L 410.004829 30.784194 
L 410.174336 29.459841 
L 410.343843 35.337684 
L 410.51335 25.148795 
L 410.682857 34.474381 
L 410.852364 33.88595 
L 411.021871 25.905888 
L 411.191378 33.287796 
L 411.360885 31.427326 
L 411.530392 26.278237 
L 411.869406 34.474381 
L 412.038913 26.278237 
L 412.20842 32.058592 
L 412.377927 31.427326 
L 412.547434 25.905888 
L 412.716941 32.984752 
L 412.886448 32.679002 
L 413.055955 24.763864 
L 413.225462 37.002132 
L 413.564476 28.777601 
L 413.733983 35.901887 
L 413.90349 32.679002 
L 414.072997 26.278237 
L 414.242504 33.588179 
L 414.41201 27.729022 
L 414.581517 26.278237 
L 414.751024 31.107271 
L 414.920531 30.784194 
L 415.090038 27.372226 
L 415.259545 31.427326 
L 415.429052 31.744415 
L 415.598559 26.646574 
L 415.768066 33.287796 
L 415.937573 31.744415 
L 416.10708 27.372226 
L 416.276587 33.88595 
L 416.615601 27.011667 
L 416.785108 31.744415 
L 417.124122 27.729022 
L 417.293629 32.984752 
L 417.463136 27.372226 
L 417.632643 28.777601 
L 417.80215 35.052328 
L 417.971657 29.120743 
L 418.141164 29.459841 
L 418.310671 32.058592 
L 418.480178 27.729022 
L 418.819192 30.784194 
L 418.988699 26.646574 
L 419.327713 31.107271 
L 419.49722 28.431635 
L 419.666727 29.79561 
L 419.836234 30.128115 
L 420.005741 28.431635 
L 420.344755 31.744415 
L 420.514262 27.011667 
L 420.683769 31.427326 
L 420.853276 31.744415 
L 421.022783 25.148795 
L 421.19229 32.369911 
L 421.361796 31.107271 
L 421.531303 27.372226 
L 421.70081 30.457419 
L 421.870317 27.011667 
L 422.209331 31.107271 
L 422.378838 33.588179 
L 422.548345 25.148795 
L 422.887359 31.744415 
L 423.056866 25.529438 
L 423.226373 31.744415 
L 423.565387 26.278237 
L 423.734894 30.784194 
L 423.904401 25.148795 
L 424.073908 27.372226 
L 424.243415 31.744415 
L 424.412922 27.011667 
L 424.582429 25.905888 
L 424.751936 31.744415 
L 424.921443 25.905888 
L 425.09095 29.79561 
L 425.260457 29.120743 
L 425.429964 25.905888 
L 425.599471 29.120743 
L 425.768978 28.431635 
L 425.938485 24.373811 
L 426.277499 32.679002 
L 426.447006 24.763864 
L 426.616513 29.459841 
L 426.78602 26.278237 
L 426.955527 31.427326 
L 427.125034 26.278237 
L 427.294541 31.427326 
L 427.464048 31.107271 
L 427.633555 25.529438 
L 427.803062 34.474381 
L 428.142076 25.529438 
L 428.311582 31.744415 
L 428.650596 27.729022 
L 428.820103 34.474381 
L 428.98961 25.529438 
L 429.159117 32.679002 
L 429.498131 23.98 
L 429.667638 30.457419 
L 429.837145 27.011667 
L 430.006652 28.082133 
L 430.176159 30.784194 
L 430.515173 26.646574 
L 430.68468 33.588179 
L 430.854187 32.058592 
L 431.023694 25.905888 
L 431.193201 33.588179 
L 431.362708 25.529438 
L 431.532215 29.459841 
L 431.701722 28.777601 
L 431.871229 26.278237 
L 432.040736 34.474381 
L 432.210243 25.529438 
L 432.37975 27.729022 
L 432.549257 34.181153 
L 432.718764 25.148795 
L 432.888271 27.372226 
L 433.057778 34.181153 
L 433.057778 34.181153 
" clip-path="url(#p95cf3922a5)" style="fill: none; stroke: #e24a33; stroke-width: 1.5; stroke-linecap: square"/>
   </g>
   <g id="patch_3">
    <path d="M 77.271112 300.76 
L 77.271112 10.8 
" style="fill: none; stroke: #ffffff; stroke-linejoin: miter; stroke-linecap: square"/>
   </g>
   <g id="patch_4">
    <path d="M 450 300.76 
L 450 10.8 
" style="fill: none; stroke: #ffffff; stroke-linejoin: miter; stroke-linecap: square"/>
   </g>
   <g id="patch_5">
    <path d="M 77.271112 300.76 
L 450 300.76 
" style="fill: none; stroke: #ffffff; stroke-linejoin: miter; stroke-linecap: square"/>
   </g>
   <g id="patch_6">
    <path d="M 77.271112 10.8 
L 450 10.8 
" style="fill: none; stroke: #ffffff; stroke-linejoin: miter; stroke-linecap: square"/>
   </g>
  </g>
 </g>
 <defs>
  <clipPath id="p95cf3922a5">
   <rect x="77.271112" y="10.8" width="372.728888" height="289.96"/>
  </clipPath>
 </defs>
</svg>
