<?xml version="1.0" encoding="utf-8" standalone="no"?>
<!DOCTYPE svg PUBLIC "-//W3C//DTD SVG 1.1//EN"
  "http://www.w3.org/Graphics/SVG/1.1/DTD/svg11.dtd">
<svg xmlns:xlink="http://www.w3.org/1999/xlink" width="460.8pt" height="345.6pt" viewBox="0 0 460.8 345.6" xmlns="http://www.w3.org/2000/svg" version="1.1">
 <metadata>
  <rdf:RDF xmlns:dc="http://purl.org/dc/elements/1.1/" xmlns:cc="http://creativecommons.org/ns#" xmlns:rdf="http://www.w3.org/1999/02/22-rdf-syntax-ns#">
   <cc:Work>
    <dc:type rdf:resource="http://purl.org/dc/dcmitype/StillImage"/>
    <dc:date>2023-06-10T13:12:57.334841</dc:date>
    <dc:format>image/svg+xml</dc:format>
    <dc:creator>
     <cc:Agent>
      <dc:title>Matplotlib v3.6.3, https://matplotlib.org/</dc:title>
     </cc:Agent>
    </dc:creator>
   </cc:Work>
  </rdf:RDF>
 </metadata>
 <defs>
  <style type="text/css">*{stroke-linejoin: round; stroke-linecap: butt}</style>
 </defs>
 <g id="figure_1">
  <g id="patch_1">
   <path d="M 0 345.6 
L 460.8 345.6 
L 460.8 0 
L 0 0 
z
" style="fill: #ffffff"/>
  </g>
  <g id="axes_1">
   <g id="patch_2">
    <path d="M 77.271112 300.76 
L 450 300.76 
L 450 10.8 
L 77.271112 10.8 
z
" style="fill: #e5e5e5"/>
   </g>
   <g id="matplotlib.axis_1">
    <g id="xtick_1">
     <g id="line2d_1">
      <path d="M 94.213334 300.76 
L 94.213334 10.8 
" clip-path="url(#pd5047c7bef)" style="fill: none; stroke: #ffffff; stroke-width: 0.8; stroke-linecap: square"/>
     </g>
     <g id="line2d_2">
      <defs>
       <path id="m3f2c5708af" d="M 0 0 
L 0 3.5 
" style="stroke: #555555; stroke-width: 0.8"/>
      </defs>
      <g>
       <use xlink:href="#m3f2c5708af" x="94.213334" y="300.76" style="fill: #555555; stroke: #555555; stroke-width: 0.8"/>
      </g>
     </g>
     <g id="text_1">
      <!-- 0 -->
      <g style="fill: #555555" transform="translate(91.032084 315.358437) scale(0.1 -0.1)">
       <defs>
        <path id="DejaVuSans-30" d="M 2034 4250 
Q 1547 4250 1301 3770 
Q 1056 3291 1056 2328 
Q 1056 1369 1301 889 
Q 1547 409 2034 409 
Q 2525 409 2770 889 
Q 3016 1369 3016 2328 
Q 3016 3291 2770 3770 
Q 2525 4250 2034 4250 
z
M 2034 4750 
Q 2819 4750 3233 4129 
Q 3647 3509 3647 2328 
Q 3647 1150 3233 529 
Q 2819 -91 2034 -91 
Q 1250 -91 836 529 
Q 422 1150 422 2328 
Q 422 3509 836 4129 
Q 1250 4750 2034 4750 
z
" transform="scale(0.015625)"/>
       </defs>
       <use xlink:href="#DejaVuSans-30"/>
      </g>
     </g>
    </g>
    <g id="xtick_2">
     <g id="line2d_3">
      <path d="M 136.590078 300.76 
L 136.590078 10.8 
" clip-path="url(#pd5047c7bef)" style="fill: none; stroke: #ffffff; stroke-width: 0.8; stroke-linecap: square"/>
     </g>
     <g id="line2d_4">
      <g>
       <use xlink:href="#m3f2c5708af" x="136.590078" y="300.76" style="fill: #555555; stroke: #555555; stroke-width: 0.8"/>
      </g>
     </g>
     <g id="text_2">
      <!-- 250 -->
      <g style="fill: #555555" transform="translate(127.046328 315.358437) scale(0.1 -0.1)">
       <defs>
        <path id="DejaVuSans-32" d="M 1228 531 
L 3431 531 
L 3431 0 
L 469 0 
L 469 531 
Q 828 903 1448 1529 
Q 2069 2156 2228 2338 
Q 2531 2678 2651 2914 
Q 2772 3150 2772 3378 
Q 2772 3750 2511 3984 
Q 2250 4219 1831 4219 
Q 1534 4219 1204 4116 
Q 875 4013 500 3803 
L 500 4441 
Q 881 4594 1212 4672 
Q 1544 4750 1819 4750 
Q 2544 4750 2975 4387 
Q 3406 4025 3406 3419 
Q 3406 3131 3298 2873 
Q 3191 2616 2906 2266 
Q 2828 2175 2409 1742 
Q 1991 1309 1228 531 
z
" transform="scale(0.015625)"/>
        <path id="DejaVuSans-35" d="M 691 4666 
L 3169 4666 
L 3169 4134 
L 1269 4134 
L 1269 2991 
Q 1406 3038 1543 3061 
Q 1681 3084 1819 3084 
Q 2600 3084 3056 2656 
Q 3513 2228 3513 1497 
Q 3513 744 3044 326 
Q 2575 -91 1722 -91 
Q 1428 -91 1123 -41 
Q 819 9 494 109 
L 494 744 
Q 775 591 1075 516 
Q 1375 441 1709 441 
Q 2250 441 2565 725 
Q 2881 1009 2881 1497 
Q 2881 1984 2565 2268 
Q 2250 2553 1709 2553 
Q 1456 2553 1204 2497 
Q 953 2441 691 2322 
L 691 4666 
z
" transform="scale(0.015625)"/>
       </defs>
       <use xlink:href="#DejaVuSans-32"/>
       <use xlink:href="#DejaVuSans-35" x="63.623047"/>
       <use xlink:href="#DejaVuSans-30" x="127.246094"/>
      </g>
     </g>
    </g>
    <g id="xtick_3">
     <g id="line2d_5">
      <path d="M 178.966821 300.76 
L 178.966821 10.8 
" clip-path="url(#pd5047c7bef)" style="fill: none; stroke: #ffffff; stroke-width: 0.8; stroke-linecap: square"/>
     </g>
     <g id="line2d_6">
      <g>
       <use xlink:href="#m3f2c5708af" x="178.966821" y="300.76" style="fill: #555555; stroke: #555555; stroke-width: 0.8"/>
      </g>
     </g>
     <g id="text_3">
      <!-- 500 -->
      <g style="fill: #555555" transform="translate(169.423071 315.358437) scale(0.1 -0.1)">
       <use xlink:href="#DejaVuSans-35"/>
       <use xlink:href="#DejaVuSans-30" x="63.623047"/>
       <use xlink:href="#DejaVuSans-30" x="127.246094"/>
      </g>
     </g>
    </g>
    <g id="xtick_4">
     <g id="line2d_7">
      <path d="M 221.343565 300.76 
L 221.343565 10.8 
" clip-path="url(#pd5047c7bef)" style="fill: none; stroke: #ffffff; stroke-width: 0.8; stroke-linecap: square"/>
     </g>
     <g id="line2d_8">
      <g>
       <use xlink:href="#m3f2c5708af" x="221.343565" y="300.76" style="fill: #555555; stroke: #555555; stroke-width: 0.8"/>
      </g>
     </g>
     <g id="text_4">
      <!-- 750 -->
      <g style="fill: #555555" transform="translate(211.799815 315.358437) scale(0.1 -0.1)">
       <defs>
        <path id="DejaVuSans-37" d="M 525 4666 
L 3525 4666 
L 3525 4397 
L 1831 0 
L 1172 0 
L 2766 4134 
L 525 4134 
L 525 4666 
z
" transform="scale(0.015625)"/>
       </defs>
       <use xlink:href="#DejaVuSans-37"/>
       <use xlink:href="#DejaVuSans-35" x="63.623047"/>
       <use xlink:href="#DejaVuSans-30" x="127.246094"/>
      </g>
     </g>
    </g>
    <g id="xtick_5">
     <g id="line2d_9">
      <path d="M 263.720309 300.76 
L 263.720309 10.8 
" clip-path="url(#pd5047c7bef)" style="fill: none; stroke: #ffffff; stroke-width: 0.8; stroke-linecap: square"/>
     </g>
     <g id="line2d_10">
      <g>
       <use xlink:href="#m3f2c5708af" x="263.720309" y="300.76" style="fill: #555555; stroke: #555555; stroke-width: 0.8"/>
      </g>
     </g>
     <g id="text_5">
      <!-- 1000 -->
      <g style="fill: #555555" transform="translate(250.995309 315.358437) scale(0.1 -0.1)">
       <defs>
        <path id="DejaVuSans-31" d="M 794 531 
L 1825 531 
L 1825 4091 
L 703 3866 
L 703 4441 
L 1819 4666 
L 2450 4666 
L 2450 531 
L 3481 531 
L 3481 0 
L 794 0 
L 794 531 
z
" transform="scale(0.015625)"/>
       </defs>
       <use xlink:href="#DejaVuSans-31"/>
       <use xlink:href="#DejaVuSans-30" x="63.623047"/>
       <use xlink:href="#DejaVuSans-30" x="127.246094"/>
       <use xlink:href="#DejaVuSans-30" x="190.869141"/>
      </g>
     </g>
    </g>
    <g id="xtick_6">
     <g id="line2d_11">
      <path d="M 306.097053 300.76 
L 306.097053 10.8 
" clip-path="url(#pd5047c7bef)" style="fill: none; stroke: #ffffff; stroke-width: 0.8; stroke-linecap: square"/>
     </g>
     <g id="line2d_12">
      <g>
       <use xlink:href="#m3f2c5708af" x="306.097053" y="300.76" style="fill: #555555; stroke: #555555; stroke-width: 0.8"/>
      </g>
     </g>
     <g id="text_6">
      <!-- 1250 -->
      <g style="fill: #555555" transform="translate(293.372053 315.358437) scale(0.1 -0.1)">
       <use xlink:href="#DejaVuSans-31"/>
       <use xlink:href="#DejaVuSans-32" x="63.623047"/>
       <use xlink:href="#DejaVuSans-35" x="127.246094"/>
       <use xlink:href="#DejaVuSans-30" x="190.869141"/>
      </g>
     </g>
    </g>
    <g id="xtick_7">
     <g id="line2d_13">
      <path d="M 348.473797 300.76 
L 348.473797 10.8 
" clip-path="url(#pd5047c7bef)" style="fill: none; stroke: #ffffff; stroke-width: 0.8; stroke-linecap: square"/>
     </g>
     <g id="line2d_14">
      <g>
       <use xlink:href="#m3f2c5708af" x="348.473797" y="300.76" style="fill: #555555; stroke: #555555; stroke-width: 0.8"/>
      </g>
     </g>
     <g id="text_7">
      <!-- 1500 -->
      <g style="fill: #555555" transform="translate(335.748797 315.358437) scale(0.1 -0.1)">
       <use xlink:href="#DejaVuSans-31"/>
       <use xlink:href="#DejaVuSans-35" x="63.623047"/>
       <use xlink:href="#DejaVuSans-30" x="127.246094"/>
       <use xlink:href="#DejaVuSans-30" x="190.869141"/>
      </g>
     </g>
    </g>
    <g id="xtick_8">
     <g id="line2d_15">
      <path d="M 390.850541 300.76 
L 390.850541 10.8 
" clip-path="url(#pd5047c7bef)" style="fill: none; stroke: #ffffff; stroke-width: 0.8; stroke-linecap: square"/>
     </g>
     <g id="line2d_16">
      <g>
       <use xlink:href="#m3f2c5708af" x="390.850541" y="300.76" style="fill: #555555; stroke: #555555; stroke-width: 0.8"/>
      </g>
     </g>
     <g id="text_8">
      <!-- 1750 -->
      <g style="fill: #555555" transform="translate(378.125541 315.358437) scale(0.1 -0.1)">
       <use xlink:href="#DejaVuSans-31"/>
       <use xlink:href="#DejaVuSans-37" x="63.623047"/>
       <use xlink:href="#DejaVuSans-35" x="127.246094"/>
       <use xlink:href="#DejaVuSans-30" x="190.869141"/>
      </g>
     </g>
    </g>
    <g id="xtick_9">
     <g id="line2d_17">
      <path d="M 433.227285 300.76 
L 433.227285 10.8 
" clip-path="url(#pd5047c7bef)" style="fill: none; stroke: #ffffff; stroke-width: 0.8; stroke-linecap: square"/>
     </g>
     <g id="line2d_18">
      <g>
       <use xlink:href="#m3f2c5708af" x="433.227285" y="300.76" style="fill: #555555; stroke: #555555; stroke-width: 0.8"/>
      </g>
     </g>
     <g id="text_9">
      <!-- 2000 -->
      <g style="fill: #555555" transform="translate(420.502285 315.358437) scale(0.1 -0.1)">
       <use xlink:href="#DejaVuSans-32"/>
       <use xlink:href="#DejaVuSans-30" x="63.623047"/>
       <use xlink:href="#DejaVuSans-30" x="127.246094"/>
       <use xlink:href="#DejaVuSans-30" x="190.869141"/>
      </g>
     </g>
    </g>
    <g id="text_10">
     <!-- epoch -->
     <g style="fill: #555555" transform="translate(245.361806 330.55625) scale(0.12 -0.12)">
      <defs>
       <path id="DejaVuSans-65" d="M 3597 1894 
L 3597 1613 
L 953 1613 
Q 991 1019 1311 708 
Q 1631 397 2203 397 
Q 2534 397 2845 478 
Q 3156 559 3463 722 
L 3463 178 
Q 3153 47 2828 -22 
Q 2503 -91 2169 -91 
Q 1331 -91 842 396 
Q 353 884 353 1716 
Q 353 2575 817 3079 
Q 1281 3584 2069 3584 
Q 2775 3584 3186 3129 
Q 3597 2675 3597 1894 
z
M 3022 2063 
Q 3016 2534 2758 2815 
Q 2500 3097 2075 3097 
Q 1594 3097 1305 2825 
Q 1016 2553 972 2059 
L 3022 2063 
z
" transform="scale(0.015625)"/>
       <path id="DejaVuSans-70" d="M 1159 525 
L 1159 -1331 
L 581 -1331 
L 581 3500 
L 1159 3500 
L 1159 2969 
Q 1341 3281 1617 3432 
Q 1894 3584 2278 3584 
Q 2916 3584 3314 3078 
Q 3713 2572 3713 1747 
Q 3713 922 3314 415 
Q 2916 -91 2278 -91 
Q 1894 -91 1617 61 
Q 1341 213 1159 525 
z
M 3116 1747 
Q 3116 2381 2855 2742 
Q 2594 3103 2138 3103 
Q 1681 3103 1420 2742 
Q 1159 2381 1159 1747 
Q 1159 1113 1420 752 
Q 1681 391 2138 391 
Q 2594 391 2855 752 
Q 3116 1113 3116 1747 
z
" transform="scale(0.015625)"/>
       <path id="DejaVuSans-6f" d="M 1959 3097 
Q 1497 3097 1228 2736 
Q 959 2375 959 1747 
Q 959 1119 1226 758 
Q 1494 397 1959 397 
Q 2419 397 2687 759 
Q 2956 1122 2956 1747 
Q 2956 2369 2687 2733 
Q 2419 3097 1959 3097 
z
M 1959 3584 
Q 2709 3584 3137 3096 
Q 3566 2609 3566 1747 
Q 3566 888 3137 398 
Q 2709 -91 1959 -91 
Q 1206 -91 779 398 
Q 353 888 353 1747 
Q 353 2609 779 3096 
Q 1206 3584 1959 3584 
z
" transform="scale(0.015625)"/>
       <path id="DejaVuSans-63" d="M 3122 3366 
L 3122 2828 
Q 2878 2963 2633 3030 
Q 2388 3097 2138 3097 
Q 1578 3097 1268 2742 
Q 959 2388 959 1747 
Q 959 1106 1268 751 
Q 1578 397 2138 397 
Q 2388 397 2633 464 
Q 2878 531 3122 666 
L 3122 134 
Q 2881 22 2623 -34 
Q 2366 -91 2075 -91 
Q 1284 -91 818 406 
Q 353 903 353 1747 
Q 353 2603 823 3093 
Q 1294 3584 2113 3584 
Q 2378 3584 2631 3529 
Q 2884 3475 3122 3366 
z
" transform="scale(0.015625)"/>
       <path id="DejaVuSans-68" d="M 3513 2113 
L 3513 0 
L 2938 0 
L 2938 2094 
Q 2938 2591 2744 2837 
Q 2550 3084 2163 3084 
Q 1697 3084 1428 2787 
Q 1159 2491 1159 1978 
L 1159 0 
L 581 0 
L 581 4863 
L 1159 4863 
L 1159 2956 
Q 1366 3272 1645 3428 
Q 1925 3584 2291 3584 
Q 2894 3584 3203 3211 
Q 3513 2838 3513 2113 
z
" transform="scale(0.015625)"/>
      </defs>
      <use xlink:href="#DejaVuSans-65"/>
      <use xlink:href="#DejaVuSans-70" x="61.523438"/>
      <use xlink:href="#DejaVuSans-6f" x="125"/>
      <use xlink:href="#DejaVuSans-63" x="186.181641"/>
      <use xlink:href="#DejaVuSans-68" x="241.162109"/>
     </g>
    </g>
   </g>
   <g id="matplotlib.axis_2">
    <g id="ytick_1">
     <g id="line2d_19">
      <path d="M 77.271112 233.252185 
L 450 233.252185 
" clip-path="url(#pd5047c7bef)" style="fill: none; stroke: #ffffff; stroke-width: 0.8; stroke-linecap: square"/>
     </g>
     <g id="line2d_20">
      <defs>
       <path id="mdb492ef7fa" d="M 0 0 
L -3.5 0 
" style="stroke: #555555; stroke-width: 0.8"/>
      </defs>
      <g>
       <use xlink:href="#mdb492ef7fa" x="77.271112" y="233.252185" style="fill: #555555; stroke: #555555; stroke-width: 0.8"/>
      </g>
     </g>
     <g id="text_11">
      <!-- $\mathdefault{\frac{1}{2}}$ -->
      <g style="fill: #555555" transform="translate(64.471112 238.002185) scale(0.1 -0.1)">
       <use xlink:href="#DejaVuSans-31" transform="translate(0 43.965625) scale(0.7)"/>
       <use xlink:href="#DejaVuSans-32" transform="translate(0 -39.2375) scale(0.7)"/>
       <path d="M 0 18.965625 
L 0 25.215625 
L 44.536133 25.215625 
L 44.536133 18.965625 
L 0 18.965625 
z
"/>
      </g>
     </g>
    </g>
    <g id="ytick_2">
     <g id="line2d_21">
      <path d="M 77.271112 156.468486 
L 450 156.468486 
" clip-path="url(#pd5047c7bef)" style="fill: none; stroke: #ffffff; stroke-width: 0.8; stroke-linecap: square"/>
     </g>
     <g id="line2d_22">
      <g>
       <use xlink:href="#mdb492ef7fa" x="77.271112" y="156.468486" style="fill: #555555; stroke: #555555; stroke-width: 0.8"/>
      </g>
     </g>
     <g id="text_12">
      <!-- $\mathdefault{1-10^{-1}}$ -->
      <g style="fill: #555555" transform="translate(28.171112 160.267704) scale(0.1 -0.1)">
       <defs>
        <path id="DejaVuSans-2212" d="M 678 2272 
L 4684 2272 
L 4684 1741 
L 678 1741 
L 678 2272 
z
" transform="scale(0.015625)"/>
       </defs>
       <use xlink:href="#DejaVuSans-31" transform="translate(0 0.684375)"/>
       <use xlink:href="#DejaVuSans-2212" transform="translate(83.105469 0.684375)"/>
       <use xlink:href="#DejaVuSans-31" transform="translate(186.376953 0.684375)"/>
       <use xlink:href="#DejaVuSans-30" transform="translate(250 0.684375)"/>
       <use xlink:href="#DejaVuSans-2212" transform="translate(314.580078 38.965625) scale(0.7)"/>
       <use xlink:href="#DejaVuSans-31" transform="translate(373.232422 38.965625) scale(0.7)"/>
      </g>
     </g>
    </g>
    <g id="ytick_3">
     <g id="line2d_23">
      <path d="M 77.271112 72.672195 
L 450 72.672195 
" clip-path="url(#pd5047c7bef)" style="fill: none; stroke: #ffffff; stroke-width: 0.8; stroke-linecap: square"/>
     </g>
     <g id="line2d_24">
      <g>
       <use xlink:href="#mdb492ef7fa" x="77.271112" y="72.672195" style="fill: #555555; stroke: #555555; stroke-width: 0.8"/>
      </g>
     </g>
     <g id="text_13">
      <!-- $\mathdefault{1-10^{-2}}$ -->
      <g style="fill: #555555" transform="translate(28.171112 76.471414) scale(0.1 -0.1)">
       <use xlink:href="#DejaVuSans-31" transform="translate(0 0.765625)"/>
       <use xlink:href="#DejaVuSans-2212" transform="translate(83.105469 0.765625)"/>
       <use xlink:href="#DejaVuSans-31" transform="translate(186.376953 0.765625)"/>
       <use xlink:href="#DejaVuSans-30" transform="translate(250 0.765625)"/>
       <use xlink:href="#DejaVuSans-2212" transform="translate(314.580078 39.046875) scale(0.7)"/>
       <use xlink:href="#DejaVuSans-32" transform="translate(373.232422 39.046875) scale(0.7)"/>
      </g>
     </g>
    </g>
    <g id="ytick_4">
     <g id="line2d_25">
      <defs>
       <path id="md67058088a" d="M 0 0 
L -2 0 
" style="stroke: #555555; stroke-width: 0.6"/>
      </defs>
      <g>
       <use xlink:href="#md67058088a" x="77.271112" y="281.697305" style="fill: #555555; stroke: #555555; stroke-width: 0.6"/>
      </g>
     </g>
     <g id="text_14">
      <!-- $\mathdefault{0.2}$ -->
      <g style="fill: #555555" transform="translate(56.471112 285.496524) scale(0.1 -0.1)">
       <defs>
        <path id="DejaVuSans-2e" d="M 684 794 
L 1344 794 
L 1344 0 
L 684 0 
L 684 794 
z
" transform="scale(0.015625)"/>
       </defs>
       <use xlink:href="#DejaVuSans-30" transform="translate(0 0.78125)"/>
       <use xlink:href="#DejaVuSans-2e" transform="translate(63.623047 0.78125)"/>
       <use xlink:href="#DejaVuSans-32" transform="translate(89.910156 0.78125)"/>
      </g>
     </g>
    </g>
    <g id="ytick_5">
     <g id="line2d_26">
      <g>
       <use xlink:href="#md67058088a" x="77.271112" y="262.861659" style="fill: #555555; stroke: #555555; stroke-width: 0.6"/>
      </g>
     </g>
     <g id="text_15">
      <!-- $\mathdefault{0.3}$ -->
      <g style="fill: #555555" transform="translate(55.871112 266.660877) scale(0.1 -0.1)">
       <defs>
        <path id="DejaVuSans-33" d="M 2597 2516 
Q 3050 2419 3304 2112 
Q 3559 1806 3559 1356 
Q 3559 666 3084 287 
Q 2609 -91 1734 -91 
Q 1441 -91 1130 -33 
Q 819 25 488 141 
L 488 750 
Q 750 597 1062 519 
Q 1375 441 1716 441 
Q 2309 441 2620 675 
Q 2931 909 2931 1356 
Q 2931 1769 2642 2001 
Q 2353 2234 1838 2234 
L 1294 2234 
L 1294 2753 
L 1863 2753 
Q 2328 2753 2575 2939 
Q 2822 3125 2822 3475 
Q 2822 3834 2567 4026 
Q 2313 4219 1838 4219 
Q 1578 4219 1281 4162 
Q 984 4106 628 3988 
L 628 4550 
Q 988 4650 1302 4700 
Q 1616 4750 1894 4750 
Q 2613 4750 3031 4423 
Q 3450 4097 3450 3541 
Q 3450 3153 3228 2886 
Q 3006 2619 2597 2516 
z
" transform="scale(0.015625)"/>
       </defs>
       <use xlink:href="#DejaVuSans-30" transform="translate(0 0.78125)"/>
       <use xlink:href="#DejaVuSans-2e" transform="translate(63.623047 0.78125)"/>
       <use xlink:href="#DejaVuSans-33" transform="translate(95.410156 0.78125)"/>
      </g>
     </g>
    </g>
    <g id="ytick_6">
     <g id="line2d_27">
      <g>
       <use xlink:href="#md67058088a" x="77.271112" y="247.421474" style="fill: #555555; stroke: #555555; stroke-width: 0.6"/>
      </g>
     </g>
     <g id="text_16">
      <!-- $\mathdefault{0.4}$ -->
      <g style="fill: #555555" transform="translate(55.871112 251.220693) scale(0.1 -0.1)">
       <defs>
        <path id="DejaVuSans-34" d="M 2419 4116 
L 825 1625 
L 2419 1625 
L 2419 4116 
z
M 2253 4666 
L 3047 4666 
L 3047 1625 
L 3713 1625 
L 3713 1100 
L 3047 1100 
L 3047 0 
L 2419 0 
L 2419 1100 
L 313 1100 
L 313 1709 
L 2253 4666 
z
" transform="scale(0.015625)"/>
       </defs>
       <use xlink:href="#DejaVuSans-30" transform="translate(0 0.78125)"/>
       <use xlink:href="#DejaVuSans-2e" transform="translate(63.623047 0.78125)"/>
       <use xlink:href="#DejaVuSans-34" transform="translate(95.410156 0.78125)"/>
      </g>
     </g>
    </g>
    <g id="ytick_7">
     <g id="line2d_28">
      <g>
       <use xlink:href="#md67058088a" x="77.271112" y="219.082895" style="fill: #555555; stroke: #555555; stroke-width: 0.6"/>
      </g>
     </g>
     <g id="text_17">
      <!-- $\mathdefault{0.6}$ -->
      <g style="fill: #555555" transform="translate(55.871112 222.882114) scale(0.1 -0.1)">
       <defs>
        <path id="DejaVuSans-36" d="M 2113 2584 
Q 1688 2584 1439 2293 
Q 1191 2003 1191 1497 
Q 1191 994 1439 701 
Q 1688 409 2113 409 
Q 2538 409 2786 701 
Q 3034 994 3034 1497 
Q 3034 2003 2786 2293 
Q 2538 2584 2113 2584 
z
M 3366 4563 
L 3366 3988 
Q 3128 4100 2886 4159 
Q 2644 4219 2406 4219 
Q 1781 4219 1451 3797 
Q 1122 3375 1075 2522 
Q 1259 2794 1537 2939 
Q 1816 3084 2150 3084 
Q 2853 3084 3261 2657 
Q 3669 2231 3669 1497 
Q 3669 778 3244 343 
Q 2819 -91 2113 -91 
Q 1303 -91 875 529 
Q 447 1150 447 2328 
Q 447 3434 972 4092 
Q 1497 4750 2381 4750 
Q 2619 4750 2861 4703 
Q 3103 4656 3366 4563 
z
" transform="scale(0.015625)"/>
       </defs>
       <use xlink:href="#DejaVuSans-30" transform="translate(0 0.78125)"/>
       <use xlink:href="#DejaVuSans-2e" transform="translate(63.623047 0.78125)"/>
       <use xlink:href="#DejaVuSans-36" transform="translate(95.410156 0.78125)"/>
      </g>
     </g>
    </g>
    <g id="ytick_8">
     <g id="line2d_29">
      <g>
       <use xlink:href="#md67058088a" x="77.271112" y="203.642711" style="fill: #555555; stroke: #555555; stroke-width: 0.6"/>
      </g>
     </g>
     <g id="text_18">
      <!-- $\mathdefault{0.7}$ -->
      <g style="fill: #555555" transform="translate(56.671112 207.441929) scale(0.1 -0.1)">
       <use xlink:href="#DejaVuSans-30" transform="translate(0 0.78125)"/>
       <use xlink:href="#DejaVuSans-2e" transform="translate(63.623047 0.78125)"/>
       <use xlink:href="#DejaVuSans-37" transform="translate(87.660156 0.78125)"/>
      </g>
     </g>
    </g>
    <g id="ytick_9">
     <g id="line2d_30">
      <g>
       <use xlink:href="#md67058088a" x="77.271112" y="184.807064" style="fill: #555555; stroke: #555555; stroke-width: 0.6"/>
      </g>
     </g>
     <g id="text_19">
      <!-- $\mathdefault{0.8}$ -->
      <g style="fill: #555555" transform="translate(56.171112 188.606283) scale(0.1 -0.1)">
       <defs>
        <path id="DejaVuSans-38" d="M 2034 2216 
Q 1584 2216 1326 1975 
Q 1069 1734 1069 1313 
Q 1069 891 1326 650 
Q 1584 409 2034 409 
Q 2484 409 2743 651 
Q 3003 894 3003 1313 
Q 3003 1734 2745 1975 
Q 2488 2216 2034 2216 
z
M 1403 2484 
Q 997 2584 770 2862 
Q 544 3141 544 3541 
Q 544 4100 942 4425 
Q 1341 4750 2034 4750 
Q 2731 4750 3128 4425 
Q 3525 4100 3525 3541 
Q 3525 3141 3298 2862 
Q 3072 2584 2669 2484 
Q 3125 2378 3379 2068 
Q 3634 1759 3634 1313 
Q 3634 634 3220 271 
Q 2806 -91 2034 -91 
Q 1263 -91 848 271 
Q 434 634 434 1313 
Q 434 1759 690 2068 
Q 947 2378 1403 2484 
z
M 1172 3481 
Q 1172 3119 1398 2916 
Q 1625 2713 2034 2713 
Q 2441 2713 2670 2916 
Q 2900 3119 2900 3481 
Q 2900 3844 2670 4047 
Q 2441 4250 2034 4250 
Q 1625 4250 1398 4047 
Q 1172 3844 1172 3481 
z
" transform="scale(0.015625)"/>
       </defs>
       <use xlink:href="#DejaVuSans-30" transform="translate(0 0.78125)"/>
       <use xlink:href="#DejaVuSans-2e" transform="translate(63.623047 0.78125)"/>
       <use xlink:href="#DejaVuSans-38" transform="translate(92.785156 0.78125)"/>
      </g>
     </g>
    </g>
    <g id="ytick_10">
     <g id="line2d_31">
      <g>
       <use xlink:href="#md67058088a" x="77.271112" y="152.400437" style="fill: #555555; stroke: #555555; stroke-width: 0.6"/>
      </g>
     </g>
    </g>
    <g id="ytick_11">
     <g id="line2d_32">
      <g>
       <use xlink:href="#md67058088a" x="77.271112" y="147.902493" style="fill: #555555; stroke: #555555; stroke-width: 0.6"/>
      </g>
     </g>
    </g>
    <g id="ytick_12">
     <g id="line2d_33">
      <g>
       <use xlink:href="#md67058088a" x="77.271112" y="142.858341" style="fill: #555555; stroke: #555555; stroke-width: 0.6"/>
      </g>
     </g>
    </g>
    <g id="ytick_13">
     <g id="line2d_34">
      <g>
       <use xlink:href="#md67058088a" x="77.271112" y="137.097672" style="fill: #555555; stroke: #555555; stroke-width: 0.6"/>
      </g>
     </g>
    </g>
    <g id="ytick_14">
     <g id="line2d_35">
      <g>
       <use xlink:href="#md67058088a" x="77.271112" y="130.356505" style="fill: #555555; stroke: #555555; stroke-width: 0.6"/>
      </g>
     </g>
    </g>
    <g id="ytick_15">
     <g id="line2d_36">
      <g>
       <use xlink:href="#md67058088a" x="77.271112" y="122.192655" style="fill: #555555; stroke: #555555; stroke-width: 0.6"/>
      </g>
     </g>
    </g>
    <g id="ytick_16">
     <g id="line2d_37">
      <g>
       <use xlink:href="#md67058088a" x="77.271112" y="111.777248" style="fill: #555555; stroke: #555555; stroke-width: 0.6"/>
      </g>
     </g>
    </g>
    <g id="ytick_17">
     <g id="line2d_38">
      <g>
       <use xlink:href="#md67058088a" x="77.271112" y="97.249538" style="fill: #555555; stroke: #555555; stroke-width: 0.6"/>
      </g>
     </g>
    </g>
    <g id="ytick_18">
     <g id="line2d_39">
      <g>
       <use xlink:href="#md67058088a" x="77.271112" y="68.95501" style="fill: #555555; stroke: #555555; stroke-width: 0.6"/>
      </g>
     </g>
    </g>
    <g id="ytick_19">
     <g id="line2d_40">
      <g>
       <use xlink:href="#md67058088a" x="77.271112" y="64.803746" style="fill: #555555; stroke: #555555; stroke-width: 0.6"/>
      </g>
     </g>
    </g>
    <g id="ytick_20">
     <g id="line2d_41">
      <g>
       <use xlink:href="#md67058088a" x="77.271112" y="60.10218" style="fill: #555555; stroke: #555555; stroke-width: 0.6"/>
      </g>
     </g>
    </g>
    <g id="ytick_21">
     <g id="line2d_42">
      <g>
       <use xlink:href="#md67058088a" x="77.271112" y="54.680091" style="fill: #555555; stroke: #555555; stroke-width: 0.6"/>
      </g>
     </g>
    </g>
    <g id="ytick_22">
     <g id="line2d_43">
      <g>
       <use xlink:href="#md67058088a" x="77.271112" y="48.273586" style="fill: #555555; stroke: #555555; stroke-width: 0.6"/>
      </g>
     </g>
    </g>
    <g id="ytick_23">
     <g id="line2d_44">
      <g>
       <use xlink:href="#md67058088a" x="77.271112" y="40.440559" style="fill: #555555; stroke: #555555; stroke-width: 0.6"/>
      </g>
     </g>
    </g>
    <g id="ytick_24">
     <g id="line2d_45">
      <g>
       <use xlink:href="#md67058088a" x="77.271112" y="30.35222" style="fill: #555555; stroke: #555555; stroke-width: 0.6"/>
      </g>
     </g>
    </g>
    <g id="ytick_25">
     <g id="line2d_46">
      <g>
       <use xlink:href="#md67058088a" x="77.271112" y="16.147897" style="fill: #555555; stroke: #555555; stroke-width: 0.6"/>
      </g>
     </g>
    </g>
    <g id="text_20">
     <!-- logit(acc) -->
     <g style="fill: #555555" transform="translate(21.675487 183.903125) rotate(-90) scale(0.12 -0.12)">
      <defs>
       <path id="DejaVuSans-6c" d="M 603 4863 
L 1178 4863 
L 1178 0 
L 603 0 
L 603 4863 
z
" transform="scale(0.015625)"/>
       <path id="DejaVuSans-67" d="M 2906 1791 
Q 2906 2416 2648 2759 
Q 2391 3103 1925 3103 
Q 1463 3103 1205 2759 
Q 947 2416 947 1791 
Q 947 1169 1205 825 
Q 1463 481 1925 481 
Q 2391 481 2648 825 
Q 2906 1169 2906 1791 
z
M 3481 434 
Q 3481 -459 3084 -895 
Q 2688 -1331 1869 -1331 
Q 1566 -1331 1297 -1286 
Q 1028 -1241 775 -1147 
L 775 -588 
Q 1028 -725 1275 -790 
Q 1522 -856 1778 -856 
Q 2344 -856 2625 -561 
Q 2906 -266 2906 331 
L 2906 616 
Q 2728 306 2450 153 
Q 2172 0 1784 0 
Q 1141 0 747 490 
Q 353 981 353 1791 
Q 353 2603 747 3093 
Q 1141 3584 1784 3584 
Q 2172 3584 2450 3431 
Q 2728 3278 2906 2969 
L 2906 3500 
L 3481 3500 
L 3481 434 
z
" transform="scale(0.015625)"/>
       <path id="DejaVuSans-69" d="M 603 3500 
L 1178 3500 
L 1178 0 
L 603 0 
L 603 3500 
z
M 603 4863 
L 1178 4863 
L 1178 4134 
L 603 4134 
L 603 4863 
z
" transform="scale(0.015625)"/>
       <path id="DejaVuSans-74" d="M 1172 4494 
L 1172 3500 
L 2356 3500 
L 2356 3053 
L 1172 3053 
L 1172 1153 
Q 1172 725 1289 603 
Q 1406 481 1766 481 
L 2356 481 
L 2356 0 
L 1766 0 
Q 1100 0 847 248 
Q 594 497 594 1153 
L 594 3053 
L 172 3053 
L 172 3500 
L 594 3500 
L 594 4494 
L 1172 4494 
z
" transform="scale(0.015625)"/>
       <path id="DejaVuSans-28" d="M 1984 4856 
Q 1566 4138 1362 3434 
Q 1159 2731 1159 2009 
Q 1159 1288 1364 580 
Q 1569 -128 1984 -844 
L 1484 -844 
Q 1016 -109 783 600 
Q 550 1309 550 2009 
Q 550 2706 781 3412 
Q 1013 4119 1484 4856 
L 1984 4856 
z
" transform="scale(0.015625)"/>
       <path id="DejaVuSans-61" d="M 2194 1759 
Q 1497 1759 1228 1600 
Q 959 1441 959 1056 
Q 959 750 1161 570 
Q 1363 391 1709 391 
Q 2188 391 2477 730 
Q 2766 1069 2766 1631 
L 2766 1759 
L 2194 1759 
z
M 3341 1997 
L 3341 0 
L 2766 0 
L 2766 531 
Q 2569 213 2275 61 
Q 1981 -91 1556 -91 
Q 1019 -91 701 211 
Q 384 513 384 1019 
Q 384 1609 779 1909 
Q 1175 2209 1959 2209 
L 2766 2209 
L 2766 2266 
Q 2766 2663 2505 2880 
Q 2244 3097 1772 3097 
Q 1472 3097 1187 3025 
Q 903 2953 641 2809 
L 641 3341 
Q 956 3463 1253 3523 
Q 1550 3584 1831 3584 
Q 2591 3584 2966 3190 
Q 3341 2797 3341 1997 
z
" transform="scale(0.015625)"/>
       <path id="DejaVuSans-29" d="M 513 4856 
L 1013 4856 
Q 1481 4119 1714 3412 
Q 1947 2706 1947 2009 
Q 1947 1309 1714 600 
Q 1481 -109 1013 -844 
L 513 -844 
Q 928 -128 1133 580 
Q 1338 1288 1338 2009 
Q 1338 2731 1133 3434 
Q 928 4138 513 4856 
z
" transform="scale(0.015625)"/>
      </defs>
      <use xlink:href="#DejaVuSans-6c"/>
      <use xlink:href="#DejaVuSans-6f" x="27.783203"/>
      <use xlink:href="#DejaVuSans-67" x="88.964844"/>
      <use xlink:href="#DejaVuSans-69" x="152.441406"/>
      <use xlink:href="#DejaVuSans-74" x="180.224609"/>
      <use xlink:href="#DejaVuSans-28" x="219.433594"/>
      <use xlink:href="#DejaVuSans-61" x="258.447266"/>
      <use xlink:href="#DejaVuSans-63" x="319.726562"/>
      <use xlink:href="#DejaVuSans-63" x="374.707031"/>
      <use xlink:href="#DejaVuSans-29" x="429.6875"/>
     </g>
    </g>
   </g>
   <g id="line2d_47">
    <path d="M 94.213334 287.58 
L 94.891362 86.659089 
L 95.060869 80.48564 
L 95.399883 78.737058 
L 95.738897 78.642657 
L 95.908403 78.737058 
L 96.247417 78.642657 
L 98.111994 78.548005 
L 98.620515 77.781281 
L 98.959529 75.377636 
L 99.129036 75.789703 
L 99.637557 71.3227 
L 99.807064 67.658188 
L 99.976571 66.481161 
L 100.146078 67.658188 
L 100.315585 64.848409 
L 100.485092 64.428086 
L 100.824106 60.561708 
L 101.16312 59.444197 
L 101.332627 60.71843 
L 101.502134 60.24587 
L 101.671641 58.789786 
L 101.841148 61.796794 
L 102.010655 60.561708 
L 102.180162 61.338483 
L 102.519176 61.338483 
L 102.688683 62.843336 
L 102.858189 61.338483 
L 103.027696 61.338483 
L 103.197203 62.098889 
L 103.36671 60.24587 
L 103.536217 61.948163 
L 103.705724 60.403992 
L 103.875231 62.695746 
L 104.214245 59.606232 
L 104.383752 59.767227 
L 104.553259 60.874463 
L 104.722766 60.08704 
L 105.06178 60.71843 
L 105.231287 59.927494 
L 105.400794 60.24587 
L 105.570301 60.08704 
L 105.739808 59.444197 
L 105.909315 59.444197 
L 106.078822 60.403992 
L 106.248329 59.767227 
L 106.417836 58.290605 
L 106.926357 59.444197 
L 107.095864 57.784608 
L 107.265371 59.767227 
L 107.434878 59.444197 
L 107.604385 60.561708 
L 107.773892 60.874463 
L 107.943399 59.606232 
L 108.112906 59.444197 
L 108.282413 60.561708 
L 108.45192 59.927494 
L 108.621427 60.561708 
L 108.960441 58.954526 
L 109.299455 60.71843 
L 109.468962 58.623965 
L 109.638468 59.118503 
L 109.807975 60.24587 
L 109.977482 59.444197 
L 110.146989 59.444197 
L 110.316496 59.927494 
L 110.486003 58.954526 
L 110.65551 59.927494 
L 110.825017 59.927494 
L 110.994524 59.606232 
L 111.164031 58.789786 
L 111.333538 59.606232 
L 111.503045 58.457677 
L 111.672552 59.606232 
L 111.842059 59.606232 
L 112.181073 59.118503 
L 112.35058 58.290605 
L 112.520087 58.122741 
L 112.689594 59.606232 
L 112.859101 59.606232 
L 113.028608 58.954526 
L 113.198115 59.118503 
L 113.367622 58.457677 
L 113.706636 60.08704 
L 114.04565 57.614001 
L 114.215157 60.24587 
L 114.384664 61.029812 
L 114.554171 58.789786 
L 114.723678 60.08704 
L 114.893185 58.789786 
L 115.062692 59.444197 
L 115.232199 59.118503 
L 115.401706 58.122741 
L 115.74072 59.118503 
L 115.910227 58.954526 
L 116.079734 58.954526 
L 116.249241 58.457677 
L 116.588254 59.767227 
L 116.757761 58.954526 
L 116.927268 59.281724 
L 117.096775 60.403992 
L 117.435789 57.784608 
L 117.605296 59.444197 
L 117.774803 58.122741 
L 117.94431 58.954526 
L 118.113817 58.457677 
L 118.283324 59.444197 
L 118.452831 59.767227 
L 118.622338 58.290605 
L 118.791845 57.954078 
L 118.961352 58.290605 
L 119.130859 58.290605 
L 119.300366 59.281724 
L 119.469873 59.281724 
L 119.808887 58.122741 
L 119.978394 58.290605 
L 120.147901 58.954526 
L 120.317408 58.457677 
L 120.486915 59.767227 
L 120.656422 57.614001 
L 120.825929 57.784608 
L 120.995436 57.614001 
L 121.33445 58.623965 
L 121.503957 58.122741 
L 121.673464 58.623965 
L 121.842971 58.290605 
L 122.012478 59.444197 
L 122.181985 57.442891 
L 122.520999 58.457677 
L 122.690506 56.924542 
L 122.860013 59.118503 
L 123.02952 59.281724 
L 123.199027 57.954078 
L 123.368534 59.927494 
L 123.53804 57.784608 
L 123.707547 59.444197 
L 123.877054 57.614001 
L 124.046561 58.290605 
L 124.216068 57.442891 
L 124.385575 58.290605 
L 124.555082 58.290605 
L 124.724589 57.614001 
L 124.894096 58.457677 
L 125.063603 58.290605 
L 125.23311 58.623965 
L 125.402617 58.122741 
L 125.572124 59.281724 
L 125.911138 57.784608 
L 126.080645 57.614001 
L 126.250152 58.789786 
L 126.419659 58.290605 
L 126.589166 57.442891 
L 126.758673 57.954078 
L 126.92818 57.27095 
L 127.097687 57.784608 
L 127.267194 59.118503 
L 127.436701 58.122741 
L 127.606208 56.398158 
L 127.775715 57.954078 
L 127.945222 58.122741 
L 128.114729 59.606232 
L 128.284236 57.954078 
L 128.453743 57.614001 
L 128.62325 58.122741 
L 128.792757 57.784608 
L 128.962264 58.954526 
L 129.131771 57.09817 
L 129.301278 57.784608 
L 129.640292 56.750059 
L 129.809799 58.457677 
L 129.979306 58.789786 
L 130.148813 57.09817 
L 130.31832 58.122741 
L 130.487826 57.614001 
L 130.657333 58.623965 
L 130.82684 58.122741 
L 130.996347 56.924542 
L 131.504868 58.789786 
L 131.674375 58.623965 
L 131.843882 58.623965 
L 132.013389 57.442891 
L 132.352403 58.290605 
L 132.52191 57.954078 
L 132.691417 58.789786 
L 132.860924 58.623965 
L 133.030431 57.442891 
L 133.369445 58.290605 
L 133.538952 59.606232 
L 133.708459 56.750059 
L 134.047473 57.784608 
L 134.21698 57.784608 
L 134.386487 57.442891 
L 134.555994 58.122741 
L 134.725501 57.784608 
L 134.895008 58.623965 
L 135.064515 57.784608 
L 135.234022 57.954078 
L 135.403529 57.784608 
L 135.742543 58.457677 
L 135.91205 57.614001 
L 136.251064 57.614001 
L 136.420571 57.27095 
L 136.590078 58.457677 
L 136.759585 56.750059 
L 136.929092 58.623965 
L 137.098599 56.57438 
L 137.437612 58.290605 
L 137.946133 56.57438 
L 138.11564 58.457677 
L 138.285147 57.614001 
L 138.454654 57.442891 
L 138.624161 58.290605 
L 138.963175 57.784608 
L 139.132682 57.954078 
L 139.471696 57.954078 
L 139.641203 57.27095 
L 139.81071 57.784608 
L 139.980217 56.924542 
L 140.149724 57.784608 
L 140.319231 56.924542 
L 140.488738 57.954078 
L 140.827752 56.924542 
L 140.997259 57.09817 
L 141.166766 58.122741 
L 141.336273 58.290605 
L 141.50578 57.442891 
L 141.844794 58.954526 
L 142.183808 57.27095 
L 142.353315 58.290605 
L 142.522822 58.122741 
L 142.692329 58.122741 
L 142.861836 58.290605 
L 143.031343 56.398158 
L 143.370357 57.614001 
L 143.539864 57.442891 
L 143.709371 57.442891 
L 143.878878 56.57438 
L 144.048385 57.442891 
L 144.217892 56.750059 
L 144.556905 57.614001 
L 144.726412 56.57438 
L 144.895919 56.57438 
L 145.065426 56.221054 
L 145.40444 57.784608 
L 145.573947 56.57438 
L 145.743454 59.118503 
L 145.912961 56.57438 
L 146.082468 57.614001 
L 146.251975 57.614001 
L 146.421482 56.57438 
L 146.590989 57.954078 
L 146.760496 56.398158 
L 147.09951 57.614001 
L 147.438524 56.221054 
L 147.608031 56.221054 
L 147.777538 56.750059 
L 147.947045 56.57438 
L 148.116552 56.924542 
L 148.286059 55.139056 
L 148.625073 57.442891 
L 148.79458 57.09817 
L 148.964087 57.442891 
L 149.133594 58.457677 
L 149.303101 58.290605 
L 149.472608 56.924542 
L 149.642115 56.924542 
L 149.811622 57.27095 
L 149.981129 57.09817 
L 150.150636 57.954078 
L 150.320143 56.398158 
L 150.48965 57.09817 
L 150.659157 57.09817 
L 150.828664 57.442891 
L 150.998171 57.442891 
L 151.167678 57.614001 
L 151.506691 56.750059 
L 151.676198 56.750059 
L 151.845705 56.57438 
L 152.015212 57.784608 
L 152.184719 57.614001 
L 152.523733 54.211345 
L 153.032254 57.784608 
L 153.201761 57.614001 
L 153.371268 55.864164 
L 153.540775 56.398158 
L 153.710282 56.043059 
L 153.879789 56.924542 
L 154.049296 56.750059 
L 154.218803 55.864164 
L 154.38831 56.398158 
L 154.557817 56.398158 
L 154.727324 55.139056 
L 154.896831 57.09817 
L 155.066338 57.09817 
L 155.405352 55.864164 
L 155.574859 56.57438 
L 155.913873 54.211345 
L 156.08338 55.684021 
L 156.252887 55.864164 
L 156.422394 55.503297 
L 156.591901 56.924542 
L 156.761408 55.864164 
L 156.930915 56.221054 
L 157.100422 56.043059 
L 157.269929 56.043059 
L 157.439436 54.771025 
L 157.608943 54.771025 
L 157.77845 56.57438 
L 157.947957 56.57438 
L 158.117463 55.321645 
L 158.456477 56.57438 
L 158.625984 55.684021 
L 158.795491 57.27095 
L 158.964998 56.398158 
L 159.134505 57.09817 
L 159.304012 56.221054 
L 159.473519 54.022917 
L 159.643026 55.864164 
L 159.812533 55.684021 
L 159.98204 52.674667 
L 160.321054 55.864164 
L 160.490561 53.643023 
L 160.660068 55.139056 
L 160.829575 54.771025 
L 160.999082 54.022917 
L 161.168589 54.771025 
L 161.338096 56.221054 
L 161.507603 54.022917 
L 161.67711 55.321645 
L 161.846617 53.643023 
L 162.016124 54.771025 
L 162.185631 53.83348 
L 162.355138 54.211345 
L 162.524645 53.451173 
L 162.694152 55.139056 
L 162.863659 55.321645 
L 163.033166 54.955519 
L 163.202673 52.674667 
L 163.37218 54.211345 
L 163.541687 54.022917 
L 163.711194 56.398158 
L 164.050208 51.47657 
L 164.219715 54.398773 
L 164.389222 54.398773 
L 164.558729 55.321645 
L 164.897743 53.065052 
L 165.067249 55.321645 
L 165.236756 51.679032 
L 165.406263 53.451173 
L 165.57577 53.451173 
L 165.745277 52.279548 
L 165.914784 52.870398 
L 166.084291 50.236418 
L 166.253798 54.398773 
L 166.423305 52.870398 
L 166.592812 49.168552 
L 166.931826 53.451173 
L 167.101333 52.870398 
L 167.27084 54.398773 
L 167.440347 52.080508 
L 167.609854 53.643023 
L 167.948868 51.88034 
L 168.118375 52.080508 
L 168.287882 51.88034 
L 168.457389 51.272558 
L 168.626896 51.679032 
L 168.796403 51.679032 
L 168.96591 52.080508 
L 169.135417 50.236418 
L 169.304924 49.812898 
L 169.643938 53.065052 
L 169.982952 48.95072 
L 170.152459 50.654528 
L 170.321966 49.812898 
L 170.491473 48.290295 
L 170.66098 52.279548 
L 170.830487 48.290295 
L 170.999994 49.384643 
L 171.169501 52.477474 
L 171.339008 50.025094 
L 171.508515 51.067747 
L 172.186542 48.067379 
L 172.356049 48.731948 
L 172.525556 51.88034 
L 172.695063 49.59942 
L 172.86457 48.95072 
L 173.034077 47.843047 
L 173.203584 50.861741 
L 173.373091 49.384643 
L 173.542598 51.47657 
L 173.712105 49.384643 
L 173.881612 50.446091 
L 174.051119 48.511812 
L 174.220626 48.511812 
L 174.390133 50.861741 
L 174.55964 51.47657 
L 174.898654 48.067379 
L 175.068161 47.843047 
L 175.237668 46.230585 
L 175.407175 50.446091 
L 175.576682 50.654528 
L 175.746189 44.787607 
L 175.915696 49.168552 
L 176.085203 50.446091 
L 176.25471 48.95072 
L 176.424217 48.95072 
L 176.763231 48.290295 
L 176.932738 45.756271 
L 177.102245 47.389628 
L 177.271752 47.843047 
L 177.441259 46.699043 
L 177.610766 48.067379 
L 177.780273 47.616852 
L 177.94978 48.731948 
L 178.288794 46.699043 
L 178.458301 46.465812 
L 178.627808 50.236418 
L 178.797315 48.731948 
L 178.966821 45.275493 
L 179.136328 46.930743 
L 179.305835 46.465812 
L 179.475342 48.290295 
L 179.644849 47.160932 
L 179.814356 47.389628 
L 179.983863 44.541343 
L 180.15337 46.699043 
L 180.322877 46.699043 
L 180.492384 44.293347 
L 180.661891 48.731948 
L 180.831398 47.389628 
L 181.000905 44.293347 
L 181.170412 48.290295 
L 181.339919 47.389628 
L 181.509426 43.283058 
L 181.84844 48.067379 
L 182.017947 45.032164 
L 182.187454 47.160932 
L 182.356961 45.275493 
L 182.526468 45.994225 
L 182.695975 47.843047 
L 183.034989 45.275493 
L 183.204496 45.516701 
L 183.374003 46.465812 
L 183.54351 45.275493 
L 183.713017 46.699043 
L 184.052031 45.032164 
L 184.221538 44.043593 
L 184.391045 46.699043 
L 184.560552 42.506245 
L 184.730059 45.516701 
L 184.899566 45.994225 
L 185.23858 43.026018 
L 185.408087 46.699043 
L 185.577594 45.994225 
L 185.916607 41.442613 
L 186.255621 44.787607 
L 186.425128 42.506245 
L 186.594635 43.792059 
L 186.764142 44.043593 
L 186.933649 45.994225 
L 187.272663 42.76709 
L 187.611677 44.043593 
L 187.781184 45.756271 
L 188.289705 42.506245 
L 188.459212 47.616852 
L 188.628719 45.756271 
L 188.798226 45.756271 
L 189.13724 42.76709 
L 189.306747 43.792059 
L 189.476254 44.043593 
L 189.645761 43.792059 
L 189.815268 46.930743 
L 189.984775 43.283058 
L 190.154282 44.787607 
L 190.323789 43.283058 
L 190.493296 43.538238 
L 190.662803 44.787607 
L 190.83231 42.76709 
L 191.001817 44.043593 
L 191.171324 44.043593 
L 191.340831 43.792059 
L 191.510338 42.506245 
L 191.679845 43.792059 
L 191.849352 44.043593 
L 192.018859 42.243456 
L 192.188366 42.506245 
L 192.357873 44.293347 
L 192.52738 42.506245 
L 192.696887 42.506245 
L 192.866393 44.293347 
L 193.0359 42.506245 
L 193.205407 44.293347 
L 193.374914 40.898768 
L 193.544421 43.283058 
L 193.713928 41.978192 
L 194.052942 43.792059 
L 194.222449 41.442613 
L 194.561463 44.293347 
L 194.73097 43.538238 
L 194.900477 43.792059 
L 195.069984 41.71142 
L 195.239491 41.442613 
L 195.408998 41.442613 
L 195.578505 43.792059 
L 195.748012 44.043593 
L 196.087026 41.71142 
L 196.256533 42.506245 
L 196.42604 42.76709 
L 196.595547 43.283058 
L 196.765054 41.978192 
L 196.934561 42.76709 
L 197.104068 41.71142 
L 197.443082 44.043593 
L 197.612589 43.026018 
L 197.782096 43.538238 
L 197.951603 40.623145 
L 198.12111 44.541343 
L 198.290617 40.345872 
L 198.460124 43.538238 
L 198.629631 40.345872 
L 199.138152 45.275493 
L 199.307659 43.026018 
L 199.477166 44.043593 
L 200.155193 40.345872 
L 200.3247 43.283058 
L 200.494207 41.17174 
L 200.663714 41.442613 
L 200.833221 41.978192 
L 201.002728 43.026018 
L 201.172235 43.026018 
L 201.341742 41.978192 
L 201.511249 42.243456 
L 201.680756 42.243456 
L 201.850263 43.538238 
L 202.01977 43.283058 
L 202.189277 41.17174 
L 202.358784 41.17174 
L 202.528291 40.898768 
L 202.867305 42.76709 
L 203.036812 43.026018 
L 203.206319 40.898768 
L 203.375826 43.283058 
L 203.545333 41.17174 
L 203.71484 42.243456 
L 203.884347 42.506245 
L 204.053854 43.283058 
L 204.392868 42.243456 
L 204.562375 41.71142 
L 204.731882 42.506245 
L 204.901389 40.0664 
L 205.070896 43.026018 
L 205.240403 40.0664 
L 205.40991 40.345872 
L 205.579417 43.792059 
L 205.918431 39.500714 
L 206.087938 42.76709 
L 206.257445 43.026018 
L 206.426952 42.506245 
L 206.596458 40.898768 
L 206.765965 40.898768 
L 206.935472 40.0664 
L 207.104979 42.243456 
L 207.274486 41.442613 
L 207.443993 42.243456 
L 207.6135 42.506245 
L 207.783007 40.345872 
L 207.952514 42.76709 
L 208.122021 41.17174 
L 208.630542 42.76709 
L 208.969556 40.623145 
L 209.139063 40.898768 
L 209.30857 40.898768 
L 209.478077 43.538238 
L 209.647584 41.978192 
L 209.986598 44.043593 
L 210.156105 43.792059 
L 210.325612 41.442613 
L 210.495119 41.442613 
L 210.664626 42.76709 
L 211.173147 40.345872 
L 211.342654 41.442613 
L 211.512161 40.345872 
L 211.851175 43.792059 
L 212.020682 42.506245 
L 212.190189 44.043593 
L 212.529203 40.345872 
L 212.69871 44.541343 
L 212.868217 39.784692 
L 213.037724 39.784692 
L 213.207231 42.76709 
L 213.376738 40.623145 
L 213.546244 43.538238 
L 213.715751 42.506245 
L 213.885258 42.243456 
L 214.054765 42.506245 
L 214.224272 41.17174 
L 214.393779 41.17174 
L 214.563286 40.345872 
L 214.732793 43.283058 
L 214.9023 41.978192 
L 215.071807 43.026018 
L 215.241314 41.978192 
L 215.410821 42.506245 
L 215.580328 40.898768 
L 215.749835 43.026018 
L 215.919342 41.17174 
L 216.088849 42.243456 
L 216.427863 39.500714 
L 216.59737 43.026018 
L 216.766877 41.978192 
L 216.936384 43.026018 
L 217.105891 41.978192 
L 217.275398 42.243456 
L 217.444905 43.283058 
L 217.614412 41.978192 
L 217.783919 42.506245 
L 217.953426 40.898768 
L 218.29244 43.538238 
L 218.461947 41.71142 
L 218.800961 44.541343 
L 218.970468 40.623145 
L 219.139975 41.71142 
L 219.309482 41.71142 
L 219.478989 43.026018 
L 219.648496 42.243456 
L 219.818003 40.898768 
L 219.98751 40.623145 
L 220.157017 42.243456 
L 220.326524 40.0664 
L 220.49603 44.043593 
L 220.835044 41.71142 
L 221.004551 42.76709 
L 221.174058 41.442613 
L 221.343565 41.17174 
L 221.513072 42.243456 
L 221.852086 40.623145 
L 222.021593 41.71142 
L 222.1911 40.345872 
L 222.360607 44.043593 
L 222.530114 41.442613 
L 222.699621 43.283058 
L 222.869128 40.345872 
L 223.208142 41.71142 
L 223.377649 41.17174 
L 223.547156 41.978192 
L 223.716663 41.442613 
L 223.88617 43.026018 
L 224.055677 40.345872 
L 224.225184 40.345872 
L 224.394691 41.17174 
L 224.564198 41.442613 
L 224.903212 43.283058 
L 225.242226 40.345872 
L 225.411733 42.243456 
L 225.58124 40.623145 
L 225.750747 40.623145 
L 225.920254 41.978192 
L 226.089761 41.71142 
L 226.259268 40.345872 
L 226.428775 42.243456 
L 226.598282 42.506245 
L 226.767789 39.784692 
L 226.937296 42.243456 
L 227.106803 40.623145 
L 227.27631 41.71142 
L 227.445816 41.17174 
L 227.615323 42.76709 
L 227.78483 40.0664 
L 227.954337 42.243456 
L 228.123844 40.898768 
L 228.293351 41.17174 
L 228.462858 40.898768 
L 228.632365 42.243456 
L 228.801872 41.17174 
L 228.971379 41.978192 
L 229.140886 41.978192 
L 229.4799 40.623145 
L 229.988421 42.76709 
L 230.157928 44.541343 
L 230.327435 41.71142 
L 230.496942 41.17174 
L 230.666449 41.71142 
L 230.835956 44.293347 
L 231.005463 40.898768 
L 231.17497 41.17174 
L 231.344477 41.71142 
L 231.513984 41.71142 
L 231.683491 41.17174 
L 231.852998 42.506245 
L 232.022505 41.17174 
L 232.192012 41.978192 
L 232.531026 41.17174 
L 232.700533 42.76709 
L 232.87004 40.623145 
L 233.039547 41.978192 
L 233.378561 41.978192 
L 233.548068 41.71142 
L 233.717575 43.792059 
L 233.887082 42.243456 
L 234.056589 43.026018 
L 234.226096 39.500714 
L 234.395602 42.506245 
L 234.565109 40.623145 
L 234.904123 41.978192 
L 235.07363 42.243456 
L 235.243137 40.0664 
L 235.412644 40.623145 
L 235.582151 43.026018 
L 235.751658 41.978192 
L 235.921165 41.71142 
L 236.090672 43.026018 
L 236.429686 40.0664 
L 236.599193 40.898768 
L 236.7687 43.026018 
L 236.938207 41.978192 
L 237.446728 41.17174 
L 237.616235 42.506245 
L 237.785742 40.623145 
L 237.955249 40.898768 
L 238.124756 40.898768 
L 238.294263 42.506245 
L 238.633277 40.345872 
L 238.802784 43.026018 
L 238.972291 41.442613 
L 239.141798 41.71142 
L 239.311305 42.76709 
L 239.480812 40.0664 
L 239.819826 43.283058 
L 239.989333 40.898768 
L 240.15884 41.17174 
L 240.328347 43.538238 
L 240.667361 42.243456 
L 240.836868 41.978192 
L 241.006375 41.442613 
L 241.175882 41.71142 
L 241.345388 43.026018 
L 241.514895 42.506245 
L 241.684402 43.026018 
L 242.023416 40.898768 
L 242.192923 41.71142 
L 242.36243 40.898768 
L 242.870951 42.506245 
L 243.040458 41.71142 
L 243.209965 40.345872 
L 243.379472 41.17174 
L 243.548979 40.345872 
L 243.718486 41.442613 
L 243.887993 41.71142 
L 244.0575 40.623145 
L 244.227007 43.026018 
L 244.396514 41.442613 
L 244.566021 41.442613 
L 244.735528 42.243456 
L 244.905035 42.243456 
L 245.074542 40.0664 
L 245.244049 41.17174 
L 245.413556 39.784692 
L 245.583063 40.345872 
L 245.75257 39.784692 
L 245.922077 40.898768 
L 246.091584 41.17174 
L 246.261091 40.623145 
L 246.430598 41.17174 
L 246.600105 38.925247 
L 246.769612 42.243456 
L 246.939119 42.506245 
L 247.108626 41.71142 
L 247.278133 41.71142 
L 247.44764 43.283058 
L 247.617147 41.978192 
L 247.786654 39.784692 
L 247.956161 44.787607 
L 248.125668 40.623145 
L 248.295174 40.345872 
L 248.634188 40.898768 
L 248.803695 39.500714 
L 249.142709 41.71142 
L 249.312216 42.506245 
L 249.481723 42.76709 
L 249.65123 42.76709 
L 249.820737 41.17174 
L 249.990244 40.898768 
L 250.329258 42.76709 
L 250.498765 40.623145 
L 250.837779 42.243456 
L 251.176793 40.345872 
L 251.3463 41.17174 
L 251.515807 41.442613 
L 251.685314 41.442613 
L 251.854821 41.71142 
L 252.024328 41.442613 
L 252.193835 42.76709 
L 252.363342 43.026018 
L 252.532849 40.0664 
L 252.871863 44.293347 
L 253.210877 40.345872 
L 253.380384 40.898768 
L 253.549891 41.978192 
L 253.719398 40.0664 
L 253.888905 42.76709 
L 254.058412 43.026018 
L 254.227919 38.634224 
L 254.397426 40.898768 
L 254.566933 40.623145 
L 254.73644 41.17174 
L 254.905947 42.76709 
L 255.075453 40.623145 
L 255.24496 40.898768 
L 255.414467 40.623145 
L 255.583974 41.17174 
L 255.753481 43.026018 
L 255.922988 42.506245 
L 256.092495 43.538238 
L 256.262002 42.243456 
L 256.431509 39.214427 
L 256.601016 42.243456 
L 256.770523 39.784692 
L 256.94003 41.978192 
L 257.109537 41.71142 
L 257.279044 42.506245 
L 257.448551 41.978192 
L 257.618058 43.026018 
L 257.787565 40.898768 
L 257.957072 43.283058 
L 258.296086 40.623145 
L 258.465593 41.978192 
L 258.6351 40.623145 
L 258.804607 40.898768 
L 258.974114 42.243456 
L 259.143621 40.623145 
L 259.313128 42.506245 
L 259.482635 41.17174 
L 259.652142 41.71142 
L 259.821649 41.442613 
L 259.991156 41.71142 
L 260.160663 40.623145 
L 260.33017 41.17174 
L 260.499677 42.506245 
L 260.669184 41.17174 
L 260.838691 40.898768 
L 261.177705 40.0664 
L 261.347212 41.978192 
L 261.516719 39.784692 
L 261.686226 41.442613 
L 262.025239 40.0664 
L 262.194746 40.623145 
L 262.364253 42.243456 
L 262.53376 40.623145 
L 262.703267 40.623145 
L 262.872774 41.978192 
L 263.042281 39.784692 
L 263.211788 42.243456 
L 263.381295 42.243456 
L 263.550802 38.925247 
L 263.720309 38.925247 
L 263.889816 41.71142 
L 264.059323 41.71142 
L 264.22883 40.345872 
L 264.398337 40.623145 
L 264.567844 40.345872 
L 264.737351 41.17174 
L 264.906858 41.442613 
L 265.076365 40.345872 
L 265.415379 41.978192 
L 265.584886 40.898768 
L 265.754393 42.506245 
L 265.9239 42.243456 
L 266.093407 40.898768 
L 266.432421 40.345872 
L 266.601928 41.442613 
L 266.771435 41.71142 
L 266.940942 40.623145 
L 267.110449 40.623145 
L 267.279956 40.898768 
L 267.449463 38.044861 
L 267.788477 42.506245 
L 267.957984 39.784692 
L 268.127491 41.978192 
L 268.296998 41.442613 
L 268.466505 38.634224 
L 268.805519 41.442613 
L 268.975025 37.141321 
L 269.144532 41.71142 
L 269.314039 40.0664 
L 269.483546 41.978192 
L 269.653053 38.634224 
L 269.82256 40.623145 
L 269.992067 38.634224 
L 270.161574 42.506245 
L 270.331081 38.925247 
L 270.500588 39.214427 
L 270.670095 40.623145 
L 270.839602 40.623145 
L 271.009109 37.444896 
L 271.178616 39.784692 
L 271.348123 39.500714 
L 271.51763 40.0664 
L 271.687137 41.71142 
L 271.856644 39.214427 
L 272.026151 39.214427 
L 272.195658 41.978192 
L 272.365165 40.898768 
L 272.534672 43.283058 
L 272.873686 39.214427 
L 273.043193 39.500714 
L 273.2127 40.0664 
L 273.382207 39.214427 
L 273.551714 40.898768 
L 273.721221 40.0664 
L 273.890728 36.835107 
L 274.060235 41.442613 
L 274.229742 41.17174 
L 274.399249 40.0664 
L 274.568756 41.17174 
L 274.738263 40.898768 
L 274.90777 39.500714 
L 275.077277 40.623145 
L 275.246784 40.0664 
L 275.416291 41.71142 
L 275.585798 40.0664 
L 275.755305 39.784692 
L 275.924811 38.925247 
L 276.094318 39.784692 
L 276.263825 36.526204 
L 276.433332 38.634224 
L 276.602839 43.538238 
L 276.772346 40.898768 
L 276.941853 35.900146 
L 277.11136 40.623145 
L 277.280867 39.214427 
L 277.450374 39.500714 
L 277.789388 37.746439 
L 277.958895 42.506245 
L 278.128402 37.746439 
L 278.467416 41.442613 
L 278.636923 38.634224 
L 278.975937 42.506245 
L 279.145444 39.214427 
L 279.314951 39.214427 
L 279.484458 41.71142 
L 279.653965 38.634224 
L 279.823472 40.898768 
L 279.992979 38.634224 
L 280.162486 38.340776 
L 280.331993 41.978192 
L 280.5015 38.925247 
L 280.671007 39.214427 
L 280.840514 41.978192 
L 281.010021 41.978192 
L 281.179528 36.526204 
L 281.349035 40.345872 
L 281.518542 39.214427 
L 281.688049 41.442613 
L 281.857556 40.623145 
L 282.027063 42.76709 
L 282.19657 39.784692 
L 282.366077 40.898768 
L 282.535584 36.526204 
L 282.705091 43.026018 
L 282.874597 42.243456 
L 283.044104 37.746439 
L 283.383118 41.442613 
L 283.552625 39.500714 
L 283.722132 38.925247 
L 283.891639 40.0664 
L 284.061146 39.214427 
L 284.230653 41.71142 
L 284.569667 38.044861 
L 284.739174 39.500714 
L 285.078188 38.340776 
L 285.247695 40.345872 
L 285.417202 39.500714 
L 285.586709 38.044861 
L 285.756216 41.442613 
L 285.925723 35.58229 
L 286.264737 39.214427 
L 286.434244 38.044861 
L 286.603751 40.345872 
L 286.773258 40.0664 
L 286.942765 38.925247 
L 287.112272 41.978192 
L 287.281779 41.71142 
L 287.451286 35.900146 
L 287.7903 41.71142 
L 287.959807 33.951605 
L 288.298821 40.898768 
L 288.468328 37.444896 
L 288.637835 39.500714 
L 288.807342 40.0664 
L 288.976849 35.900146 
L 289.315863 41.17174 
L 289.48537 34.939056 
L 289.654877 40.345872 
L 289.824383 41.978192 
L 289.99389 36.835107 
L 290.163397 40.0664 
L 290.332904 40.898768 
L 290.502411 40.345872 
L 290.671918 41.71142 
L 290.841425 40.345872 
L 291.010932 40.623145 
L 291.180439 38.044861 
L 291.349946 38.925247 
L 291.519453 34.939056 
L 291.68896 40.623145 
L 291.858467 40.0664 
L 292.027974 38.634224 
L 292.197481 38.925247 
L 292.366988 39.500714 
L 292.536495 39.500714 
L 292.706002 40.623145 
L 293.045016 37.746439 
L 293.214523 40.0664 
L 293.38403 38.044861 
L 293.553537 38.044861 
L 293.723044 41.17174 
L 293.892551 40.898768 
L 294.062058 39.214427 
L 294.231565 39.500714 
L 294.570579 36.835107 
L 294.909593 40.345872 
L 295.0791 36.835107 
L 295.248607 41.17174 
L 295.587621 38.634224 
L 295.757128 38.634224 
L 295.926635 39.214427 
L 296.096142 35.900146 
L 296.435156 38.925247 
L 296.604663 40.0664 
L 296.774169 37.746439 
L 296.943676 39.214427 
L 297.113183 35.58229 
L 297.28269 39.784692 
L 297.452197 40.0664 
L 297.621704 40.623145 
L 297.791211 38.044861 
L 297.960718 42.243456 
L 298.299732 37.141321 
L 298.469239 41.17174 
L 298.638746 36.214567 
L 298.808253 36.214567 
L 298.97776 40.623145 
L 299.147267 36.835107 
L 299.316774 39.214427 
L 299.486281 38.044861 
L 299.655788 31.532332 
L 299.825295 39.500714 
L 299.994802 41.17174 
L 300.164309 36.214567 
L 300.333816 36.214567 
L 300.503323 40.898768 
L 300.67283 32.589696 
L 301.011844 41.17174 
L 301.181351 32.240982 
L 301.520365 39.784692 
L 301.689872 39.500714 
L 301.859379 33.276921 
L 302.028886 39.500714 
L 302.198393 37.746439 
L 302.3679 32.240982 
L 302.537407 38.925247 
L 302.706914 39.500714 
L 302.876421 35.262143 
L 303.215435 41.71142 
L 303.384942 31.172919 
L 303.554448 40.345872 
L 303.723955 37.444896 
L 303.893462 37.746439 
L 304.062969 37.746439 
L 304.232476 37.141321 
L 304.401983 38.925247 
L 304.57149 39.214427 
L 304.910504 36.526204 
L 305.080011 40.345872 
L 305.249518 36.835107 
L 305.419025 37.444896 
L 305.588532 40.345872 
L 305.927546 35.900146 
L 306.097053 40.898768 
L 306.26656 34.612975 
L 306.605574 38.340776 
L 306.775081 37.141321 
L 306.944588 39.500714 
L 307.283602 35.900146 
L 307.453109 36.835107 
L 307.622616 40.0664 
L 307.792123 38.634224 
L 307.96163 36.214567 
L 308.131137 39.784692 
L 308.300644 33.276921 
L 308.639658 39.784692 
L 308.809165 38.340776 
L 308.978672 40.898768 
L 309.148179 37.746439 
L 309.317686 38.044861 
L 309.487193 37.746439 
L 309.6567 39.500714 
L 309.826207 38.044861 
L 309.995714 39.500714 
L 310.165221 33.276921 
L 310.334728 36.835107 
L 310.504234 35.58229 
L 310.673741 38.634224 
L 310.843248 38.925247 
L 311.012755 33.951605 
L 311.182262 40.345872 
L 311.351769 39.784692 
L 311.521276 31.532332 
L 311.690783 37.444896 
L 311.86029 38.925247 
L 312.029797 34.283844 
L 312.199304 38.634224 
L 312.368811 37.141321 
L 312.538318 32.589696 
L 312.877332 41.17174 
L 313.046839 33.951605 
L 313.216346 38.925247 
L 313.385853 38.634224 
L 313.55536 32.589696 
L 313.724867 37.746439 
L 313.894374 37.444896 
L 314.063881 34.612975 
L 314.233388 38.925247 
L 314.572402 36.214567 
L 314.741909 38.044861 
L 314.911416 34.612975 
L 315.080923 38.044861 
L 315.25043 37.141321 
L 315.419937 32.934987 
L 315.589444 39.500714 
L 315.758951 34.939056 
L 316.097965 37.444896 
L 316.267472 33.615563 
L 316.436979 35.58229 
L 316.606486 39.500714 
L 316.775993 35.58229 
L 316.9455 34.939056 
L 317.115007 39.784692 
L 317.284514 35.58229 
L 317.45402 38.044861 
L 317.623527 35.900146 
L 317.793034 31.888109 
L 317.962541 39.500714 
L 318.132048 39.500714 
L 318.301555 33.276921 
L 318.471062 40.345872 
L 318.810076 34.612975 
L 318.979583 38.925247 
L 319.14909 30.44288 
L 319.318597 38.925247 
L 319.488104 40.898768 
L 319.657611 30.809794 
L 319.827118 39.214427 
L 319.996625 39.214427 
L 320.166132 28.93496 
L 320.505146 39.784692 
L 320.674653 33.951605 
L 320.84416 36.526204 
L 321.013667 36.835107 
L 321.183174 35.58229 
L 321.352681 40.623145 
L 321.522188 39.214427 
L 321.691695 29.317868 
L 321.861202 38.340776 
L 322.030709 39.214427 
L 322.200216 31.532332 
L 322.369723 38.044861 
L 322.708737 36.214567 
L 322.878244 37.746439 
L 323.047751 37.444896 
L 323.217258 30.44288 
L 323.386765 40.623145 
L 323.556272 38.634224 
L 323.725779 30.072096 
L 323.895286 37.141321 
L 324.064793 36.526204 
L 324.2343 33.951605 
L 324.403806 33.615563 
L 324.573313 37.746439 
L 324.74282 38.634224 
L 324.912327 37.141321 
L 325.081834 38.044861 
L 325.251341 37.141321 
L 325.420848 39.784692 
L 325.590355 32.240982 
L 325.929369 38.634224 
L 326.098876 37.444896 
L 326.43789 33.951605 
L 326.607397 37.141321 
L 326.946411 35.58229 
L 327.115918 37.444896 
L 327.285425 32.934987 
L 327.454932 38.634224 
L 327.624439 31.888109 
L 327.793946 40.0664 
L 327.963453 39.214427 
L 328.302467 31.888109 
L 328.471974 37.141321 
L 328.641481 30.44288 
L 328.810988 36.526204 
L 328.980495 34.939056 
L 329.150002 34.939056 
L 329.319509 37.746439 
L 329.489016 37.141321 
L 329.658523 33.276921 
L 329.82803 36.214567 
L 329.997537 36.835107 
L 330.167044 33.276921 
L 330.336551 38.340776 
L 330.506058 28.93496 
L 330.845072 38.340776 
L 331.014579 31.172919 
L 331.353592 42.76709 
L 331.523099 29.69665 
L 331.862113 40.623145 
L 332.03162 32.934987 
L 332.370634 40.345872 
L 332.540141 32.934987 
L 332.709648 33.951605 
L 332.879155 38.925247 
L 333.048662 33.615563 
L 333.218169 32.934987 
L 333.387676 41.17174 
L 333.557183 33.276921 
L 333.72669 35.262143 
L 333.896197 34.283844 
L 334.065704 37.746439 
L 334.235211 32.934987 
L 334.404718 38.340776 
L 334.574225 38.925247 
L 334.743732 32.240982 
L 334.913239 30.809794 
L 335.082746 37.444896 
L 335.42176 32.240982 
L 335.591267 37.141321 
L 335.760774 35.58229 
L 335.930281 32.934987 
L 336.099788 38.044861 
L 336.269295 37.444896 
L 336.438802 32.240982 
L 336.608309 36.835107 
L 336.777816 31.888109 
L 336.947323 34.939056 
L 337.11683 35.262143 
L 337.286337 35.900146 
L 337.455844 32.589696 
L 337.625351 36.835107 
L 337.794858 35.58229 
L 337.964365 32.934987 
L 338.133872 35.262143 
L 338.472885 30.072096 
L 338.642392 34.939056 
L 338.811899 31.888109 
L 338.981406 31.532332 
L 339.150913 34.612975 
L 339.32042 32.589696 
L 339.489927 36.835107 
L 339.659434 31.532332 
L 339.998448 33.951605 
L 340.167955 31.888109 
L 340.337462 32.934987 
L 340.506969 35.262143 
L 340.676476 30.809794 
L 340.845983 35.58229 
L 341.01549 32.589696 
L 341.184997 35.58229 
L 341.354504 35.58229 
L 341.524011 34.283844 
L 341.693518 30.072096 
L 341.863025 33.615563 
L 342.032532 26.544756 
L 342.202039 40.898768 
L 342.371546 29.69665 
L 342.541053 37.141321 
L 342.71056 38.044861 
L 342.880067 30.072096 
L 343.049574 32.240982 
L 343.219081 38.634224 
L 343.388588 28.93496 
L 343.558095 41.17174 
L 343.727602 36.526204 
L 343.897109 28.156397 
L 344.066616 38.340776 
L 344.40563 32.240982 
L 344.575137 37.746439 
L 344.744644 30.809794 
L 345.083658 38.634224 
L 345.253164 31.532332 
L 345.422671 38.044861 
L 345.592178 36.214567 
L 345.761685 31.532332 
L 346.100699 40.345872 
L 346.270206 29.69665 
L 346.60922 36.214567 
L 346.778727 28.156397 
L 346.948234 34.612975 
L 347.117741 36.835107 
L 347.287248 30.809794 
L 347.456755 31.888109 
L 347.626262 31.172919 
L 347.795769 33.615563 
L 348.134783 30.809794 
L 348.30429 41.442613 
L 348.473797 32.240982 
L 348.643304 35.58229 
L 348.812811 34.612975 
L 348.982318 30.072096 
L 349.151825 31.172919 
L 349.321332 37.746439 
L 349.490839 30.44288 
L 349.660346 37.444896 
L 349.829853 33.615563 
L 349.99936 32.934987 
L 350.168867 33.951605 
L 350.338374 29.69665 
L 350.507881 35.58229 
L 350.677388 31.888109 
L 350.846895 37.444896 
L 351.016402 33.951605 
L 351.185909 27.76055 
L 351.355416 35.58229 
L 351.524923 30.072096 
L 351.69443 30.072096 
L 351.863937 38.634224 
L 352.033443 35.58229 
L 352.20295 27.359436 
L 352.372457 36.835107 
L 352.541964 31.888109 
L 352.711471 30.44288 
L 352.880978 37.141321 
L 353.050485 30.072096 
L 353.219992 37.444896 
L 353.559006 28.93496 
L 353.728513 34.283844 
L 353.89802 31.532332 
L 354.067527 33.615563 
L 354.237034 38.044861 
L 354.406541 29.69665 
L 354.576048 35.900146 
L 354.745555 36.214567 
L 354.915062 33.276921 
L 355.084569 32.934987 
L 355.59309 29.317868 
L 355.762597 31.172919 
L 355.932104 34.939056 
L 356.101611 30.809794 
L 356.271118 33.276921 
L 356.610132 30.44288 
L 356.779639 39.500714 
L 356.949146 32.240982 
L 357.28816 35.900146 
L 357.457667 30.072096 
L 357.627174 35.58229 
L 357.796681 30.44288 
L 357.966188 29.317868 
L 358.135695 37.444896 
L 358.305202 30.44288 
L 358.474709 37.746439 
L 358.644216 30.809794 
L 358.813723 30.072096 
L 358.983229 33.951605 
L 359.152736 30.072096 
L 359.322243 32.240982 
L 359.49175 35.900146 
L 359.661257 29.317868 
L 359.830764 36.835107 
L 360.000271 29.317868 
L 360.339285 37.746439 
L 360.508792 27.359436 
L 360.847806 38.634224 
L 361.017313 28.156397 
L 361.356327 38.044861 
L 361.525834 28.156397 
L 361.695341 37.444896 
L 362.034355 29.69665 
L 362.373369 33.951605 
L 362.542876 29.317868 
L 362.712383 34.612975 
L 363.051397 25.710736 
L 363.220904 35.262143 
L 363.390411 35.58229 
L 363.559918 28.156397 
L 363.729425 32.589696 
L 363.898932 31.172919 
L 364.068439 27.76055 
L 364.237946 38.340776 
L 364.407453 29.69665 
L 364.746467 36.214567 
L 364.915974 30.44288 
L 365.254988 36.214567 
L 365.594002 26.954457 
L 365.763509 33.951605 
L 365.933015 31.532332 
L 366.102522 34.283844 
L 366.272029 30.809794 
L 366.441536 33.276921 
L 366.611043 29.69665 
L 366.78055 33.951605 
L 366.950057 32.934987 
L 367.289071 25.285378 
L 367.458578 28.93496 
L 367.628085 35.900146 
L 367.797592 30.072096 
L 367.967099 35.262143 
L 368.136606 29.69665 
L 368.306113 28.547834 
L 368.47562 37.746439 
L 368.645127 30.072096 
L 368.814634 30.809794 
L 368.984141 39.784692 
L 369.153648 27.359436 
L 369.323155 35.58229 
L 369.492662 38.340776 
L 369.662169 31.532332 
L 370.001183 35.900146 
L 370.17069 29.317868 
L 370.340197 39.214427 
L 370.679211 28.547834 
L 370.848718 36.214567 
L 371.018225 34.939056 
L 371.187732 32.589696 
L 371.526746 34.939056 
L 371.696253 28.93496 
L 371.86576 33.276921 
L 372.204774 29.317868 
L 372.374281 39.784692 
L 372.543788 31.888109 
L 372.713295 31.532332 
L 372.882801 34.939056 
L 373.052308 27.359436 
L 373.391322 35.900146 
L 373.560829 28.93496 
L 373.730336 29.317868 
L 373.899843 32.934987 
L 374.06935 26.544756 
L 374.238857 35.58229 
L 374.408364 31.172919 
L 374.577871 30.44288 
L 374.747378 31.532332 
L 374.916885 31.532332 
L 375.086392 33.615563 
L 375.255899 26.544756 
L 375.425406 32.589696 
L 375.594913 26.544756 
L 375.76442 27.359436 
L 375.933927 39.784692 
L 376.103434 29.69665 
L 376.272941 30.072096 
L 376.442448 36.526204 
L 376.611955 30.44288 
L 376.781462 34.283844 
L 377.120476 25.285378 
L 377.289983 34.283844 
L 377.628997 28.547834 
L 377.798504 33.276921 
L 377.968011 28.156397 
L 378.137518 30.44288 
L 378.307025 35.58229 
L 378.476532 29.69665 
L 378.646039 31.532332 
L 378.815546 31.888109 
L 378.985053 30.072096 
L 379.15456 29.69665 
L 379.324067 31.172919 
L 379.663081 29.317868 
L 379.832587 30.072096 
L 380.002094 26.954457 
L 380.171601 33.276921 
L 380.341108 30.44288 
L 380.510615 31.172919 
L 380.680122 35.900146 
L 380.849629 31.172919 
L 381.019136 30.809794 
L 381.188643 33.615563 
L 381.35815 29.317868 
L 381.527657 31.172919 
L 381.697164 37.746439 
L 381.866671 27.76055 
L 382.205685 32.589696 
L 382.375192 27.76055 
L 382.714206 32.589696 
L 382.883713 30.072096 
L 383.05322 32.240982 
L 383.222727 38.925247 
L 383.392234 27.76055 
L 383.731248 31.532332 
L 383.900755 27.76055 
L 384.070262 28.156397 
L 384.239769 32.240982 
L 384.409276 28.547834 
L 384.578783 33.615563 
L 384.74829 31.888109 
L 384.917797 33.615563 
L 385.256811 27.76055 
L 385.426318 28.93496 
L 385.595825 31.532332 
L 385.765332 27.76055 
L 385.934839 36.835107 
L 386.104346 29.69665 
L 386.273853 32.934987 
L 386.44336 28.547834 
L 386.612867 30.072096 
L 386.782373 28.156397 
L 386.95188 27.76055 
L 387.290894 28.547834 
L 387.629908 30.44288 
L 387.799415 33.951605 
L 387.968922 28.93496 
L 388.138429 31.532332 
L 388.307936 26.954457 
L 388.477443 32.934987 
L 388.64695 28.547834 
L 388.816457 28.93496 
L 388.985964 34.283844 
L 389.155471 27.359436 
L 389.324978 32.589696 
L 389.494485 26.130221 
L 389.663992 30.44288 
L 389.833499 28.156397 
L 390.172513 31.172919 
L 390.34202 26.130221 
L 390.511527 30.44288 
L 390.681034 28.156397 
L 390.850541 30.072096 
L 391.020048 29.69665 
L 391.189555 29.69665 
L 391.359062 35.262143 
L 391.528569 27.359436 
L 391.698076 28.547834 
L 391.867583 27.359436 
L 392.206597 34.612975 
L 392.376104 30.072096 
L 392.545611 30.44288 
L 392.715118 31.532332 
L 392.884625 28.547834 
L 393.054132 33.951605 
L 393.223639 28.93496 
L 393.393146 29.317868 
L 393.562652 31.172919 
L 393.732159 28.93496 
L 393.901666 34.612975 
L 394.071173 31.172919 
L 394.24068 32.934987 
L 394.410187 28.156397 
L 394.579694 31.172919 
L 394.749201 30.809794 
L 394.918708 31.888109 
L 395.088215 31.532332 
L 395.257722 27.76055 
L 395.427229 36.214567 
L 395.596736 26.544756 
L 395.93575 32.240982 
L 396.105257 28.547834 
L 396.274764 30.809794 
L 396.444271 31.532332 
L 396.613778 23.98 
L 396.783285 32.934987 
L 397.122299 28.93496 
L 397.291806 35.262143 
L 397.461313 30.072096 
L 397.63082 32.589696 
L 397.800327 31.172919 
L 397.969834 28.547834 
L 398.308848 31.532332 
L 398.478355 27.76055 
L 398.647862 36.526204 
L 398.817369 29.69665 
L 398.986876 28.156397 
L 399.156383 35.58229 
L 399.32589 28.547834 
L 399.495397 32.240982 
L 399.664904 31.888109 
L 399.834411 28.547834 
L 400.003918 28.547834 
L 400.173425 34.283844 
L 400.342932 26.544756 
L 400.512438 31.532332 
L 400.681945 32.589696 
L 400.851452 31.172919 
L 401.020959 37.746439 
L 401.190466 25.285378 
L 401.52948 38.925247 
L 401.698987 30.44288 
L 401.868494 29.317868 
L 402.038001 37.444896 
L 402.207508 30.809794 
L 402.377015 30.809794 
L 402.546522 37.141321 
L 402.716029 28.547834 
L 402.885536 29.317868 
L 403.055043 35.58229 
L 403.22455 31.172919 
L 403.394057 30.809794 
L 403.563564 28.93496 
L 403.733071 25.710736 
L 403.902578 28.547834 
L 404.072085 25.710736 
L 404.241592 28.547834 
L 404.411099 33.276921 
L 404.580606 33.276921 
L 404.750113 26.130221 
L 404.91962 31.532332 
L 405.089127 30.072096 
L 405.258634 26.954457 
L 405.428141 35.262143 
L 405.597648 28.547834 
L 405.767155 29.317868 
L 405.936662 29.317868 
L 406.275676 25.710736 
L 406.445183 29.317868 
L 406.61469 26.544756 
L 406.784197 28.156397 
L 406.953704 27.359436 
L 407.123211 30.072096 
L 407.462224 27.76055 
L 407.631731 27.359436 
L 408.140252 31.172919 
L 408.479266 29.317868 
L 408.648773 29.317868 
L 408.81828 27.359436 
L 408.987787 32.934987 
L 409.157294 28.547834 
L 409.496308 31.172919 
L 409.665815 28.547834 
L 409.835322 27.76055 
L 410.004829 28.156397 
L 410.174336 27.359436 
L 410.343843 28.156397 
L 410.51335 34.612975 
L 410.682857 33.615563 
L 411.021871 29.69665 
L 411.191378 27.76055 
L 411.360885 30.44288 
L 411.530392 30.809794 
L 411.699899 28.93496 
L 411.869406 33.615563 
L 412.038913 28.93496 
L 412.20842 28.93496 
L 412.377927 31.532332 
L 412.547434 26.130221 
L 412.886448 33.276921 
L 413.055955 26.954457 
L 413.394969 29.317868 
L 413.564476 30.072096 
L 413.733983 33.276921 
L 413.90349 28.93496 
L 414.072997 30.072096 
L 414.242504 36.526204 
L 414.41201 25.710736 
L 414.581517 26.544756 
L 414.751024 32.934987 
L 414.920531 27.76055 
L 415.090038 29.69665 
L 415.259545 28.93496 
L 415.429052 24.85562 
L 415.598559 32.589696 
L 415.768066 30.44288 
L 415.937573 26.544756 
L 416.10708 29.317868 
L 416.446094 28.547834 
L 416.615601 30.809794 
L 416.785108 27.359436 
L 417.124122 32.934987 
L 417.293629 29.69665 
L 417.463136 29.317868 
L 417.632643 31.532332 
L 417.971657 24.85562 
L 418.141164 32.240982 
L 418.310671 28.93496 
L 418.480178 33.276921 
L 418.649685 28.547834 
L 418.819192 28.93496 
L 418.988699 26.954457 
L 419.327713 31.532332 
L 419.49722 28.156397 
L 419.666727 34.283844 
L 419.836234 29.317868 
L 420.005741 28.156397 
L 420.175248 25.710736 
L 420.344755 26.544756 
L 420.514262 28.547834 
L 420.683769 28.156397 
L 421.022783 29.317868 
L 421.19229 26.544756 
L 421.361796 28.93496 
L 421.531303 26.954457 
L 421.70081 31.888109 
L 421.870317 28.93496 
L 422.039824 29.317868 
L 422.209331 32.934987 
L 422.378838 29.69665 
L 422.548345 31.888109 
L 422.717852 30.809794 
L 422.887359 30.809794 
L 423.056866 37.141321 
L 423.226373 27.359436 
L 423.39588 25.710736 
L 423.565387 39.500714 
L 423.734894 26.954457 
L 423.904401 27.359436 
L 424.243415 32.934987 
L 424.412922 27.359436 
L 424.582429 35.900146 
L 424.921443 27.76055 
L 425.09095 28.547834 
L 425.260457 30.072096 
L 425.429964 33.276921 
L 425.599471 28.547834 
L 425.768978 28.156397 
L 425.938485 32.240982 
L 426.107992 28.156397 
L 426.277499 27.359436 
L 426.447006 27.76055 
L 426.78602 26.130221 
L 426.955527 30.44288 
L 427.125034 25.710736 
L 427.294541 29.69665 
L 427.464048 25.710736 
L 427.633555 26.954457 
L 427.803062 24.420538 
L 427.972569 30.809794 
L 428.142076 28.156397 
L 428.311582 28.93496 
L 428.650596 25.285378 
L 428.820103 27.359436 
L 428.98961 27.76055 
L 429.159117 27.76055 
L 429.328624 31.532332 
L 429.498131 25.710736 
L 429.667638 28.547834 
L 429.837145 29.317868 
L 430.006652 26.130221 
L 430.176159 29.317868 
L 430.345666 28.156397 
L 430.515173 26.130221 
L 430.68468 36.214567 
L 430.854187 26.544756 
L 431.023694 26.544756 
L 431.193201 31.888109 
L 431.362708 24.85562 
L 431.532215 32.589696 
L 431.701722 30.072096 
L 431.871229 29.317868 
L 432.040736 29.69665 
L 432.210243 26.544756 
L 432.37975 26.954457 
L 432.549257 26.954457 
L 432.718764 27.359436 
L 432.888271 26.544756 
L 433.057778 28.547834 
L 433.057778 28.547834 
" clip-path="url(#pd5047c7bef)" style="fill: none; stroke: #e24a33; stroke-width: 1.5; stroke-linecap: square"/>
   </g>
   <g id="patch_3">
    <path d="M 77.271112 300.76 
L 77.271112 10.8 
" style="fill: none; stroke: #ffffff; stroke-linejoin: miter; stroke-linecap: square"/>
   </g>
   <g id="patch_4">
    <path d="M 450 300.76 
L 450 10.8 
" style="fill: none; stroke: #ffffff; stroke-linejoin: miter; stroke-linecap: square"/>
   </g>
   <g id="patch_5">
    <path d="M 77.271112 300.76 
L 450 300.76 
" style="fill: none; stroke: #ffffff; stroke-linejoin: miter; stroke-linecap: square"/>
   </g>
   <g id="patch_6">
    <path d="M 77.271112 10.8 
L 450 10.8 
" style="fill: none; stroke: #ffffff; stroke-linejoin: miter; stroke-linecap: square"/>
   </g>
  </g>
 </g>
 <defs>
  <clipPath id="pd5047c7bef">
   <rect x="77.271112" y="10.8" width="372.728888" height="289.96"/>
  </clipPath>
 </defs>
</svg>
