<?xml version="1.0" encoding="utf-8" standalone="no"?>
<!DOCTYPE svg PUBLIC "-//W3C//DTD SVG 1.1//EN"
  "http://www.w3.org/Graphics/SVG/1.1/DTD/svg11.dtd">
<svg xmlns:xlink="http://www.w3.org/1999/xlink" width="460.8pt" height="345.6pt" viewBox="0 0 460.8 345.6" xmlns="http://www.w3.org/2000/svg" version="1.1">
 <metadata>
  <rdf:RDF xmlns:dc="http://purl.org/dc/elements/1.1/" xmlns:cc="http://creativecommons.org/ns#" xmlns:rdf="http://www.w3.org/1999/02/22-rdf-syntax-ns#">
   <cc:Work>
    <dc:type rdf:resource="http://purl.org/dc/dcmitype/StillImage"/>
    <dc:date>2023-06-10T13:12:57.183855</dc:date>
    <dc:format>image/svg+xml</dc:format>
    <dc:creator>
     <cc:Agent>
      <dc:title>Matplotlib v3.6.3, https://matplotlib.org/</dc:title>
     </cc:Agent>
    </dc:creator>
   </cc:Work>
  </rdf:RDF>
 </metadata>
 <defs>
  <style type="text/css">*{stroke-linejoin: round; stroke-linecap: butt}</style>
 </defs>
 <g id="figure_1">
  <g id="patch_1">
   <path d="M 0 345.6 
L 460.8 345.6 
L 460.8 0 
L 0 0 
z
" style="fill: #ffffff"/>
  </g>
  <g id="axes_1">
   <g id="patch_2">
    <path d="M 58.652054 300.76 
L 450 300.76 
L 450 10.8 
L 58.652054 10.8 
z
" style="fill: #e5e5e5"/>
   </g>
   <g id="matplotlib.axis_1">
    <g id="xtick_1">
     <g id="line2d_1">
      <path d="M 76.440597 300.76 
L 76.440597 10.8 
" clip-path="url(#p8cd8e50e4f)" style="fill: none; stroke: #ffffff; stroke-width: 0.8; stroke-linecap: square"/>
     </g>
     <g id="line2d_2">
      <defs>
       <path id="m0f0b00fb0d" d="M 0 0 
L 0 3.5 
" style="stroke: #555555; stroke-width: 0.8"/>
      </defs>
      <g>
       <use xlink:href="#m0f0b00fb0d" x="76.440597" y="300.76" style="fill: #555555; stroke: #555555; stroke-width: 0.8"/>
      </g>
     </g>
     <g id="text_1">
      <!-- 0 -->
      <g style="fill: #555555" transform="translate(73.259347 315.358437) scale(0.1 -0.1)">
       <defs>
        <path id="DejaVuSans-30" d="M 2034 4250 
Q 1547 4250 1301 3770 
Q 1056 3291 1056 2328 
Q 1056 1369 1301 889 
Q 1547 409 2034 409 
Q 2525 409 2770 889 
Q 3016 1369 3016 2328 
Q 3016 3291 2770 3770 
Q 2525 4250 2034 4250 
z
M 2034 4750 
Q 2819 4750 3233 4129 
Q 3647 3509 3647 2328 
Q 3647 1150 3233 529 
Q 2819 -91 2034 -91 
Q 1250 -91 836 529 
Q 422 1150 422 2328 
Q 422 3509 836 4129 
Q 1250 4750 2034 4750 
z
" transform="scale(0.015625)"/>
       </defs>
       <use xlink:href="#DejaVuSans-30"/>
      </g>
     </g>
    </g>
    <g id="xtick_2">
     <g id="line2d_3">
      <path d="M 120.934201 300.76 
L 120.934201 10.8 
" clip-path="url(#p8cd8e50e4f)" style="fill: none; stroke: #ffffff; stroke-width: 0.8; stroke-linecap: square"/>
     </g>
     <g id="line2d_4">
      <g>
       <use xlink:href="#m0f0b00fb0d" x="120.934201" y="300.76" style="fill: #555555; stroke: #555555; stroke-width: 0.8"/>
      </g>
     </g>
     <g id="text_2">
      <!-- 250 -->
      <g style="fill: #555555" transform="translate(111.390451 315.358437) scale(0.1 -0.1)">
       <defs>
        <path id="DejaVuSans-32" d="M 1228 531 
L 3431 531 
L 3431 0 
L 469 0 
L 469 531 
Q 828 903 1448 1529 
Q 2069 2156 2228 2338 
Q 2531 2678 2651 2914 
Q 2772 3150 2772 3378 
Q 2772 3750 2511 3984 
Q 2250 4219 1831 4219 
Q 1534 4219 1204 4116 
Q 875 4013 500 3803 
L 500 4441 
Q 881 4594 1212 4672 
Q 1544 4750 1819 4750 
Q 2544 4750 2975 4387 
Q 3406 4025 3406 3419 
Q 3406 3131 3298 2873 
Q 3191 2616 2906 2266 
Q 2828 2175 2409 1742 
Q 1991 1309 1228 531 
z
" transform="scale(0.015625)"/>
        <path id="DejaVuSans-35" d="M 691 4666 
L 3169 4666 
L 3169 4134 
L 1269 4134 
L 1269 2991 
Q 1406 3038 1543 3061 
Q 1681 3084 1819 3084 
Q 2600 3084 3056 2656 
Q 3513 2228 3513 1497 
Q 3513 744 3044 326 
Q 2575 -91 1722 -91 
Q 1428 -91 1123 -41 
Q 819 9 494 109 
L 494 744 
Q 775 591 1075 516 
Q 1375 441 1709 441 
Q 2250 441 2565 725 
Q 2881 1009 2881 1497 
Q 2881 1984 2565 2268 
Q 2250 2553 1709 2553 
Q 1456 2553 1204 2497 
Q 953 2441 691 2322 
L 691 4666 
z
" transform="scale(0.015625)"/>
       </defs>
       <use xlink:href="#DejaVuSans-32"/>
       <use xlink:href="#DejaVuSans-35" x="63.623047"/>
       <use xlink:href="#DejaVuSans-30" x="127.246094"/>
      </g>
     </g>
    </g>
    <g id="xtick_3">
     <g id="line2d_5">
      <path d="M 165.427806 300.76 
L 165.427806 10.8 
" clip-path="url(#p8cd8e50e4f)" style="fill: none; stroke: #ffffff; stroke-width: 0.8; stroke-linecap: square"/>
     </g>
     <g id="line2d_6">
      <g>
       <use xlink:href="#m0f0b00fb0d" x="165.427806" y="300.76" style="fill: #555555; stroke: #555555; stroke-width: 0.8"/>
      </g>
     </g>
     <g id="text_3">
      <!-- 500 -->
      <g style="fill: #555555" transform="translate(155.884056 315.358437) scale(0.1 -0.1)">
       <use xlink:href="#DejaVuSans-35"/>
       <use xlink:href="#DejaVuSans-30" x="63.623047"/>
       <use xlink:href="#DejaVuSans-30" x="127.246094"/>
      </g>
     </g>
    </g>
    <g id="xtick_4">
     <g id="line2d_7">
      <path d="M 209.92141 300.76 
L 209.92141 10.8 
" clip-path="url(#p8cd8e50e4f)" style="fill: none; stroke: #ffffff; stroke-width: 0.8; stroke-linecap: square"/>
     </g>
     <g id="line2d_8">
      <g>
       <use xlink:href="#m0f0b00fb0d" x="209.92141" y="300.76" style="fill: #555555; stroke: #555555; stroke-width: 0.8"/>
      </g>
     </g>
     <g id="text_4">
      <!-- 750 -->
      <g style="fill: #555555" transform="translate(200.37766 315.358437) scale(0.1 -0.1)">
       <defs>
        <path id="DejaVuSans-37" d="M 525 4666 
L 3525 4666 
L 3525 4397 
L 1831 0 
L 1172 0 
L 2766 4134 
L 525 4134 
L 525 4666 
z
" transform="scale(0.015625)"/>
       </defs>
       <use xlink:href="#DejaVuSans-37"/>
       <use xlink:href="#DejaVuSans-35" x="63.623047"/>
       <use xlink:href="#DejaVuSans-30" x="127.246094"/>
      </g>
     </g>
    </g>
    <g id="xtick_5">
     <g id="line2d_9">
      <path d="M 254.415014 300.76 
L 254.415014 10.8 
" clip-path="url(#p8cd8e50e4f)" style="fill: none; stroke: #ffffff; stroke-width: 0.8; stroke-linecap: square"/>
     </g>
     <g id="line2d_10">
      <g>
       <use xlink:href="#m0f0b00fb0d" x="254.415014" y="300.76" style="fill: #555555; stroke: #555555; stroke-width: 0.8"/>
      </g>
     </g>
     <g id="text_5">
      <!-- 1000 -->
      <g style="fill: #555555" transform="translate(241.690014 315.358437) scale(0.1 -0.1)">
       <defs>
        <path id="DejaVuSans-31" d="M 794 531 
L 1825 531 
L 1825 4091 
L 703 3866 
L 703 4441 
L 1819 4666 
L 2450 4666 
L 2450 531 
L 3481 531 
L 3481 0 
L 794 0 
L 794 531 
z
" transform="scale(0.015625)"/>
       </defs>
       <use xlink:href="#DejaVuSans-31"/>
       <use xlink:href="#DejaVuSans-30" x="63.623047"/>
       <use xlink:href="#DejaVuSans-30" x="127.246094"/>
       <use xlink:href="#DejaVuSans-30" x="190.869141"/>
      </g>
     </g>
    </g>
    <g id="xtick_6">
     <g id="line2d_11">
      <path d="M 298.908618 300.76 
L 298.908618 10.8 
" clip-path="url(#p8cd8e50e4f)" style="fill: none; stroke: #ffffff; stroke-width: 0.8; stroke-linecap: square"/>
     </g>
     <g id="line2d_12">
      <g>
       <use xlink:href="#m0f0b00fb0d" x="298.908618" y="300.76" style="fill: #555555; stroke: #555555; stroke-width: 0.8"/>
      </g>
     </g>
     <g id="text_6">
      <!-- 1250 -->
      <g style="fill: #555555" transform="translate(286.183618 315.358437) scale(0.1 -0.1)">
       <use xlink:href="#DejaVuSans-31"/>
       <use xlink:href="#DejaVuSans-32" x="63.623047"/>
       <use xlink:href="#DejaVuSans-35" x="127.246094"/>
       <use xlink:href="#DejaVuSans-30" x="190.869141"/>
      </g>
     </g>
    </g>
    <g id="xtick_7">
     <g id="line2d_13">
      <path d="M 343.402223 300.76 
L 343.402223 10.8 
" clip-path="url(#p8cd8e50e4f)" style="fill: none; stroke: #ffffff; stroke-width: 0.8; stroke-linecap: square"/>
     </g>
     <g id="line2d_14">
      <g>
       <use xlink:href="#m0f0b00fb0d" x="343.402223" y="300.76" style="fill: #555555; stroke: #555555; stroke-width: 0.8"/>
      </g>
     </g>
     <g id="text_7">
      <!-- 1500 -->
      <g style="fill: #555555" transform="translate(330.677223 315.358437) scale(0.1 -0.1)">
       <use xlink:href="#DejaVuSans-31"/>
       <use xlink:href="#DejaVuSans-35" x="63.623047"/>
       <use xlink:href="#DejaVuSans-30" x="127.246094"/>
       <use xlink:href="#DejaVuSans-30" x="190.869141"/>
      </g>
     </g>
    </g>
    <g id="xtick_8">
     <g id="line2d_15">
      <path d="M 387.895827 300.76 
L 387.895827 10.8 
" clip-path="url(#p8cd8e50e4f)" style="fill: none; stroke: #ffffff; stroke-width: 0.8; stroke-linecap: square"/>
     </g>
     <g id="line2d_16">
      <g>
       <use xlink:href="#m0f0b00fb0d" x="387.895827" y="300.76" style="fill: #555555; stroke: #555555; stroke-width: 0.8"/>
      </g>
     </g>
     <g id="text_8">
      <!-- 1750 -->
      <g style="fill: #555555" transform="translate(375.170827 315.358437) scale(0.1 -0.1)">
       <use xlink:href="#DejaVuSans-31"/>
       <use xlink:href="#DejaVuSans-37" x="63.623047"/>
       <use xlink:href="#DejaVuSans-35" x="127.246094"/>
       <use xlink:href="#DejaVuSans-30" x="190.869141"/>
      </g>
     </g>
    </g>
    <g id="xtick_9">
     <g id="line2d_17">
      <path d="M 432.389431 300.76 
L 432.389431 10.8 
" clip-path="url(#p8cd8e50e4f)" style="fill: none; stroke: #ffffff; stroke-width: 0.8; stroke-linecap: square"/>
     </g>
     <g id="line2d_18">
      <g>
       <use xlink:href="#m0f0b00fb0d" x="432.389431" y="300.76" style="fill: #555555; stroke: #555555; stroke-width: 0.8"/>
      </g>
     </g>
     <g id="text_9">
      <!-- 2000 -->
      <g style="fill: #555555" transform="translate(419.664431 315.358437) scale(0.1 -0.1)">
       <use xlink:href="#DejaVuSans-32"/>
       <use xlink:href="#DejaVuSans-30" x="63.623047"/>
       <use xlink:href="#DejaVuSans-30" x="127.246094"/>
       <use xlink:href="#DejaVuSans-30" x="190.869141"/>
      </g>
     </g>
    </g>
    <g id="text_10">
     <!-- epoch -->
     <g style="fill: #555555" transform="translate(236.052277 330.55625) scale(0.12 -0.12)">
      <defs>
       <path id="DejaVuSans-65" d="M 3597 1894 
L 3597 1613 
L 953 1613 
Q 991 1019 1311 708 
Q 1631 397 2203 397 
Q 2534 397 2845 478 
Q 3156 559 3463 722 
L 3463 178 
Q 3153 47 2828 -22 
Q 2503 -91 2169 -91 
Q 1331 -91 842 396 
Q 353 884 353 1716 
Q 353 2575 817 3079 
Q 1281 3584 2069 3584 
Q 2775 3584 3186 3129 
Q 3597 2675 3597 1894 
z
M 3022 2063 
Q 3016 2534 2758 2815 
Q 2500 3097 2075 3097 
Q 1594 3097 1305 2825 
Q 1016 2553 972 2059 
L 3022 2063 
z
" transform="scale(0.015625)"/>
       <path id="DejaVuSans-70" d="M 1159 525 
L 1159 -1331 
L 581 -1331 
L 581 3500 
L 1159 3500 
L 1159 2969 
Q 1341 3281 1617 3432 
Q 1894 3584 2278 3584 
Q 2916 3584 3314 3078 
Q 3713 2572 3713 1747 
Q 3713 922 3314 415 
Q 2916 -91 2278 -91 
Q 1894 -91 1617 61 
Q 1341 213 1159 525 
z
M 3116 1747 
Q 3116 2381 2855 2742 
Q 2594 3103 2138 3103 
Q 1681 3103 1420 2742 
Q 1159 2381 1159 1747 
Q 1159 1113 1420 752 
Q 1681 391 2138 391 
Q 2594 391 2855 752 
Q 3116 1113 3116 1747 
z
" transform="scale(0.015625)"/>
       <path id="DejaVuSans-6f" d="M 1959 3097 
Q 1497 3097 1228 2736 
Q 959 2375 959 1747 
Q 959 1119 1226 758 
Q 1494 397 1959 397 
Q 2419 397 2687 759 
Q 2956 1122 2956 1747 
Q 2956 2369 2687 2733 
Q 2419 3097 1959 3097 
z
M 1959 3584 
Q 2709 3584 3137 3096 
Q 3566 2609 3566 1747 
Q 3566 888 3137 398 
Q 2709 -91 1959 -91 
Q 1206 -91 779 398 
Q 353 888 353 1747 
Q 353 2609 779 3096 
Q 1206 3584 1959 3584 
z
" transform="scale(0.015625)"/>
       <path id="DejaVuSans-63" d="M 3122 3366 
L 3122 2828 
Q 2878 2963 2633 3030 
Q 2388 3097 2138 3097 
Q 1578 3097 1268 2742 
Q 959 2388 959 1747 
Q 959 1106 1268 751 
Q 1578 397 2138 397 
Q 2388 397 2633 464 
Q 2878 531 3122 666 
L 3122 134 
Q 2881 22 2623 -34 
Q 2366 -91 2075 -91 
Q 1284 -91 818 406 
Q 353 903 353 1747 
Q 353 2603 823 3093 
Q 1294 3584 2113 3584 
Q 2378 3584 2631 3529 
Q 2884 3475 3122 3366 
z
" transform="scale(0.015625)"/>
       <path id="DejaVuSans-68" d="M 3513 2113 
L 3513 0 
L 2938 0 
L 2938 2094 
Q 2938 2591 2744 2837 
Q 2550 3084 2163 3084 
Q 1697 3084 1428 2787 
Q 1159 2491 1159 1978 
L 1159 0 
L 581 0 
L 581 4863 
L 1159 4863 
L 1159 2956 
Q 1366 3272 1645 3428 
Q 1925 3584 2291 3584 
Q 2894 3584 3203 3211 
Q 3513 2838 3513 2113 
z
" transform="scale(0.015625)"/>
      </defs>
      <use xlink:href="#DejaVuSans-65"/>
      <use xlink:href="#DejaVuSans-70" x="61.523438"/>
      <use xlink:href="#DejaVuSans-6f" x="125"/>
      <use xlink:href="#DejaVuSans-63" x="186.181641"/>
      <use xlink:href="#DejaVuSans-68" x="241.162109"/>
     </g>
    </g>
   </g>
   <g id="matplotlib.axis_2">
    <g id="ytick_1">
     <g id="line2d_19">
      <path d="M 58.652054 278.018524 
L 450 278.018524 
" clip-path="url(#p8cd8e50e4f)" style="fill: none; stroke: #ffffff; stroke-width: 0.8; stroke-linecap: square"/>
     </g>
     <g id="line2d_20">
      <defs>
       <path id="m13febf2d26" d="M 0 0 
L -3.5 0 
" style="stroke: #555555; stroke-width: 0.8"/>
      </defs>
      <g>
       <use xlink:href="#m13febf2d26" x="58.652054" y="278.018524" style="fill: #555555; stroke: #555555; stroke-width: 0.8"/>
      </g>
     </g>
     <g id="text_11">
      <!-- $\mathdefault{10^{-2}}$ -->
      <g style="fill: #555555" transform="translate(28.152054 281.817743) scale(0.1 -0.1)">
       <defs>
        <path id="DejaVuSans-2212" d="M 678 2272 
L 4684 2272 
L 4684 1741 
L 678 1741 
L 678 2272 
z
" transform="scale(0.015625)"/>
       </defs>
       <use xlink:href="#DejaVuSans-31" transform="translate(0 0.765625)"/>
       <use xlink:href="#DejaVuSans-30" transform="translate(63.623047 0.765625)"/>
       <use xlink:href="#DejaVuSans-2212" transform="translate(128.203125 39.046875) scale(0.7)"/>
       <use xlink:href="#DejaVuSans-32" transform="translate(186.855469 39.046875) scale(0.7)"/>
      </g>
     </g>
    </g>
    <g id="ytick_2">
     <g id="line2d_21">
      <path d="M 58.652054 177.402227 
L 450 177.402227 
" clip-path="url(#p8cd8e50e4f)" style="fill: none; stroke: #ffffff; stroke-width: 0.8; stroke-linecap: square"/>
     </g>
     <g id="line2d_22">
      <g>
       <use xlink:href="#m13febf2d26" x="58.652054" y="177.402227" style="fill: #555555; stroke: #555555; stroke-width: 0.8"/>
      </g>
     </g>
     <g id="text_12">
      <!-- $\mathdefault{10^{-1}}$ -->
      <g style="fill: #555555" transform="translate(28.152054 181.201446) scale(0.1 -0.1)">
       <use xlink:href="#DejaVuSans-31" transform="translate(0 0.684375)"/>
       <use xlink:href="#DejaVuSans-30" transform="translate(63.623047 0.684375)"/>
       <use xlink:href="#DejaVuSans-2212" transform="translate(128.203125 38.965625) scale(0.7)"/>
       <use xlink:href="#DejaVuSans-31" transform="translate(186.855469 38.965625) scale(0.7)"/>
      </g>
     </g>
    </g>
    <g id="ytick_3">
     <g id="line2d_23">
      <path d="M 58.652054 76.78593 
L 450 76.78593 
" clip-path="url(#p8cd8e50e4f)" style="fill: none; stroke: #ffffff; stroke-width: 0.8; stroke-linecap: square"/>
     </g>
     <g id="line2d_24">
      <g>
       <use xlink:href="#m13febf2d26" x="58.652054" y="76.78593" style="fill: #555555; stroke: #555555; stroke-width: 0.8"/>
      </g>
     </g>
     <g id="text_13">
      <!-- $\mathdefault{10^{0}}$ -->
      <g style="fill: #555555" transform="translate(34.052054 80.585149) scale(0.1 -0.1)">
       <use xlink:href="#DejaVuSans-31" transform="translate(0 0.765625)"/>
       <use xlink:href="#DejaVuSans-30" transform="translate(63.623047 0.765625)"/>
       <use xlink:href="#DejaVuSans-30" transform="translate(128.203125 39.046875) scale(0.7)"/>
      </g>
     </g>
    </g>
    <g id="ytick_4">
     <g id="line2d_25">
      <defs>
       <path id="m78304b766c" d="M 0 0 
L -2 0 
" style="stroke: #555555; stroke-width: 0.6"/>
      </defs>
      <g>
       <use xlink:href="#m78304b766c" x="58.652054" y="300.340124" style="fill: #555555; stroke: #555555; stroke-width: 0.6"/>
      </g>
     </g>
    </g>
    <g id="ytick_5">
     <g id="line2d_26">
      <g>
       <use xlink:href="#m78304b766c" x="58.652054" y="293.604186" style="fill: #555555; stroke: #555555; stroke-width: 0.6"/>
      </g>
     </g>
    </g>
    <g id="ytick_6">
     <g id="line2d_27">
      <g>
       <use xlink:href="#m78304b766c" x="58.652054" y="287.769251" style="fill: #555555; stroke: #555555; stroke-width: 0.6"/>
      </g>
     </g>
    </g>
    <g id="ytick_7">
     <g id="line2d_28">
      <g>
       <use xlink:href="#m78304b766c" x="58.652054" y="282.622473" style="fill: #555555; stroke: #555555; stroke-width: 0.6"/>
      </g>
     </g>
    </g>
    <g id="ytick_8">
     <g id="line2d_29">
      <g>
       <use xlink:href="#m78304b766c" x="58.652054" y="247.730001" style="fill: #555555; stroke: #555555; stroke-width: 0.6"/>
      </g>
     </g>
    </g>
    <g id="ytick_9">
     <g id="line2d_30">
      <g>
       <use xlink:href="#m78304b766c" x="58.652054" y="230.01235" style="fill: #555555; stroke: #555555; stroke-width: 0.6"/>
      </g>
     </g>
    </g>
    <g id="ytick_10">
     <g id="line2d_31">
      <g>
       <use xlink:href="#m78304b766c" x="58.652054" y="217.441477" style="fill: #555555; stroke: #555555; stroke-width: 0.6"/>
      </g>
     </g>
    </g>
    <g id="ytick_11">
     <g id="line2d_32">
      <g>
       <use xlink:href="#m78304b766c" x="58.652054" y="207.690751" style="fill: #555555; stroke: #555555; stroke-width: 0.6"/>
      </g>
     </g>
    </g>
    <g id="ytick_12">
     <g id="line2d_33">
      <g>
       <use xlink:href="#m78304b766c" x="58.652054" y="199.723827" style="fill: #555555; stroke: #555555; stroke-width: 0.6"/>
      </g>
     </g>
    </g>
    <g id="ytick_13">
     <g id="line2d_34">
      <g>
       <use xlink:href="#m78304b766c" x="58.652054" y="192.987889" style="fill: #555555; stroke: #555555; stroke-width: 0.6"/>
      </g>
     </g>
    </g>
    <g id="ytick_14">
     <g id="line2d_35">
      <g>
       <use xlink:href="#m78304b766c" x="58.652054" y="187.152954" style="fill: #555555; stroke: #555555; stroke-width: 0.6"/>
      </g>
     </g>
    </g>
    <g id="ytick_15">
     <g id="line2d_36">
      <g>
       <use xlink:href="#m78304b766c" x="58.652054" y="182.006176" style="fill: #555555; stroke: #555555; stroke-width: 0.6"/>
      </g>
     </g>
    </g>
    <g id="ytick_16">
     <g id="line2d_37">
      <g>
       <use xlink:href="#m78304b766c" x="58.652054" y="147.113704" style="fill: #555555; stroke: #555555; stroke-width: 0.6"/>
      </g>
     </g>
    </g>
    <g id="ytick_17">
     <g id="line2d_38">
      <g>
       <use xlink:href="#m78304b766c" x="58.652054" y="129.396053" style="fill: #555555; stroke: #555555; stroke-width: 0.6"/>
      </g>
     </g>
    </g>
    <g id="ytick_18">
     <g id="line2d_39">
      <g>
       <use xlink:href="#m78304b766c" x="58.652054" y="116.82518" style="fill: #555555; stroke: #555555; stroke-width: 0.6"/>
      </g>
     </g>
    </g>
    <g id="ytick_19">
     <g id="line2d_40">
      <g>
       <use xlink:href="#m78304b766c" x="58.652054" y="107.074454" style="fill: #555555; stroke: #555555; stroke-width: 0.6"/>
      </g>
     </g>
    </g>
    <g id="ytick_20">
     <g id="line2d_41">
      <g>
       <use xlink:href="#m78304b766c" x="58.652054" y="99.10753" style="fill: #555555; stroke: #555555; stroke-width: 0.6"/>
      </g>
     </g>
    </g>
    <g id="ytick_21">
     <g id="line2d_42">
      <g>
       <use xlink:href="#m78304b766c" x="58.652054" y="92.371592" style="fill: #555555; stroke: #555555; stroke-width: 0.6"/>
      </g>
     </g>
    </g>
    <g id="ytick_22">
     <g id="line2d_43">
      <g>
       <use xlink:href="#m78304b766c" x="58.652054" y="86.536657" style="fill: #555555; stroke: #555555; stroke-width: 0.6"/>
      </g>
     </g>
    </g>
    <g id="ytick_23">
     <g id="line2d_44">
      <g>
       <use xlink:href="#m78304b766c" x="58.652054" y="81.38988" style="fill: #555555; stroke: #555555; stroke-width: 0.6"/>
      </g>
     </g>
    </g>
    <g id="ytick_24">
     <g id="line2d_45">
      <g>
       <use xlink:href="#m78304b766c" x="58.652054" y="46.497407" style="fill: #555555; stroke: #555555; stroke-width: 0.6"/>
      </g>
     </g>
    </g>
    <g id="ytick_25">
     <g id="line2d_46">
      <g>
       <use xlink:href="#m78304b766c" x="58.652054" y="28.779757" style="fill: #555555; stroke: #555555; stroke-width: 0.6"/>
      </g>
     </g>
    </g>
    <g id="ytick_26">
     <g id="line2d_47">
      <g>
       <use xlink:href="#m78304b766c" x="58.652054" y="16.208883" style="fill: #555555; stroke: #555555; stroke-width: 0.6"/>
      </g>
     </g>
    </g>
    <g id="text_14">
     <!-- log(loss) -->
     <g style="fill: #555555" transform="translate(21.656429 181.198437) rotate(-90) scale(0.12 -0.12)">
      <defs>
       <path id="DejaVuSans-6c" d="M 603 4863 
L 1178 4863 
L 1178 0 
L 603 0 
L 603 4863 
z
" transform="scale(0.015625)"/>
       <path id="DejaVuSans-67" d="M 2906 1791 
Q 2906 2416 2648 2759 
Q 2391 3103 1925 3103 
Q 1463 3103 1205 2759 
Q 947 2416 947 1791 
Q 947 1169 1205 825 
Q 1463 481 1925 481 
Q 2391 481 2648 825 
Q 2906 1169 2906 1791 
z
M 3481 434 
Q 3481 -459 3084 -895 
Q 2688 -1331 1869 -1331 
Q 1566 -1331 1297 -1286 
Q 1028 -1241 775 -1147 
L 775 -588 
Q 1028 -725 1275 -790 
Q 1522 -856 1778 -856 
Q 2344 -856 2625 -561 
Q 2906 -266 2906 331 
L 2906 616 
Q 2728 306 2450 153 
Q 2172 0 1784 0 
Q 1141 0 747 490 
Q 353 981 353 1791 
Q 353 2603 747 3093 
Q 1141 3584 1784 3584 
Q 2172 3584 2450 3431 
Q 2728 3278 2906 2969 
L 2906 3500 
L 3481 3500 
L 3481 434 
z
" transform="scale(0.015625)"/>
       <path id="DejaVuSans-28" d="M 1984 4856 
Q 1566 4138 1362 3434 
Q 1159 2731 1159 2009 
Q 1159 1288 1364 580 
Q 1569 -128 1984 -844 
L 1484 -844 
Q 1016 -109 783 600 
Q 550 1309 550 2009 
Q 550 2706 781 3412 
Q 1013 4119 1484 4856 
L 1984 4856 
z
" transform="scale(0.015625)"/>
       <path id="DejaVuSans-73" d="M 2834 3397 
L 2834 2853 
Q 2591 2978 2328 3040 
Q 2066 3103 1784 3103 
Q 1356 3103 1142 2972 
Q 928 2841 928 2578 
Q 928 2378 1081 2264 
Q 1234 2150 1697 2047 
L 1894 2003 
Q 2506 1872 2764 1633 
Q 3022 1394 3022 966 
Q 3022 478 2636 193 
Q 2250 -91 1575 -91 
Q 1294 -91 989 -36 
Q 684 19 347 128 
L 347 722 
Q 666 556 975 473 
Q 1284 391 1588 391 
Q 1994 391 2212 530 
Q 2431 669 2431 922 
Q 2431 1156 2273 1281 
Q 2116 1406 1581 1522 
L 1381 1569 
Q 847 1681 609 1914 
Q 372 2147 372 2553 
Q 372 3047 722 3315 
Q 1072 3584 1716 3584 
Q 2034 3584 2315 3537 
Q 2597 3491 2834 3397 
z
" transform="scale(0.015625)"/>
       <path id="DejaVuSans-29" d="M 513 4856 
L 1013 4856 
Q 1481 4119 1714 3412 
Q 1947 2706 1947 2009 
Q 1947 1309 1714 600 
Q 1481 -109 1013 -844 
L 513 -844 
Q 928 -128 1133 580 
Q 1338 1288 1338 2009 
Q 1338 2731 1133 3434 
Q 928 4138 513 4856 
z
" transform="scale(0.015625)"/>
      </defs>
      <use xlink:href="#DejaVuSans-6c"/>
      <use xlink:href="#DejaVuSans-6f" x="27.783203"/>
      <use xlink:href="#DejaVuSans-67" x="88.964844"/>
      <use xlink:href="#DejaVuSans-28" x="152.441406"/>
      <use xlink:href="#DejaVuSans-6c" x="191.455078"/>
      <use xlink:href="#DejaVuSans-6f" x="219.238281"/>
      <use xlink:href="#DejaVuSans-73" x="280.419922"/>
      <use xlink:href="#DejaVuSans-73" x="332.519531"/>
      <use xlink:href="#DejaVuSans-29" x="384.619141"/>
     </g>
    </g>
   </g>
   <g id="line2d_48">
    <path d="M 76.440597 23.98 
L 77.152495 182.44669 
L 77.330469 187.650297 
L 77.508443 186.502884 
L 78.220341 177.883341 
L 78.57629 175.014667 
L 78.932239 174.024745 
L 79.110213 173.667468 
L 79.288188 173.88582 
L 79.466162 174.467303 
L 79.644136 174.57322 
L 79.822111 174.89198 
L 80.000085 174.835146 
L 80.356034 175.144188 
L 82.135778 183.879175 
L 82.491727 186.29285 
L 82.669702 186.956193 
L 83.381599 191.585819 
L 83.559574 191.748771 
L 83.737548 193.212176 
L 83.915522 193.442798 
L 84.805395 198.895518 
L 84.983369 199.23715 
L 85.339318 201.024898 
L 85.517292 200.844233 
L 85.695267 202.867905 
L 85.873241 203.128801 
L 86.051215 204.178218 
L 86.22919 204.219263 
L 86.585139 206.590956 
L 86.763113 206.35017 
L 87.297036 208.248461 
L 87.475011 208.434241 
L 87.652985 209.682714 
L 87.83096 209.296356 
L 88.542857 211.87854 
L 88.720832 211.728449 
L 88.898806 212.87231 
L 89.076781 212.321693 
L 89.254755 212.910519 
L 89.610704 213.133215 
L 89.788678 213.93985 
L 89.966653 214.170187 
L 90.322601 215.766504 
L 90.500576 215.934169 
L 90.67855 215.944018 
L 90.856525 216.12523 
L 91.212474 216.733837 
L 91.390448 216.571961 
L 91.746397 217.616578 
L 91.924371 219.229789 
L 92.102346 219.054929 
L 92.458294 217.946136 
L 92.636269 218.341746 
L 92.992218 219.673385 
L 93.170192 219.192725 
L 93.526141 220.347239 
L 93.704115 220.872692 
L 93.88209 219.418196 
L 94.060064 220.625578 
L 94.238039 221.044511 
L 94.416013 220.575667 
L 94.593987 221.839018 
L 94.771962 222.098134 
L 94.949936 220.371947 
L 95.305885 222.684137 
L 95.48386 222.256908 
L 95.661834 222.136832 
L 96.017783 222.40782 
L 96.195757 223.371363 
L 96.373732 222.688358 
L 96.551706 223.110812 
L 96.72968 223.124237 
L 96.907655 223.430739 
L 97.085629 223.118921 
L 97.263604 224.107001 
L 97.441578 223.966683 
L 97.619553 224.285027 
L 97.797527 224.32677 
L 97.975501 224.840546 
L 98.153476 224.940908 
L 98.33145 225.463036 
L 98.509425 225.007736 
L 98.687399 225.055517 
L 98.865373 225.816624 
L 99.221322 225.298521 
L 99.399297 225.682407 
L 99.577271 225.168345 
L 99.755246 226.524275 
L 99.93322 226.212391 
L 100.111194 226.702865 
L 100.289169 226.091734 
L 100.467143 226.040903 
L 100.645118 226.566479 
L 100.823092 227.486933 
L 101.001066 227.122697 
L 101.179041 227.18 
L 101.357015 226.557182 
L 101.53499 227.779752 
L 101.712964 227.340659 
L 101.890939 228.297229 
L 102.068913 228.476913 
L 102.246887 228.37605 
L 102.424862 228.014344 
L 102.602836 228.04874 
L 102.780811 228.593619 
L 102.958785 228.362298 
L 103.136759 229.332476 
L 103.314734 228.884691 
L 103.492708 228.927208 
L 103.848657 229.521515 
L 104.026632 229.198358 
L 104.38258 229.597826 
L 104.560555 230.105406 
L 104.738529 229.295405 
L 104.916504 230.30735 
L 105.094478 228.856367 
L 105.272453 230.036089 
L 105.450427 229.901246 
L 105.628401 230.359243 
L 105.806376 232.414006 
L 105.98435 231.37843 
L 106.162325 231.93133 
L 106.340299 231.121479 
L 106.518273 231.112842 
L 106.696248 231.474202 
L 106.874222 232.237457 
L 107.052197 231.068501 
L 107.230171 232.349051 
L 107.408146 232.177488 
L 107.58612 232.167813 
L 107.764094 232.39311 
L 107.942069 231.986568 
L 108.298018 232.817579 
L 108.475992 233.061795 
L 108.653966 232.555835 
L 108.831941 233.374938 
L 109.18789 233.810956 
L 109.365864 233.558359 
L 109.543839 233.765788 
L 109.721813 233.554249 
L 109.899787 233.832882 
L 110.077762 234.508987 
L 110.255736 234.100798 
L 110.433711 234.164188 
L 110.611685 235.614978 
L 110.967634 233.884152 
L 111.145608 234.664099 
L 111.323583 234.610773 
L 111.501557 235.144353 
L 111.679532 234.458033 
L 111.857506 235.653091 
L 112.03548 235.471268 
L 112.213455 235.827332 
L 112.391429 234.500808 
L 112.747378 236.018412 
L 113.459276 235.878168 
L 113.63725 237.424219 
L 113.815225 236.075971 
L 113.993199 236.287811 
L 114.349148 236.989506 
L 114.527122 236.759131 
L 114.705097 237.382533 
L 114.883071 236.584572 
L 115.061045 237.487699 
L 115.23902 237.759136 
L 115.772943 236.240724 
L 115.950918 237.575805 
L 116.128892 237.773446 
L 116.306866 237.384363 
L 116.484841 237.672789 
L 116.662815 238.402462 
L 116.84079 237.218997 
L 117.018764 238.32571 
L 117.374713 238.87616 
L 117.552687 238.22826 
L 117.908636 239.212114 
L 118.264585 238.438974 
L 118.442559 239.037139 
L 118.620534 238.731097 
L 118.798508 239.714092 
L 119.332431 239.006694 
L 119.510406 239.842642 
L 119.68838 238.433289 
L 119.866355 240.206211 
L 120.044329 240.080004 
L 120.222304 239.678893 
L 120.400278 240.68054 
L 120.578252 240.203374 
L 120.756227 241.214677 
L 120.934201 240.105714 
L 121.112176 241.567872 
L 121.29015 240.744045 
L 121.824073 241.500686 
L 122.002048 240.931002 
L 122.180022 241.633087 
L 122.357997 240.821332 
L 122.713945 241.745998 
L 123.069894 242.120579 
L 123.247869 242.01157 
L 123.425843 242.090144 
L 123.603817 243.164338 
L 123.959766 240.888688 
L 124.315715 243.366858 
L 124.671664 242.063755 
L 125.027613 243.5268 
L 125.383562 242.21222 
L 125.561536 243.168939 
L 125.73951 243.273299 
L 125.917485 243.012889 
L 126.095459 241.891886 
L 126.273434 244.34232 
L 126.451408 243.174087 
L 126.629383 243.272097 
L 126.807357 243.84265 
L 126.985331 243.344056 
L 127.519255 244.908382 
L 127.875203 244.127729 
L 128.231152 244.767982 
L 128.409127 244.337063 
L 128.765076 246.061776 
L 128.94305 245.487049 
L 129.121024 246.112686 
L 129.298999 244.756799 
L 129.476973 244.79826 
L 129.654948 245.841825 
L 129.832922 244.921455 
L 130.010897 244.597167 
L 130.188871 246.640007 
L 130.366845 245.369118 
L 130.54482 245.825069 
L 130.722794 245.919369 
L 130.900769 245.854576 
L 131.078743 246.348331 
L 131.434692 245.733022 
L 131.612666 246.114761 
L 131.790641 246.970864 
L 131.968615 246.162705 
L 132.14659 247.770012 
L 132.324564 247.495603 
L 132.502538 246.924694 
L 132.680513 246.829478 
L 133.214436 247.887221 
L 133.39241 247.739904 
L 133.570385 247.352863 
L 133.748359 247.671219 
L 133.926334 247.524255 
L 134.104308 248.392154 
L 134.282283 248.417981 
L 134.460257 247.886057 
L 134.638231 249.818164 
L 134.816206 248.212997 
L 134.99418 248.62909 
L 135.172155 248.473774 
L 135.350129 248.823215 
L 135.528103 249.777718 
L 135.706078 248.295058 
L 135.884052 249.839368 
L 136.062027 249.269672 
L 136.417976 249.107275 
L 136.59595 249.548233 
L 136.773924 248.836774 
L 136.951899 249.516175 
L 137.129873 249.552361 
L 137.307848 249.024451 
L 137.485822 250.084523 
L 137.663796 248.868888 
L 137.841771 250.37738 
L 138.019745 249.296167 
L 138.19772 250.208646 
L 138.375694 249.982291 
L 138.553669 250.449924 
L 138.731643 251.44661 
L 138.909617 249.628902 
L 139.087592 249.888917 
L 139.265566 250.759706 
L 139.443541 250.331615 
L 139.621515 251.318536 
L 139.799489 249.862936 
L 139.977464 251.164525 
L 140.333413 250.157766 
L 140.689362 252.31176 
L 140.867336 251.504192 
L 141.04531 251.497475 
L 141.223285 251.355879 
L 141.757208 252.301669 
L 142.113157 251.249909 
L 142.291131 251.452104 
L 142.469106 251.997967 
L 142.825055 251.615158 
L 143.003029 251.671243 
L 143.181003 252.137983 
L 143.358978 251.263215 
L 143.536952 252.095325 
L 143.714927 251.941617 
L 143.892901 253.205003 
L 144.070875 252.260395 
L 144.24885 252.991619 
L 144.426824 251.58437 
L 144.960748 253.485453 
L 145.316696 252.430762 
L 145.494671 253.547251 
L 145.672645 252.382398 
L 145.85062 252.742277 
L 146.028594 252.561519 
L 146.206568 254.101069 
L 146.562517 252.979172 
L 146.918466 253.045892 
L 147.096441 253.227617 
L 147.274415 253.907049 
L 147.452389 253.328113 
L 147.630364 254.522848 
L 147.808338 253.734765 
L 147.986313 253.854627 
L 148.164287 254.627367 
L 148.342261 254.214534 
L 148.520236 254.795572 
L 148.69821 252.923721 
L 148.876185 254.256875 
L 149.054159 253.278183 
L 149.232134 254.74421 
L 149.410108 254.118725 
L 149.588082 255.071796 
L 149.766057 254.840889 
L 149.944031 254.136986 
L 150.29998 253.770195 
L 150.477954 254.740201 
L 150.655929 254.285169 
L 150.833903 254.477907 
L 151.011878 255.727944 
L 151.189852 255.081811 
L 151.367827 255.837873 
L 151.545801 254.736699 
L 151.723775 255.078267 
L 151.90175 256.260402 
L 152.079724 254.52136 
L 152.257699 254.54651 
L 152.435673 255.814402 
L 152.613647 255.720565 
L 152.791622 255.397477 
L 152.969596 255.568951 
L 153.325545 255.241797 
L 153.50352 255.006882 
L 153.681494 256.124766 
L 153.859468 255.220165 
L 154.037443 255.449341 
L 154.215417 256.699962 
L 154.393392 256.686802 
L 154.571366 255.786054 
L 154.749341 256.143461 
L 154.927315 255.92882 
L 155.105289 254.942875 
L 155.461238 256.561323 
L 155.639213 255.812987 
L 155.817187 255.940909 
L 156.173136 257.1493 
L 156.35111 256.950109 
L 156.707059 256.01307 
L 157.063008 257.10026 
L 157.240982 257.026681 
L 157.418957 256.582189 
L 157.596931 257.325922 
L 157.774906 257.075365 
L 157.95288 257.025477 
L 158.130854 257.134677 
L 158.308829 256.371418 
L 158.486803 256.352472 
L 158.842752 257.970367 
L 159.020727 256.971533 
L 159.198701 257.097245 
L 159.376675 258.03935 
L 159.55465 256.487113 
L 159.732624 257.021339 
L 159.910599 257.132895 
L 160.088573 256.807664 
L 160.266547 258.118249 
L 160.444522 258.48056 
L 160.622496 257.791044 
L 160.800471 257.955389 
L 160.978445 257.33991 
L 161.15642 258.262728 
L 161.334394 256.987173 
L 161.512368 258.81575 
L 161.690343 257.770965 
L 161.868317 258.235403 
L 162.046292 257.769168 
L 162.224266 258.821174 
L 162.580215 256.942621 
L 162.936164 259.359351 
L 163.114138 257.818098 
L 163.292113 259.700502 
L 163.648061 257.813546 
L 163.826036 259.030779 
L 164.00401 258.264422 
L 164.181985 259.207242 
L 164.359959 258.512581 
L 164.537933 258.306553 
L 164.715908 259.618934 
L 164.893882 259.530878 
L 165.071857 257.920444 
L 165.249831 257.981557 
L 165.60578 258.800719 
L 165.783754 258.786696 
L 165.961729 259.479149 
L 166.317678 259.280866 
L 166.495652 259.999191 
L 166.673626 260.021043 
L 166.851601 259.766557 
L 167.029575 258.977659 
L 167.385524 259.962805 
L 167.563499 258.758632 
L 167.741473 259.22544 
L 168.097422 258.610024 
L 168.275396 260.143142 
L 168.453371 259.316935 
L 168.631345 260.745781 
L 168.809319 260.373882 
L 169.165268 260.823284 
L 169.343243 260.508737 
L 169.521217 259.892977 
L 169.699192 260.607265 
L 169.877166 259.598738 
L 170.05514 261.00089 
L 170.233115 260.868163 
L 170.411089 259.828591 
L 170.767038 260.226196 
L 170.945012 259.561646 
L 171.122987 260.862589 
L 171.300961 260.78344 
L 171.478936 260.192908 
L 171.65691 260.460113 
L 171.834885 260.132206 
L 172.012859 260.482692 
L 172.190833 261.173849 
L 172.368808 259.82689 
L 172.724757 261.21266 
L 172.902731 260.088764 
L 173.080705 260.417293 
L 173.25868 260.484386 
L 173.436654 261.470105 
L 173.970578 261.090523 
L 174.148552 261.589523 
L 174.326526 261.389067 
L 174.504501 260.871426 
L 174.682475 261.762403 
L 174.86045 260.088813 
L 175.038424 261.421361 
L 175.394373 262.334504 
L 175.572347 261.308017 
L 175.750322 261.269818 
L 176.284245 261.79912 
L 176.462219 262.424365 
L 176.640194 261.13815 
L 176.818168 261.545588 
L 176.996143 261.025524 
L 177.530066 262.713398 
L 177.886015 260.831118 
L 178.063989 263.42312 
L 178.241964 263.386075 
L 178.419938 261.742506 
L 178.597912 263.502255 
L 178.775887 262.286583 
L 178.953861 261.891702 
L 179.131836 262.158861 
L 179.30981 263.209883 
L 179.487784 263.558128 
L 179.665759 262.469641 
L 179.843733 262.991841 
L 180.021708 262.937895 
L 180.199682 261.711636 
L 180.555631 262.861089 
L 180.733605 261.966178 
L 180.91158 263.884191 
L 181.267529 262.543978 
L 181.445503 262.942238 
L 181.623478 262.812498 
L 181.801452 263.718617 
L 181.979426 263.045572 
L 182.157401 262.874319 
L 182.335375 262.919233 
L 182.51335 264.501223 
L 182.869298 262.884892 
L 183.047273 262.926084 
L 183.225247 263.834623 
L 183.403222 262.89054 
L 183.581196 263.846983 
L 183.759171 264.103691 
L 183.937145 263.741098 
L 184.115119 264.342199 
L 184.293094 262.024212 
L 184.471068 263.424574 
L 184.649043 263.405663 
L 185.004991 263.855581 
L 185.182966 263.748188 
L 185.36094 264.664584 
L 185.538915 263.955304 
L 185.716889 263.742786 
L 186.072838 264.662122 
L 186.250812 264.256828 
L 186.428787 263.376931 
L 186.784736 265.341946 
L 186.96271 263.388903 
L 187.318659 264.482965 
L 187.496633 263.004452 
L 187.674608 263.639939 
L 187.852582 263.61537 
L 188.030557 264.034951 
L 188.386505 264.115733 
L 188.56448 264.197088 
L 188.742454 264.015608 
L 188.920429 263.609224 
L 189.098403 264.760009 
L 189.276377 263.631383 
L 189.454352 264.36448 
L 189.632326 264.303992 
L 189.810301 264.695459 
L 189.988275 264.755193 
L 190.16625 263.391191 
L 190.344224 264.784744 
L 190.522198 265.139974 
L 190.700173 264.85353 
L 191.056122 266.016208 
L 191.234096 264.901705 
L 191.41207 264.622195 
L 191.590045 264.02531 
L 191.768019 264.570216 
L 191.945994 264.504619 
L 192.301943 265.379843 
L 192.479917 265.048223 
L 192.657891 265.403001 
L 192.835866 264.725077 
L 193.191815 265.312543 
L 193.369789 266.468199 
L 193.547763 264.708274 
L 193.725738 264.920714 
L 193.903712 264.789016 
L 194.081687 264.964623 
L 194.259661 264.716498 
L 194.61561 266.248012 
L 194.793584 265.944541 
L 194.971559 264.877582 
L 195.149533 265.702073 
L 195.327508 265.738825 
L 195.505482 266.3942 
L 195.683456 265.673605 
L 195.861431 265.73037 
L 196.039405 266.079733 
L 196.21738 266.699539 
L 196.395354 265.424588 
L 196.573329 266.218294 
L 196.929277 265.891848 
L 197.107252 265.905565 
L 197.285226 266.809468 
L 197.463201 265.654161 
L 197.819149 266.85365 
L 197.997124 265.748409 
L 198.353073 267.087368 
L 198.531047 266.352219 
L 198.709022 265.054708 
L 198.886996 266.285701 
L 199.06497 266.389977 
L 199.598894 267.083756 
L 199.776868 266.592972 
L 199.954842 266.523476 
L 200.132817 266.674165 
L 200.310791 266.08493 
L 200.488766 266.932808 
L 200.66674 265.91261 
L 201.022689 267.535669 
L 201.556612 265.605395 
L 201.734587 265.961359 
L 201.912561 267.544221 
L 202.26851 266.642459 
L 202.446484 266.70749 
L 202.624459 266.948723 
L 202.802433 267.511929 
L 202.980408 267.221155 
L 203.158382 266.712215 
L 203.336356 267.265345 
L 203.514331 267.226476 
L 203.87028 265.745794 
L 204.048254 267.235795 
L 204.226228 266.772441 
L 204.404203 267.450094 
L 204.582177 266.954043 
L 204.760152 267.538313 
L 204.938126 267.396924 
L 205.116101 267.046901 
L 205.294075 267.17937 
L 205.472049 268.230073 
L 205.827998 266.94667 
L 206.005973 267.919292 
L 206.183947 267.992674 
L 206.361922 266.762374 
L 206.539896 266.628681 
L 206.71787 267.59708 
L 206.895845 267.131172 
L 207.073819 268.023685 
L 207.251794 266.898453 
L 207.429768 267.587402 
L 207.607742 268.871004 
L 207.963691 266.826554 
L 208.141666 268.0948 
L 208.31964 267.866097 
L 208.497615 269.234583 
L 208.675589 267.943836 
L 208.853563 267.779506 
L 209.031538 268.446528 
L 209.209512 267.585902 
L 209.387487 267.780124 
L 209.565461 268.971878 
L 209.743435 269.195161 
L 209.92141 267.656546 
L 210.099384 267.952481 
L 210.277359 267.912555 
L 210.455333 266.860935 
L 210.633308 268.163154 
L 210.811282 268.509656 
L 210.989256 268.299379 
L 211.167231 269.275606 
L 211.52318 268.023769 
L 211.701154 268.857218 
L 211.879128 268.57482 
L 212.057103 268.643463 
L 212.235077 269.548271 
L 212.413052 268.174514 
L 212.591026 267.857846 
L 212.769001 269.081742 
L 212.946975 267.650526 
L 213.124949 268.775269 
L 213.480898 267.040227 
L 213.658873 268.552845 
L 213.836847 268.590767 
L 214.014821 269.330559 
L 214.192796 268.151187 
L 214.37077 269.532259 
L 214.548745 267.979472 
L 214.726719 269.595241 
L 214.904694 269.300687 
L 215.082668 269.82366 
L 215.260642 268.440526 
L 215.438617 268.489095 
L 215.616591 269.474126 
L 215.794566 268.144863 
L 216.150514 269.460175 
L 216.328489 269.343982 
L 216.684438 268.344288 
L 216.862412 270.090876 
L 217.040387 268.802919 
L 217.218361 269.10792 
L 217.396335 268.354729 
L 217.57431 269.141922 
L 217.752284 269.092997 
L 217.930259 269.906941 
L 218.108233 268.473614 
L 218.464182 267.897415 
L 218.642156 268.387927 
L 218.820131 269.4132 
L 218.998105 268.818808 
L 219.17608 269.084578 
L 219.354054 268.676218 
L 219.710003 269.108049 
L 219.887977 268.965169 
L 220.065952 269.447126 
L 220.243926 270.868529 
L 220.4219 269.089142 
L 220.777849 271.213824 
L 220.955824 270.173434 
L 221.133798 270.785304 
L 221.311773 268.714839 
L 221.489747 270.090757 
L 221.667721 269.536994 
L 221.845696 269.406486 
L 222.201645 270.16411 
L 222.379619 270.84219 
L 222.557593 270.208602 
L 222.735568 269.133513 
L 222.913542 269.516273 
L 223.091517 270.613105 
L 223.269491 269.037696 
L 223.447466 270.701903 
L 223.62544 269.617588 
L 223.803414 270.4675 
L 223.981389 269.572003 
L 224.159363 269.941798 
L 224.337338 269.401761 
L 224.515312 270.620248 
L 224.693286 270.165314 
L 224.871261 270.325504 
L 225.049235 271.174476 
L 225.22721 271.397021 
L 225.405184 270.924348 
L 225.583159 269.902838 
L 225.761133 270.041522 
L 225.939107 270.988317 
L 226.117082 270.817023 
L 226.295056 269.945323 
L 226.473031 271.062826 
L 226.651005 269.485684 
L 226.828979 271.246853 
L 227.006954 271.197068 
L 227.184928 271.275355 
L 227.362903 270.548417 
L 227.540877 270.430398 
L 227.718852 270.830099 
L 227.896826 271.63211 
L 228.0748 270.153153 
L 228.430749 271.925231 
L 228.608724 271.28567 
L 228.786698 270.175158 
L 229.142647 271.380677 
L 229.320621 270.601393 
L 229.498596 270.924337 
L 229.67657 270.869044 
L 229.854545 270.218848 
L 230.032519 270.134634 
L 230.388468 271.74653 
L 230.566442 271.016939 
L 230.744417 271.037254 
L 230.922391 270.883417 
L 231.100366 270.204134 
L 231.27834 271.449243 
L 231.456314 271.506798 
L 231.812263 270.174196 
L 231.990238 271.434553 
L 232.168212 271.709958 
L 232.524161 271.510571 
L 232.702135 270.446219 
L 232.88011 271.741602 
L 233.236059 270.498023 
L 233.414033 271.340536 
L 233.592007 271.145814 
L 233.769982 270.721125 
L 233.947956 272.239432 
L 234.125931 272.024777 
L 234.303905 271.068612 
L 234.481879 271.146137 
L 234.659854 270.635529 
L 234.837828 271.487378 
L 235.193777 270.519702 
L 235.549726 271.727913 
L 235.7277 271.578211 
L 235.905675 272.031451 
L 236.083649 271.534667 
L 236.261624 269.886449 
L 236.617572 272.171061 
L 236.973521 272.034972 
L 237.32947 271.697878 
L 237.507445 272.018647 
L 237.685419 270.467811 
L 237.863393 271.579478 
L 238.041368 271.353165 
L 238.397317 271.858438 
L 238.575291 271.580996 
L 238.753265 272.677556 
L 238.93124 271.651619 
L 239.109214 272.712298 
L 239.287189 272.207372 
L 239.465163 272.057072 
L 239.643138 271.545678 
L 239.999086 272.475105 
L 240.177061 271.228144 
L 240.355035 272.056085 
L 240.53301 272.127758 
L 240.888958 273.507117 
L 241.066933 272.23781 
L 241.422882 273.657856 
L 241.600856 271.37988 
L 241.778831 271.827932 
L 241.956805 271.883689 
L 242.134779 272.138208 
L 242.312754 272.858417 
L 242.490728 272.777674 
L 242.846677 272.064515 
L 243.024651 272.241054 
L 243.202626 272.974365 
L 243.3806 272.735656 
L 243.558575 271.193141 
L 243.736549 271.408091 
L 243.914524 272.766449 
L 244.092498 272.829687 
L 244.270472 271.757965 
L 244.448447 273.05746 
L 244.626421 272.459683 
L 244.804396 273.161363 
L 244.98237 273.175046 
L 245.338319 272.500908 
L 245.516293 274.026542 
L 245.694268 272.778432 
L 245.872242 273.096254 
L 246.228191 273.212421 
L 246.406165 273.053867 
L 246.58414 272.625493 
L 246.940089 272.952582 
L 247.118063 271.73026 
L 247.296037 272.753178 
L 247.474012 274.861382 
L 247.651986 272.250226 
L 247.829961 272.144861 
L 248.007935 273.328762 
L 248.363884 272.200536 
L 248.541858 274.083594 
L 248.719833 273.232006 
L 248.897807 273.676858 
L 249.253756 272.554547 
L 249.43173 274.135138 
L 249.609705 272.46818 
L 249.787679 273.49527 
L 250.143628 272.190986 
L 250.321603 271.690832 
L 250.499577 273.935154 
L 250.677551 274.044471 
L 251.0335 272.411715 
L 251.211475 274.10088 
L 251.389449 273.503381 
L 251.745398 273.128049 
L 252.101347 274.863358 
L 252.279321 273.790938 
L 252.457296 273.594645 
L 252.63527 274.008866 
L 252.991219 273.744772 
L 253.169193 273.12286 
L 253.347168 273.387629 
L 253.703116 275.552811 
L 254.059065 274.170485 
L 254.415014 273.646031 
L 254.592989 273.034133 
L 254.770963 273.443441 
L 254.948937 272.861769 
L 255.126912 273.024802 
L 255.304886 274.711413 
L 255.482861 273.59787 
L 255.660835 274.076759 
L 255.838809 273.73779 
L 256.016784 273.644643 
L 256.194758 273.145358 
L 256.550707 274.365899 
L 256.728682 273.608189 
L 256.906656 273.66638 
L 257.08463 271.990088 
L 257.262605 274.304011 
L 257.440579 274.724017 
L 257.618554 273.56065 
L 257.796528 274.399159 
L 257.974503 273.971946 
L 258.152477 274.101583 
L 258.330451 273.647954 
L 258.508426 274.851914 
L 258.864375 274.136628 
L 259.042349 274.346435 
L 259.220323 273.353308 
L 259.576272 274.355397 
L 259.754247 274.444233 
L 259.932221 273.817678 
L 260.110196 273.950799 
L 260.28817 274.586202 
L 260.466144 274.030361 
L 260.644119 274.574811 
L 260.822093 273.509448 
L 261.000068 274.464972 
L 261.356016 273.941816 
L 261.533991 273.936318 
L 262.245889 274.55216 
L 262.423863 273.809032 
L 262.779812 274.944866 
L 262.957786 274.835127 
L 263.135761 275.510529 
L 263.313735 273.812329 
L 263.491709 273.764679 
L 263.669684 275.285296 
L 263.847658 274.956259 
L 264.025633 273.441711 
L 264.203607 275.430818 
L 264.381582 274.360816 
L 264.559556 274.432036 
L 264.73753 275.152806 
L 264.915505 274.686187 
L 265.093479 275.313001 
L 265.271454 274.476994 
L 265.449428 274.530662 
L 265.627402 274.009939 
L 265.805377 276.394186 
L 266.161326 274.470844 
L 266.3393 273.563792 
L 266.517275 274.903373 
L 266.695249 274.628174 
L 266.873223 274.920221 
L 267.229172 274.512897 
L 267.407147 275.028312 
L 267.585121 274.787184 
L 267.763095 275.840318 
L 267.94107 274.763783 
L 268.119044 274.67888 
L 268.297019 275.695006 
L 268.474993 273.80306 
L 268.652968 273.885959 
L 268.830942 274.4958 
L 269.008916 276.089129 
L 269.186891 276.672627 
L 269.364865 275.323396 
L 269.54284 276.595087 
L 269.720814 275.025975 
L 269.898788 276.55905 
L 270.076763 276.429526 
L 270.254737 275.272839 
L 270.432712 276.07045 
L 270.610686 275.939438 
L 270.788661 276.214378 
L 270.966635 274.716824 
L 271.144609 275.933753 
L 271.322584 276.17728 
L 271.500558 275.041494 
L 271.678533 274.679407 
L 271.856507 275.696295 
L 272.034481 275.513354 
L 272.212456 274.88838 
L 272.39043 275.477722 
L 272.746379 275.604733 
L 272.924354 274.086212 
L 273.280302 275.646165 
L 273.458277 274.909175 
L 273.636251 276.184367 
L 273.814226 276.02632 
L 273.9922 276.65726 
L 274.170174 274.118445 
L 274.348149 274.52231 
L 274.526123 276.900334 
L 274.704098 274.685961 
L 275.060047 275.33137 
L 275.238021 275.961574 
L 275.415995 275.141225 
L 275.771944 276.892226 
L 275.949919 275.616714 
L 276.127893 277.175797 
L 276.483842 275.936873 
L 276.661816 276.740582 
L 276.839791 275.583893 
L 277.017765 276.24473 
L 277.19574 275.407519 
L 277.373714 276.285483 
L 277.551688 275.717513 
L 277.729663 275.881711 
L 277.907637 276.554445 
L 278.085612 275.379842 
L 278.44156 276.078103 
L 278.619535 276.452277 
L 278.797509 276.347636 
L 278.975484 277.318544 
L 279.331433 275.79476 
L 279.509407 277.32478 
L 279.687381 276.63178 
L 279.865356 274.986934 
L 280.04333 278.117724 
L 280.221305 275.280158 
L 280.399279 275.115159 
L 280.577253 276.695004 
L 280.755228 275.84395 
L 280.933202 277.045004 
L 281.111177 275.452418 
L 281.467126 277.024329 
L 281.6451 276.072949 
L 281.823074 275.822759 
L 282.001049 276.68755 
L 282.356998 276.824384 
L 282.534972 277.078066 
L 282.712947 275.959734 
L 282.890921 276.913644 
L 283.068895 275.880273 
L 283.24687 277.345249 
L 283.780793 276.900893 
L 283.958767 275.902558 
L 284.136742 276.919509 
L 284.314716 276.255494 
L 284.492691 277.212786 
L 284.670665 276.042587 
L 284.84864 276.29103 
L 285.026614 276.183528 
L 285.204588 278.153045 
L 285.382563 276.830427 
L 285.560537 276.889085 
L 285.738512 276.673693 
L 285.916486 276.020865 
L 286.272435 277.038501 
L 286.450409 276.388485 
L 286.628384 277.066322 
L 286.806358 276.80882 
L 286.984333 277.847789 
L 287.162307 277.559483 
L 287.340281 276.048632 
L 287.518256 277.520921 
L 287.69623 277.528434 
L 287.874205 277.292504 
L 288.052179 277.836335 
L 288.230153 279.01961 
L 288.408128 276.749511 
L 288.586102 277.364613 
L 288.764077 277.221141 
L 288.942051 275.631659 
L 289.120026 277.563962 
L 289.298 276.986546 
L 289.475974 277.292476 
L 289.653949 276.685494 
L 289.831923 276.810317 
L 290.009898 277.553379 
L 290.187872 276.815186 
L 290.365846 277.568795 
L 290.543821 276.752863 
L 290.721795 277.077723 
L 290.89977 276.546402 
L 291.255719 278.590719 
L 291.433693 276.858908 
L 291.611667 276.672296 
L 291.789642 277.073075 
L 292.145591 275.949129 
L 292.323565 276.778608 
L 292.501539 276.827128 
L 292.679514 276.692228 
L 293.035463 278.355646 
L 293.213437 276.61422 
L 293.391412 277.355858 
L 293.569386 276.085305 
L 293.74736 276.375099 
L 294.103309 275.819327 
L 294.281284 277.041223 
L 294.637232 275.339465 
L 294.815207 278.487446 
L 294.993181 276.758592 
L 295.171156 276.835485 
L 295.34913 276.405257 
L 295.527105 276.385859 
L 295.883053 277.640822 
L 296.061028 276.828134 
L 296.239002 278.228966 
L 296.594951 277.300458 
L 296.772925 278.888792 
L 296.9509 278.145249 
L 297.128874 278.366179 
L 297.306849 277.945147 
L 297.484823 278.449709 
L 297.662798 279.353047 
L 297.840772 276.464529 
L 298.196721 278.88912 
L 298.374695 277.174935 
L 298.55267 277.676389 
L 298.730644 278.920384 
L 298.908618 278.624014 
L 299.086593 277.719923 
L 299.264567 278.189093 
L 299.442542 277.807939 
L 299.620516 276.934382 
L 299.798491 278.630864 
L 299.976465 279.151927 
L 300.154439 278.847306 
L 300.332414 277.594715 
L 300.866337 278.771803 
L 301.044311 277.091861 
L 301.222286 278.81757 
L 301.40026 279.076835 
L 301.756209 277.175266 
L 301.934184 278.502109 
L 302.112158 278.467438 
L 302.290132 278.988375 
L 302.468107 277.728266 
L 302.646081 278.616084 
L 302.824056 277.750276 
L 303.00203 279.602532 
L 303.180004 278.071417 
L 303.357979 278.885957 
L 303.713928 279.297396 
L 303.891902 277.431513 
L 304.247851 278.139662 
L 304.425825 277.68598 
L 304.6038 276.888177 
L 304.959749 278.283108 
L 305.137723 279.409404 
L 305.315697 278.012511 
L 305.493672 278.785489 
L 305.671646 278.662989 
L 305.849621 279.125639 
L 306.027595 277.614822 
L 306.383544 278.978498 
L 306.561518 277.496099 
L 306.917467 278.784959 
L 307.095442 278.90904 
L 307.273416 278.1742 
L 307.451391 278.12142 
L 307.629365 279.152249 
L 307.985314 279.553293 
L 308.163288 278.682909 
L 308.519237 278.353985 
L 308.697211 279.690131 
L 308.875186 278.646521 
L 309.05316 279.652228 
L 309.231135 279.056105 
L 309.765058 280.644675 
L 309.943032 278.340918 
L 310.121007 279.386354 
L 310.298981 278.99051 
L 310.476956 278.203375 
L 310.65493 279.282296 
L 310.832904 279.347287 
L 311.010879 279.623915 
L 311.188853 279.042863 
L 311.366828 279.770818 
L 311.544802 279.306691 
L 311.722777 278.27876 
L 311.900751 278.205071 
L 312.2567 279.846218 
L 312.434674 280.340886 
L 312.612649 278.665066 
L 312.790623 280.449589 
L 312.968597 278.355466 
L 313.146572 278.110995 
L 313.324546 279.570161 
L 313.680495 278.32353 
L 313.85847 278.120417 
L 314.036444 279.483593 
L 314.214418 279.785346 
L 314.392393 278.940085 
L 314.570367 278.660123 
L 314.748342 278.941698 
L 314.926316 278.388562 
L 315.10429 279.872149 
L 315.460239 278.830279 
L 315.638214 279.852359 
L 315.816188 277.992565 
L 315.994163 278.857269 
L 316.350111 278.426436 
L 316.70606 280.090985 
L 316.884035 278.157458 
L 317.239983 280.89848 
L 317.417958 279.681709 
L 317.595932 279.773377 
L 317.773907 279.672135 
L 317.951881 281.014665 
L 318.30783 279.122818 
L 318.485804 279.625709 
L 318.663779 278.740968 
L 318.841753 279.924082 
L 319.197702 279.998615 
L 319.375676 279.596604 
L 319.553651 278.744278 
L 319.731625 278.576034 
L 319.9096 280.000063 
L 320.087574 279.989818 
L 320.265549 281.447735 
L 320.443523 279.024361 
L 320.621497 280.224083 
L 320.799472 279.525916 
L 320.977446 279.357482 
L 321.155421 280.473607 
L 321.333395 279.950532 
L 321.511369 278.976048 
L 321.689344 279.989806 
L 321.867318 279.165708 
L 322.045293 280.593717 
L 322.223267 278.951633 
L 322.401242 278.780263 
L 322.579216 280.805881 
L 322.75719 279.389218 
L 322.935165 279.228195 
L 323.113139 279.69477 
L 323.291114 279.037164 
L 323.469088 279.500792 
L 323.647062 281.448823 
L 324.003011 279.051421 
L 324.180986 279.86162 
L 324.35896 278.57415 
L 324.536935 279.040055 
L 324.714909 281.475577 
L 324.892883 277.63003 
L 325.070858 277.784523 
L 325.248832 278.955761 
L 325.604781 278.406251 
L 325.782755 280.479092 
L 325.96073 277.028649 
L 326.138704 277.686436 
L 326.316679 278.942375 
L 326.494653 278.839874 
L 326.672628 280.071765 
L 326.850602 280.099998 
L 327.206551 278.498044 
L 327.384525 278.928956 
L 327.5625 278.878722 
L 327.740474 279.788592 
L 327.918448 279.212462 
L 328.096423 279.334367 
L 328.274397 280.385504 
L 328.452372 279.845824 
L 328.808321 280.225252 
L 329.164269 279.420677 
L 329.342244 280.993018 
L 329.520218 279.922408 
L 329.698193 281.250591 
L 329.876167 279.94547 
L 330.054141 280.995374 
L 330.232116 280.062229 
L 330.588065 282.462327 
L 330.766039 281.59921 
L 330.944014 281.521035 
L 331.121988 281.007322 
L 331.299962 281.689607 
L 331.477937 280.736625 
L 331.833886 281.403022 
L 332.01186 279.788762 
L 332.545783 281.936658 
L 332.723758 280.558693 
L 332.901732 281.325943 
L 333.079707 281.460415 
L 333.435655 279.91185 
L 333.61363 281.747559 
L 333.791604 281.749398 
L 333.969579 281.499532 
L 334.147553 280.227614 
L 334.503502 281.08092 
L 334.681476 280.991436 
L 334.859451 281.454682 
L 335.037425 281.210343 
L 335.2154 281.617602 
L 335.393374 280.743615 
L 335.571348 281.998201 
L 335.749323 281.43803 
L 335.927297 282.048526 
L 336.283246 279.749782 
L 336.461221 280.205622 
L 336.639195 280.288922 
L 336.995144 281.931187 
L 337.351093 281.13463 
L 337.529067 281.831252 
L 337.707041 281.679185 
L 338.06299 280.665497 
L 338.240965 281.335228 
L 338.418939 280.65564 
L 338.774888 281.473335 
L 338.952862 281.549034 
L 339.130837 282.066613 
L 339.308811 280.277911 
L 339.486786 281.557333 
L 339.66476 281.657559 
L 340.020709 281.552387 
L 340.198683 281.280482 
L 340.376658 282.084939 
L 340.554632 279.666818 
L 340.910581 280.728085 
L 341.088555 282.772372 
L 341.26653 282.278302 
L 341.444504 280.322002 
L 341.622479 280.500926 
L 341.800453 281.473111 
L 341.978427 281.660979 
L 342.156402 280.793304 
L 342.334376 280.582664 
L 342.690325 281.43726 
L 342.8683 281.422137 
L 343.224248 280.411508 
L 343.402223 280.755307 
L 343.580197 281.836923 
L 343.936146 282.549609 
L 344.11412 281.853003 
L 344.292095 281.783204 
L 344.470069 281.346325 
L 344.648044 281.675357 
L 344.826018 280.914201 
L 345.003993 281.778466 
L 345.181967 280.127101 
L 345.359941 282.144715 
L 345.537916 281.704911 
L 345.71589 280.96684 
L 345.893865 281.607378 
L 346.071839 281.594232 
L 346.249813 280.932707 
L 346.427788 281.222454 
L 346.605762 280.600378 
L 346.783737 281.699696 
L 346.961711 280.954403 
L 347.31766 282.515093 
L 347.495634 280.8149 
L 347.673609 280.71959 
L 347.851583 281.281521 
L 348.029558 281.426541 
L 348.385506 282.802197 
L 348.563481 280.347779 
L 349.097404 282.838585 
L 349.453353 280.730709 
L 349.631327 282.233919 
L 349.809302 281.417004 
L 349.987276 282.486964 
L 350.165251 281.299859 
L 350.343225 281.993552 
L 350.521199 281.311776 
L 350.699174 282.023135 
L 350.877148 282.077651 
L 351.055123 282.457146 
L 351.411072 280.764979 
L 351.589046 280.487622 
L 351.944995 282.980221 
L 352.122969 281.824307 
L 352.300944 282.781946 
L 352.478918 281.176785 
L 352.656892 282.888727 
L 352.834867 282.530382 
L 353.190816 281.586601 
L 353.36879 283.510261 
L 353.546765 281.199369 
L 353.724739 281.217646 
L 354.080688 282.950757 
L 354.258662 280.896202 
L 354.436637 282.711414 
L 354.792585 281.476665 
L 354.97056 282.776083 
L 355.148534 281.702994 
L 355.326509 281.722427 
L 355.504483 283.112622 
L 355.682458 283.038884 
L 355.860432 279.959142 
L 356.216381 281.387397 
L 356.394355 281.494363 
L 356.57233 280.308984 
L 356.750304 283.179244 
L 356.928278 282.712973 
L 357.284227 279.578591 
L 357.640176 282.972262 
L 358.174099 282.077981 
L 358.352074 282.696071 
L 358.530048 281.083299 
L 358.708023 282.990726 
L 358.885997 282.33134 
L 359.063972 281.226952 
L 359.241946 283.465176 
L 359.41992 282.967152 
L 359.597895 283.799968 
L 359.775869 281.01385 
L 360.131818 282.802909 
L 360.309792 281.986871 
L 360.665741 282.368943 
L 360.843716 284.551834 
L 361.02169 281.267421 
L 361.199665 283.305287 
L 361.377639 282.309241 
L 361.555613 282.417671 
L 361.733588 283.230177 
L 361.911562 283.056577 
L 362.089537 283.777523 
L 362.267511 281.744528 
L 362.445485 282.166408 
L 362.62346 282.917799 
L 362.801434 281.163178 
L 362.979409 282.750503 
L 363.157383 283.300441 
L 363.335358 283.472105 
L 363.513332 281.092292 
L 363.691306 283.532107 
L 363.869281 282.419652 
L 364.047255 283.141742 
L 364.403204 281.435201 
L 364.759153 282.065264 
L 364.937127 282.620965 
L 365.115102 280.467181 
L 365.293076 282.24586 
L 365.649025 281.563296 
L 365.826999 281.602461 
L 366.004974 281.278005 
L 366.182948 280.700097 
L 366.360923 282.461759 
L 366.716871 282.743061 
L 366.894846 282.234672 
L 367.07282 283.738271 
L 367.250795 281.693095 
L 367.428769 281.686097 
L 367.606744 282.693588 
L 367.784718 281.879562 
L 368.140667 282.633885 
L 368.318641 281.933448 
L 368.496616 280.560151 
L 368.67459 281.328928 
L 369.030539 283.461479 
L 369.742437 281.947538 
L 369.920411 283.725762 
L 370.098385 283.24932 
L 370.454334 283.50513 
L 370.632309 283.465375 
L 370.810283 282.653212 
L 370.988257 283.097032 
L 371.166232 282.359989 
L 371.522181 283.741328 
L 371.700155 284.366749 
L 371.87813 284.335268 
L 372.056104 281.360674 
L 372.234078 282.563266 
L 372.412053 282.255871 
L 372.590027 282.484003 
L 372.768002 283.039313 
L 372.945976 282.814176 
L 373.12395 282.876605 
L 373.301925 283.29966 
L 373.479899 284.023214 
L 373.657874 282.89304 
L 373.835848 283.47969 
L 374.013823 283.62923 
L 374.191797 284.06349 
L 374.369771 282.929892 
L 374.547746 283.900399 
L 374.72572 283.666106 
L 374.903695 282.649221 
L 375.259643 283.834087 
L 375.437618 283.2624 
L 375.615592 284.370034 
L 375.793567 283.073803 
L 376.32749 284.7096 
L 376.505464 283.863925 
L 376.683439 281.899656 
L 376.861413 283.472069 
L 377.039388 282.736736 
L 377.217362 283.148799 
L 377.395336 282.742703 
L 377.573311 285.204973 
L 377.92926 282.940981 
L 378.107234 285.266188 
L 378.285209 281.97816 
L 378.463183 284.547888 
L 378.641157 284.427267 
L 378.819132 282.359858 
L 378.997106 282.684128 
L 379.175081 284.188588 
L 379.353055 283.476274 
L 379.531029 283.510588 
L 379.709004 282.690074 
L 380.064953 283.37759 
L 380.420902 285.306045 
L 380.598876 283.18485 
L 380.77685 283.746301 
L 380.954825 283.411864 
L 381.132799 283.425596 
L 381.310774 284.030195 
L 381.488748 283.227087 
L 381.666722 284.708197 
L 381.844697 285.214549 
L 382.200646 282.960121 
L 382.37862 284.494575 
L 382.556595 284.363897 
L 382.912543 283.648205 
L 383.090518 283.859668 
L 383.268492 284.391081 
L 383.446467 284.333082 
L 383.624441 283.176697 
L 383.802416 284.543801 
L 383.98039 284.549798 
L 384.158364 283.435471 
L 384.514313 284.415337 
L 384.692288 282.89239 
L 384.870262 284.82614 
L 385.048236 283.906829 
L 385.226211 284.118525 
L 385.58216 283.169197 
L 385.760134 284.830391 
L 385.938109 284.700537 
L 386.116083 284.751601 
L 386.294057 283.491774 
L 386.650006 284.135781 
L 386.827981 284.006493 
L 387.183929 284.778309 
L 387.361904 284.759136 
L 387.539878 284.118254 
L 387.717853 284.115404 
L 387.895827 284.633295 
L 388.073802 283.597642 
L 388.251776 283.565588 
L 388.42975 282.921614 
L 388.607725 283.709386 
L 388.785699 283.806593 
L 388.963674 285.986046 
L 389.141648 284.045613 
L 389.319622 283.830405 
L 389.853546 285.265401 
L 390.03152 283.98028 
L 390.209495 283.768025 
L 390.387469 282.574566 
L 390.565443 284.207719 
L 390.743418 284.067705 
L 390.921392 284.514483 
L 391.099367 283.346804 
L 391.277341 283.975056 
L 391.455315 283.533575 
L 391.63329 283.757573 
L 391.989239 283.538179 
L 392.167213 284.388223 
L 392.345188 284.376995 
L 392.523162 284.506952 
L 392.701136 282.881244 
L 393.057085 284.811461 
L 393.23506 282.278634 
L 393.413034 283.307092 
L 393.591008 283.484994 
L 393.768983 284.38948 
L 393.946957 283.62731 
L 394.124932 283.390653 
L 394.480881 284.189001 
L 394.658855 283.127687 
L 394.836829 284.211485 
L 395.014804 284.192521 
L 395.192778 284.983192 
L 395.370753 283.189087 
L 395.548727 285.389686 
L 395.904676 283.507247 
L 396.08265 284.84343 
L 396.260625 284.48281 
L 396.438599 285.802375 
L 396.616574 283.855766 
L 396.794548 284.497615 
L 396.972522 284.181521 
L 397.150497 285.032872 
L 397.328471 284.100963 
L 397.506446 286.330064 
L 397.68442 282.57743 
L 397.862394 285.0596 
L 398.040369 285.288416 
L 398.218343 283.904142 
L 398.396318 284.735268 
L 398.574292 281.782955 
L 398.752267 284.163235 
L 398.930241 284.27422 
L 399.108215 283.05935 
L 399.28619 284.12335 
L 399.464164 284.080598 
L 399.642139 282.767744 
L 399.820113 283.316072 
L 399.998087 285.677998 
L 400.176062 282.631117 
L 400.354036 285.521211 
L 400.709985 284.605937 
L 400.88796 284.579334 
L 401.065934 285.676626 
L 401.243908 284.382959 
L 401.421883 284.016487 
L 401.599857 286.294536 
L 401.777832 284.220873 
L 401.955806 284.559656 
L 402.311755 286.180376 
L 402.489729 285.571598 
L 402.667704 285.452328 
L 402.845678 286.268334 
L 403.023653 284.972479 
L 403.201627 285.45463 
L 403.557576 284.248911 
L 403.73555 284.264228 
L 403.913525 283.849092 
L 404.091499 284.084768 
L 404.269473 285.451851 
L 404.447448 284.920208 
L 404.625422 283.604209 
L 404.803397 285.64474 
L 405.159346 285.292915 
L 405.33732 286.10626 
L 405.515294 285.839082 
L 405.693269 284.767014 
L 405.871243 284.892017 
L 406.049218 285.340398 
L 406.227192 286.59877 
L 406.405166 286.519165 
L 406.583141 286.198353 
L 406.761115 286.878966 
L 406.93909 284.035155 
L 407.295039 287.028174 
L 407.473013 285.929321 
L 407.650987 283.161775 
L 408.006936 285.922084 
L 408.184911 286.719109 
L 408.718834 284.177243 
L 409.074783 285.809933 
L 409.252757 285.32316 
L 409.430732 285.636944 
L 409.608706 285.216137 
L 409.78668 285.164581 
L 409.964655 284.19883 
L 410.142629 285.20967 
L 410.320604 285.053834 
L 410.498578 285.11919 
L 410.676553 283.516966 
L 410.854527 286.737945 
L 411.032501 284.80222 
L 411.210476 287.025164 
L 411.38845 284.452434 
L 411.566425 286.304654 
L 411.744399 284.901101 
L 411.922373 285.087746 
L 412.100348 285.88557 
L 412.278322 285.305218 
L 412.456297 285.338651 
L 412.634271 285.924527 
L 412.812246 285.247434 
L 412.99022 285.209689 
L 413.168194 284.873394 
L 413.346169 283.954604 
L 413.524143 286.39793 
L 413.702118 285.062985 
L 413.880092 285.76926 
L 414.058066 284.856539 
L 414.236041 286.80086 
L 414.414015 285.425875 
L 414.59199 286.531501 
L 415.125913 284.30131 
L 415.303887 285.095765 
L 415.481862 284.944459 
L 415.659836 285.273015 
L 415.837811 285.924351 
L 416.015785 284.379424 
L 416.193759 284.23253 
L 416.549708 286.458738 
L 416.905657 284.766459 
L 417.083632 286.463487 
L 417.261606 285.086072 
L 417.43958 284.928697 
L 417.617555 284.463658 
L 417.795529 285.66926 
L 417.973504 285.347838 
L 418.151478 286.84376 
L 418.329452 286.55701 
L 418.507427 286.683163 
L 418.685401 286.293941 
L 418.863376 284.702946 
L 419.04135 285.868529 
L 419.219325 286.080803 
L 419.397299 287.045828 
L 419.575273 285.051841 
L 419.753248 287.260418 
L 420.109197 285.271809 
L 420.287171 286.208027 
L 420.465145 285.716431 
L 420.64312 286.703736 
L 420.821094 286.925999 
L 420.999069 286.132428 
L 421.177043 286.175603 
L 421.355018 285.997832 
L 421.532992 284.108405 
L 421.710966 283.908789 
L 421.888941 286.828313 
L 422.24489 283.07261 
L 422.422864 286.251901 
L 422.778813 285.030812 
L 423.134762 287.025369 
L 423.312736 284.26852 
L 423.490711 284.853769 
L 423.668685 286.675334 
L 424.024634 285.785104 
L 424.202608 286.873897 
L 424.380583 286.34733 
L 424.558557 286.998501 
L 424.736531 286.836016 
L 424.914506 287.270888 
L 425.09248 285.5456 
L 425.270455 287.16821 
L 425.626404 286.567594 
L 425.982352 286.554848 
L 426.160327 284.939467 
L 426.69425 287.256497 
L 427.050199 287.277306 
L 427.228173 286.097554 
L 427.584122 287.04041 
L 427.940071 286.377225 
L 428.118045 287.58 
L 428.473994 286.911292 
L 428.829943 287.478665 
L 429.007917 287.257884 
L 429.185892 287.261228 
L 429.541841 286.238524 
L 429.719815 284.606197 
L 430.253738 287.161793 
L 430.431713 286.92084 
L 430.609687 286.959928 
L 430.787662 287.134324 
L 430.965636 287.044187 
L 431.14361 285.973566 
L 431.677534 287.442857 
L 431.855508 287.195112 
L 432.033483 286.468158 
L 432.211457 286.769988 
L 432.211457 286.769988 
" clip-path="url(#p8cd8e50e4f)" style="fill: none; stroke: #e24a33; stroke-width: 1.5; stroke-linecap: square"/>
   </g>
   <g id="patch_3">
    <path d="M 58.652054 300.76 
L 58.652054 10.8 
" style="fill: none; stroke: #ffffff; stroke-linejoin: miter; stroke-linecap: square"/>
   </g>
   <g id="patch_4">
    <path d="M 450 300.76 
L 450 10.8 
" style="fill: none; stroke: #ffffff; stroke-linejoin: miter; stroke-linecap: square"/>
   </g>
   <g id="patch_5">
    <path d="M 58.652054 300.76 
L 450 300.76 
" style="fill: none; stroke: #ffffff; stroke-linejoin: miter; stroke-linecap: square"/>
   </g>
   <g id="patch_6">
    <path d="M 58.652054 10.8 
L 450 10.8 
" style="fill: none; stroke: #ffffff; stroke-linejoin: miter; stroke-linecap: square"/>
   </g>
  </g>
 </g>
 <defs>
  <clipPath id="p8cd8e50e4f">
   <rect x="58.652054" y="10.8" width="391.347946" height="289.96"/>
  </clipPath>
 </defs>
</svg>
