<?xml version="1.0" encoding="utf-8" standalone="no"?>
<!DOCTYPE svg PUBLIC "-//W3C//DTD SVG 1.1//EN"
  "http://www.w3.org/Graphics/SVG/1.1/DTD/svg11.dtd">
<svg xmlns:xlink="http://www.w3.org/1999/xlink" width="460.8pt" height="345.6pt" viewBox="0 0 460.8 345.6" xmlns="http://www.w3.org/2000/svg" version="1.1">
 <metadata>
  <rdf:RDF xmlns:dc="http://purl.org/dc/elements/1.1/" xmlns:cc="http://creativecommons.org/ns#" xmlns:rdf="http://www.w3.org/1999/02/22-rdf-syntax-ns#">
   <cc:Work>
    <dc:type rdf:resource="http://purl.org/dc/dcmitype/StillImage"/>
    <dc:date>2023-06-10T13:08:19.956979</dc:date>
    <dc:format>image/svg+xml</dc:format>
    <dc:creator>
     <cc:Agent>
      <dc:title>Matplotlib v3.6.3, https://matplotlib.org/</dc:title>
     </cc:Agent>
    </dc:creator>
   </cc:Work>
  </rdf:RDF>
 </metadata>
 <defs>
  <style type="text/css">*{stroke-linejoin: round; stroke-linecap: butt}</style>
 </defs>
 <g id="figure_1">
  <g id="patch_1">
   <path d="M 0 345.6 
L 460.8 345.6 
L 460.8 0 
L 0 0 
L 0 345.6 
z
" style="fill: none"/>
  </g>
  <g id="axes_1">
   <g id="patch_2">
    <path d="M 58.652054 300.76 
L 450 300.76 
L 450 10.8 
L 58.652054 10.8 
L 58.652054 300.76 
z
" style="fill: none"/>
   </g>
   <g id="matplotlib.axis_1">
    <g id="xtick_1">
     <g id="line2d_1">
      <path d="M 76.440597 300.76 
L 76.440597 10.8 
" clip-path="url(#pe3cc694dd3)" style="fill: none; stroke: #ffffff; stroke-width: 0.8; stroke-linecap: square"/>
     </g>
     <g id="line2d_2">
      <defs>
       <path id="m1a566c2ef6" d="M 0 0 
L 0 3.5 
" style="stroke: #555555; stroke-width: 0.8"/>
      </defs>
      <g>
       <use xlink:href="#m1a566c2ef6" x="76.440597" y="300.76" style="fill: #555555; stroke: #555555; stroke-width: 0.8"/>
      </g>
     </g>
     <g id="text_1">
      <!-- 0 -->
      <g style="fill: #555555" transform="translate(73.259347 315.358437) scale(0.1 -0.1)">
       <defs>
        <path id="DejaVuSans-30" d="M 2034 4250 
Q 1547 4250 1301 3770 
Q 1056 3291 1056 2328 
Q 1056 1369 1301 889 
Q 1547 409 2034 409 
Q 2525 409 2770 889 
Q 3016 1369 3016 2328 
Q 3016 3291 2770 3770 
Q 2525 4250 2034 4250 
z
M 2034 4750 
Q 2819 4750 3233 4129 
Q 3647 3509 3647 2328 
Q 3647 1150 3233 529 
Q 2819 -91 2034 -91 
Q 1250 -91 836 529 
Q 422 1150 422 2328 
Q 422 3509 836 4129 
Q 1250 4750 2034 4750 
z
" transform="scale(0.015625)"/>
       </defs>
       <use xlink:href="#DejaVuSans-30"/>
      </g>
     </g>
    </g>
    <g id="xtick_2">
     <g id="line2d_3">
      <path d="M 120.934201 300.76 
L 120.934201 10.8 
" clip-path="url(#pe3cc694dd3)" style="fill: none; stroke: #ffffff; stroke-width: 0.8; stroke-linecap: square"/>
     </g>
     <g id="line2d_4">
      <g>
       <use xlink:href="#m1a566c2ef6" x="120.934201" y="300.76" style="fill: #555555; stroke: #555555; stroke-width: 0.8"/>
      </g>
     </g>
     <g id="text_2">
      <!-- 250 -->
      <g style="fill: #555555" transform="translate(111.390451 315.358437) scale(0.1 -0.1)">
       <defs>
        <path id="DejaVuSans-32" d="M 1228 531 
L 3431 531 
L 3431 0 
L 469 0 
L 469 531 
Q 828 903 1448 1529 
Q 2069 2156 2228 2338 
Q 2531 2678 2651 2914 
Q 2772 3150 2772 3378 
Q 2772 3750 2511 3984 
Q 2250 4219 1831 4219 
Q 1534 4219 1204 4116 
Q 875 4013 500 3803 
L 500 4441 
Q 881 4594 1212 4672 
Q 1544 4750 1819 4750 
Q 2544 4750 2975 4387 
Q 3406 4025 3406 3419 
Q 3406 3131 3298 2873 
Q 3191 2616 2906 2266 
Q 2828 2175 2409 1742 
Q 1991 1309 1228 531 
z
" transform="scale(0.015625)"/>
        <path id="DejaVuSans-35" d="M 691 4666 
L 3169 4666 
L 3169 4134 
L 1269 4134 
L 1269 2991 
Q 1406 3038 1543 3061 
Q 1681 3084 1819 3084 
Q 2600 3084 3056 2656 
Q 3513 2228 3513 1497 
Q 3513 744 3044 326 
Q 2575 -91 1722 -91 
Q 1428 -91 1123 -41 
Q 819 9 494 109 
L 494 744 
Q 775 591 1075 516 
Q 1375 441 1709 441 
Q 2250 441 2565 725 
Q 2881 1009 2881 1497 
Q 2881 1984 2565 2268 
Q 2250 2553 1709 2553 
Q 1456 2553 1204 2497 
Q 953 2441 691 2322 
L 691 4666 
z
" transform="scale(0.015625)"/>
       </defs>
       <use xlink:href="#DejaVuSans-32"/>
       <use xlink:href="#DejaVuSans-35" x="63.623047"/>
       <use xlink:href="#DejaVuSans-30" x="127.246094"/>
      </g>
     </g>
    </g>
    <g id="xtick_3">
     <g id="line2d_5">
      <path d="M 165.427806 300.76 
L 165.427806 10.8 
" clip-path="url(#pe3cc694dd3)" style="fill: none; stroke: #ffffff; stroke-width: 0.8; stroke-linecap: square"/>
     </g>
     <g id="line2d_6">
      <g>
       <use xlink:href="#m1a566c2ef6" x="165.427806" y="300.76" style="fill: #555555; stroke: #555555; stroke-width: 0.8"/>
      </g>
     </g>
     <g id="text_3">
      <!-- 500 -->
      <g style="fill: #555555" transform="translate(155.884056 315.358437) scale(0.1 -0.1)">
       <use xlink:href="#DejaVuSans-35"/>
       <use xlink:href="#DejaVuSans-30" x="63.623047"/>
       <use xlink:href="#DejaVuSans-30" x="127.246094"/>
      </g>
     </g>
    </g>
    <g id="xtick_4">
     <g id="line2d_7">
      <path d="M 209.92141 300.76 
L 209.92141 10.8 
" clip-path="url(#pe3cc694dd3)" style="fill: none; stroke: #ffffff; stroke-width: 0.8; stroke-linecap: square"/>
     </g>
     <g id="line2d_8">
      <g>
       <use xlink:href="#m1a566c2ef6" x="209.92141" y="300.76" style="fill: #555555; stroke: #555555; stroke-width: 0.8"/>
      </g>
     </g>
     <g id="text_4">
      <!-- 750 -->
      <g style="fill: #555555" transform="translate(200.37766 315.358437) scale(0.1 -0.1)">
       <defs>
        <path id="DejaVuSans-37" d="M 525 4666 
L 3525 4666 
L 3525 4397 
L 1831 0 
L 1172 0 
L 2766 4134 
L 525 4134 
L 525 4666 
z
" transform="scale(0.015625)"/>
       </defs>
       <use xlink:href="#DejaVuSans-37"/>
       <use xlink:href="#DejaVuSans-35" x="63.623047"/>
       <use xlink:href="#DejaVuSans-30" x="127.246094"/>
      </g>
     </g>
    </g>
    <g id="xtick_5">
     <g id="line2d_9">
      <path d="M 254.415014 300.76 
L 254.415014 10.8 
" clip-path="url(#pe3cc694dd3)" style="fill: none; stroke: #ffffff; stroke-width: 0.8; stroke-linecap: square"/>
     </g>
     <g id="line2d_10">
      <g>
       <use xlink:href="#m1a566c2ef6" x="254.415014" y="300.76" style="fill: #555555; stroke: #555555; stroke-width: 0.8"/>
      </g>
     </g>
     <g id="text_5">
      <!-- 1000 -->
      <g style="fill: #555555" transform="translate(241.690014 315.358437) scale(0.1 -0.1)">
       <defs>
        <path id="DejaVuSans-31" d="M 794 531 
L 1825 531 
L 1825 4091 
L 703 3866 
L 703 4441 
L 1819 4666 
L 2450 4666 
L 2450 531 
L 3481 531 
L 3481 0 
L 794 0 
L 794 531 
z
" transform="scale(0.015625)"/>
       </defs>
       <use xlink:href="#DejaVuSans-31"/>
       <use xlink:href="#DejaVuSans-30" x="63.623047"/>
       <use xlink:href="#DejaVuSans-30" x="127.246094"/>
       <use xlink:href="#DejaVuSans-30" x="190.869141"/>
      </g>
     </g>
    </g>
    <g id="xtick_6">
     <g id="line2d_11">
      <path d="M 298.908618 300.76 
L 298.908618 10.8 
" clip-path="url(#pe3cc694dd3)" style="fill: none; stroke: #ffffff; stroke-width: 0.8; stroke-linecap: square"/>
     </g>
     <g id="line2d_12">
      <g>
       <use xlink:href="#m1a566c2ef6" x="298.908618" y="300.76" style="fill: #555555; stroke: #555555; stroke-width: 0.8"/>
      </g>
     </g>
     <g id="text_6">
      <!-- 1250 -->
      <g style="fill: #555555" transform="translate(286.183618 315.358437) scale(0.1 -0.1)">
       <use xlink:href="#DejaVuSans-31"/>
       <use xlink:href="#DejaVuSans-32" x="63.623047"/>
       <use xlink:href="#DejaVuSans-35" x="127.246094"/>
       <use xlink:href="#DejaVuSans-30" x="190.869141"/>
      </g>
     </g>
    </g>
    <g id="xtick_7">
     <g id="line2d_13">
      <path d="M 343.402223 300.76 
L 343.402223 10.8 
" clip-path="url(#pe3cc694dd3)" style="fill: none; stroke: #ffffff; stroke-width: 0.8; stroke-linecap: square"/>
     </g>
     <g id="line2d_14">
      <g>
       <use xlink:href="#m1a566c2ef6" x="343.402223" y="300.76" style="fill: #555555; stroke: #555555; stroke-width: 0.8"/>
      </g>
     </g>
     <g id="text_7">
      <!-- 1500 -->
      <g style="fill: #555555" transform="translate(330.677223 315.358437) scale(0.1 -0.1)">
       <use xlink:href="#DejaVuSans-31"/>
       <use xlink:href="#DejaVuSans-35" x="63.623047"/>
       <use xlink:href="#DejaVuSans-30" x="127.246094"/>
       <use xlink:href="#DejaVuSans-30" x="190.869141"/>
      </g>
     </g>
    </g>
    <g id="xtick_8">
     <g id="line2d_15">
      <path d="M 387.895827 300.76 
L 387.895827 10.8 
" clip-path="url(#pe3cc694dd3)" style="fill: none; stroke: #ffffff; stroke-width: 0.8; stroke-linecap: square"/>
     </g>
     <g id="line2d_16">
      <g>
       <use xlink:href="#m1a566c2ef6" x="387.895827" y="300.76" style="fill: #555555; stroke: #555555; stroke-width: 0.8"/>
      </g>
     </g>
     <g id="text_8">
      <!-- 1750 -->
      <g style="fill: #555555" transform="translate(375.170827 315.358437) scale(0.1 -0.1)">
       <use xlink:href="#DejaVuSans-31"/>
       <use xlink:href="#DejaVuSans-37" x="63.623047"/>
       <use xlink:href="#DejaVuSans-35" x="127.246094"/>
       <use xlink:href="#DejaVuSans-30" x="190.869141"/>
      </g>
     </g>
    </g>
    <g id="xtick_9">
     <g id="line2d_17">
      <path d="M 432.389431 300.76 
L 432.389431 10.8 
" clip-path="url(#pe3cc694dd3)" style="fill: none; stroke: #ffffff; stroke-width: 0.8; stroke-linecap: square"/>
     </g>
     <g id="line2d_18">
      <g>
       <use xlink:href="#m1a566c2ef6" x="432.389431" y="300.76" style="fill: #555555; stroke: #555555; stroke-width: 0.8"/>
      </g>
     </g>
     <g id="text_9">
      <!-- 2000 -->
      <g style="fill: #555555" transform="translate(419.664431 315.358437) scale(0.1 -0.1)">
       <use xlink:href="#DejaVuSans-32"/>
       <use xlink:href="#DejaVuSans-30" x="63.623047"/>
       <use xlink:href="#DejaVuSans-30" x="127.246094"/>
       <use xlink:href="#DejaVuSans-30" x="190.869141"/>
      </g>
     </g>
    </g>
    <g id="text_10">
     <!-- epoch -->
     <g style="fill: #555555" transform="translate(236.052277 330.55625) scale(0.12 -0.12)">
      <defs>
       <path id="DejaVuSans-65" d="M 3597 1894 
L 3597 1613 
L 953 1613 
Q 991 1019 1311 708 
Q 1631 397 2203 397 
Q 2534 397 2845 478 
Q 3156 559 3463 722 
L 3463 178 
Q 3153 47 2828 -22 
Q 2503 -91 2169 -91 
Q 1331 -91 842 396 
Q 353 884 353 1716 
Q 353 2575 817 3079 
Q 1281 3584 2069 3584 
Q 2775 3584 3186 3129 
Q 3597 2675 3597 1894 
z
M 3022 2063 
Q 3016 2534 2758 2815 
Q 2500 3097 2075 3097 
Q 1594 3097 1305 2825 
Q 1016 2553 972 2059 
L 3022 2063 
z
" transform="scale(0.015625)"/>
       <path id="DejaVuSans-70" d="M 1159 525 
L 1159 -1331 
L 581 -1331 
L 581 3500 
L 1159 3500 
L 1159 2969 
Q 1341 3281 1617 3432 
Q 1894 3584 2278 3584 
Q 2916 3584 3314 3078 
Q 3713 2572 3713 1747 
Q 3713 922 3314 415 
Q 2916 -91 2278 -91 
Q 1894 -91 1617 61 
Q 1341 213 1159 525 
z
M 3116 1747 
Q 3116 2381 2855 2742 
Q 2594 3103 2138 3103 
Q 1681 3103 1420 2742 
Q 1159 2381 1159 1747 
Q 1159 1113 1420 752 
Q 1681 391 2138 391 
Q 2594 391 2855 752 
Q 3116 1113 3116 1747 
z
" transform="scale(0.015625)"/>
       <path id="DejaVuSans-6f" d="M 1959 3097 
Q 1497 3097 1228 2736 
Q 959 2375 959 1747 
Q 959 1119 1226 758 
Q 1494 397 1959 397 
Q 2419 397 2687 759 
Q 2956 1122 2956 1747 
Q 2956 2369 2687 2733 
Q 2419 3097 1959 3097 
z
M 1959 3584 
Q 2709 3584 3137 3096 
Q 3566 2609 3566 1747 
Q 3566 888 3137 398 
Q 2709 -91 1959 -91 
Q 1206 -91 779 398 
Q 353 888 353 1747 
Q 353 2609 779 3096 
Q 1206 3584 1959 3584 
z
" transform="scale(0.015625)"/>
       <path id="DejaVuSans-63" d="M 3122 3366 
L 3122 2828 
Q 2878 2963 2633 3030 
Q 2388 3097 2138 3097 
Q 1578 3097 1268 2742 
Q 959 2388 959 1747 
Q 959 1106 1268 751 
Q 1578 397 2138 397 
Q 2388 397 2633 464 
Q 2878 531 3122 666 
L 3122 134 
Q 2881 22 2623 -34 
Q 2366 -91 2075 -91 
Q 1284 -91 818 406 
Q 353 903 353 1747 
Q 353 2603 823 3093 
Q 1294 3584 2113 3584 
Q 2378 3584 2631 3529 
Q 2884 3475 3122 3366 
z
" transform="scale(0.015625)"/>
       <path id="DejaVuSans-68" d="M 3513 2113 
L 3513 0 
L 2938 0 
L 2938 2094 
Q 2938 2591 2744 2837 
Q 2550 3084 2163 3084 
Q 1697 3084 1428 2787 
Q 1159 2491 1159 1978 
L 1159 0 
L 581 0 
L 581 4863 
L 1159 4863 
L 1159 2956 
Q 1366 3272 1645 3428 
Q 1925 3584 2291 3584 
Q 2894 3584 3203 3211 
Q 3513 2838 3513 2113 
z
" transform="scale(0.015625)"/>
      </defs>
      <use xlink:href="#DejaVuSans-65"/>
      <use xlink:href="#DejaVuSans-70" x="61.523438"/>
      <use xlink:href="#DejaVuSans-6f" x="125"/>
      <use xlink:href="#DejaVuSans-63" x="186.181641"/>
      <use xlink:href="#DejaVuSans-68" x="241.162109"/>
     </g>
    </g>
   </g>
   <g id="matplotlib.axis_2">
    <g id="ytick_1">
     <g id="line2d_19">
      <path d="M 58.652054 280.343131 
L 450 280.343131 
" clip-path="url(#pe3cc694dd3)" style="fill: none; stroke: #ffffff; stroke-width: 0.8; stroke-linecap: square"/>
     </g>
     <g id="line2d_20">
      <defs>
       <path id="m7c199b03cc" d="M 0 0 
L -3.5 0 
" style="stroke: #555555; stroke-width: 0.8"/>
      </defs>
      <g>
       <use xlink:href="#m7c199b03cc" x="58.652054" y="280.343131" style="fill: #555555; stroke: #555555; stroke-width: 0.8"/>
      </g>
     </g>
     <g id="text_11">
      <!-- $\mathdefault{10^{-2}}$ -->
      <g style="fill: #555555" transform="translate(28.152054 284.14235) scale(0.1 -0.1)">
       <defs>
        <path id="DejaVuSans-2212" d="M 678 2272 
L 4684 2272 
L 4684 1741 
L 678 1741 
L 678 2272 
z
" transform="scale(0.015625)"/>
       </defs>
       <use xlink:href="#DejaVuSans-31" transform="translate(0 0.765625)"/>
       <use xlink:href="#DejaVuSans-30" transform="translate(63.623047 0.765625)"/>
       <use xlink:href="#DejaVuSans-2212" transform="translate(128.203125 39.046875) scale(0.7)"/>
       <use xlink:href="#DejaVuSans-32" transform="translate(186.855469 39.046875) scale(0.7)"/>
      </g>
     </g>
    </g>
    <g id="ytick_2">
     <g id="line2d_21">
      <path d="M 58.652054 180.752562 
L 450 180.752562 
" clip-path="url(#pe3cc694dd3)" style="fill: none; stroke: #ffffff; stroke-width: 0.8; stroke-linecap: square"/>
     </g>
     <g id="line2d_22">
      <g>
       <use xlink:href="#m7c199b03cc" x="58.652054" y="180.752562" style="fill: #555555; stroke: #555555; stroke-width: 0.8"/>
      </g>
     </g>
     <g id="text_12">
      <!-- $\mathdefault{10^{-1}}$ -->
      <g style="fill: #555555" transform="translate(28.152054 184.551781) scale(0.1 -0.1)">
       <use xlink:href="#DejaVuSans-31" transform="translate(0 0.684375)"/>
       <use xlink:href="#DejaVuSans-30" transform="translate(63.623047 0.684375)"/>
       <use xlink:href="#DejaVuSans-2212" transform="translate(128.203125 38.965625) scale(0.7)"/>
       <use xlink:href="#DejaVuSans-31" transform="translate(186.855469 38.965625) scale(0.7)"/>
      </g>
     </g>
    </g>
    <g id="ytick_3">
     <g id="line2d_23">
      <path d="M 58.652054 81.161993 
L 450 81.161993 
" clip-path="url(#pe3cc694dd3)" style="fill: none; stroke: #ffffff; stroke-width: 0.8; stroke-linecap: square"/>
     </g>
     <g id="line2d_24">
      <g>
       <use xlink:href="#m7c199b03cc" x="58.652054" y="81.161993" style="fill: #555555; stroke: #555555; stroke-width: 0.8"/>
      </g>
     </g>
     <g id="text_13">
      <!-- $\mathdefault{10^{0}}$ -->
      <g style="fill: #555555" transform="translate(34.052054 84.961212) scale(0.1 -0.1)">
       <use xlink:href="#DejaVuSans-31" transform="translate(0 0.765625)"/>
       <use xlink:href="#DejaVuSans-30" transform="translate(63.623047 0.765625)"/>
       <use xlink:href="#DejaVuSans-30" transform="translate(128.203125 39.046875) scale(0.7)"/>
      </g>
     </g>
    </g>
    <g id="ytick_4">
     <g id="line2d_25">
      <defs>
       <path id="m91c2508152" d="M 0 0 
L -2 0 
" style="stroke: #555555; stroke-width: 0.6"/>
      </defs>
      <g>
       <use xlink:href="#m91c2508152" x="58.652054" y="295.769906" style="fill: #555555; stroke: #555555; stroke-width: 0.6"/>
      </g>
     </g>
    </g>
    <g id="ytick_5">
     <g id="line2d_26">
      <g>
       <use xlink:href="#m91c2508152" x="58.652054" y="289.994455" style="fill: #555555; stroke: #555555; stroke-width: 0.6"/>
      </g>
     </g>
    </g>
    <g id="ytick_6">
     <g id="line2d_27">
      <g>
       <use xlink:href="#m91c2508152" x="58.652054" y="284.900146" style="fill: #555555; stroke: #555555; stroke-width: 0.6"/>
      </g>
     </g>
    </g>
    <g id="ytick_7">
     <g id="line2d_28">
      <g>
       <use xlink:href="#m91c2508152" x="58.652054" y="250.363383" style="fill: #555555; stroke: #555555; stroke-width: 0.6"/>
      </g>
     </g>
    </g>
    <g id="ytick_8">
     <g id="line2d_29">
      <g>
       <use xlink:href="#m91c2508152" x="58.652054" y="232.826354" style="fill: #555555; stroke: #555555; stroke-width: 0.6"/>
      </g>
     </g>
    </g>
    <g id="ytick_9">
     <g id="line2d_30">
      <g>
       <use xlink:href="#m91c2508152" x="58.652054" y="220.383634" style="fill: #555555; stroke: #555555; stroke-width: 0.6"/>
      </g>
     </g>
    </g>
    <g id="ytick_10">
     <g id="line2d_31">
      <g>
       <use xlink:href="#m91c2508152" x="58.652054" y="210.732311" style="fill: #555555; stroke: #555555; stroke-width: 0.6"/>
      </g>
     </g>
    </g>
    <g id="ytick_11">
     <g id="line2d_32">
      <g>
       <use xlink:href="#m91c2508152" x="58.652054" y="202.846606" style="fill: #555555; stroke: #555555; stroke-width: 0.6"/>
      </g>
     </g>
    </g>
    <g id="ytick_12">
     <g id="line2d_33">
      <g>
       <use xlink:href="#m91c2508152" x="58.652054" y="196.179337" style="fill: #555555; stroke: #555555; stroke-width: 0.6"/>
      </g>
     </g>
    </g>
    <g id="ytick_13">
     <g id="line2d_34">
      <g>
       <use xlink:href="#m91c2508152" x="58.652054" y="190.403886" style="fill: #555555; stroke: #555555; stroke-width: 0.6"/>
      </g>
     </g>
    </g>
    <g id="ytick_14">
     <g id="line2d_35">
      <g>
       <use xlink:href="#m91c2508152" x="58.652054" y="185.309577" style="fill: #555555; stroke: #555555; stroke-width: 0.6"/>
      </g>
     </g>
    </g>
    <g id="ytick_15">
     <g id="line2d_36">
      <g>
       <use xlink:href="#m91c2508152" x="58.652054" y="150.772814" style="fill: #555555; stroke: #555555; stroke-width: 0.6"/>
      </g>
     </g>
    </g>
    <g id="ytick_16">
     <g id="line2d_37">
      <g>
       <use xlink:href="#m91c2508152" x="58.652054" y="133.235785" style="fill: #555555; stroke: #555555; stroke-width: 0.6"/>
      </g>
     </g>
    </g>
    <g id="ytick_17">
     <g id="line2d_38">
      <g>
       <use xlink:href="#m91c2508152" x="58.652054" y="120.793065" style="fill: #555555; stroke: #555555; stroke-width: 0.6"/>
      </g>
     </g>
    </g>
    <g id="ytick_18">
     <g id="line2d_39">
      <g>
       <use xlink:href="#m91c2508152" x="58.652054" y="111.141742" style="fill: #555555; stroke: #555555; stroke-width: 0.6"/>
      </g>
     </g>
    </g>
    <g id="ytick_19">
     <g id="line2d_40">
      <g>
       <use xlink:href="#m91c2508152" x="58.652054" y="103.256037" style="fill: #555555; stroke: #555555; stroke-width: 0.6"/>
      </g>
     </g>
    </g>
    <g id="ytick_20">
     <g id="line2d_41">
      <g>
       <use xlink:href="#m91c2508152" x="58.652054" y="96.588768" style="fill: #555555; stroke: #555555; stroke-width: 0.6"/>
      </g>
     </g>
    </g>
    <g id="ytick_21">
     <g id="line2d_42">
      <g>
       <use xlink:href="#m91c2508152" x="58.652054" y="90.813317" style="fill: #555555; stroke: #555555; stroke-width: 0.6"/>
      </g>
     </g>
    </g>
    <g id="ytick_22">
     <g id="line2d_43">
      <g>
       <use xlink:href="#m91c2508152" x="58.652054" y="85.719008" style="fill: #555555; stroke: #555555; stroke-width: 0.6"/>
      </g>
     </g>
    </g>
    <g id="ytick_23">
     <g id="line2d_44">
      <g>
       <use xlink:href="#m91c2508152" x="58.652054" y="51.182245" style="fill: #555555; stroke: #555555; stroke-width: 0.6"/>
      </g>
     </g>
    </g>
    <g id="ytick_24">
     <g id="line2d_45">
      <g>
       <use xlink:href="#m91c2508152" x="58.652054" y="33.645216" style="fill: #555555; stroke: #555555; stroke-width: 0.6"/>
      </g>
     </g>
    </g>
    <g id="ytick_25">
     <g id="line2d_46">
      <g>
       <use xlink:href="#m91c2508152" x="58.652054" y="21.202496" style="fill: #555555; stroke: #555555; stroke-width: 0.6"/>
      </g>
     </g>
    </g>
    <g id="ytick_26">
     <g id="line2d_47">
      <g>
       <use xlink:href="#m91c2508152" x="58.652054" y="11.551173" style="fill: #555555; stroke: #555555; stroke-width: 0.6"/>
      </g>
     </g>
    </g>
    <g id="text_14">
     <!-- log(loss) -->
     <g style="fill: #555555" transform="translate(21.656429 181.198437) rotate(-90) scale(0.12 -0.12)">
      <defs>
       <path id="DejaVuSans-6c" d="M 603 4863 
L 1178 4863 
L 1178 0 
L 603 0 
L 603 4863 
z
" transform="scale(0.015625)"/>
       <path id="DejaVuSans-67" d="M 2906 1791 
Q 2906 2416 2648 2759 
Q 2391 3103 1925 3103 
Q 1463 3103 1205 2759 
Q 947 2416 947 1791 
Q 947 1169 1205 825 
Q 1463 481 1925 481 
Q 2391 481 2648 825 
Q 2906 1169 2906 1791 
z
M 3481 434 
Q 3481 -459 3084 -895 
Q 2688 -1331 1869 -1331 
Q 1566 -1331 1297 -1286 
Q 1028 -1241 775 -1147 
L 775 -588 
Q 1028 -725 1275 -790 
Q 1522 -856 1778 -856 
Q 2344 -856 2625 -561 
Q 2906 -266 2906 331 
L 2906 616 
Q 2728 306 2450 153 
Q 2172 0 1784 0 
Q 1141 0 747 490 
Q 353 981 353 1791 
Q 353 2603 747 3093 
Q 1141 3584 1784 3584 
Q 2172 3584 2450 3431 
Q 2728 3278 2906 2969 
L 2906 3500 
L 3481 3500 
L 3481 434 
z
" transform="scale(0.015625)"/>
       <path id="DejaVuSans-28" d="M 1984 4856 
Q 1566 4138 1362 3434 
Q 1159 2731 1159 2009 
Q 1159 1288 1364 580 
Q 1569 -128 1984 -844 
L 1484 -844 
Q 1016 -109 783 600 
Q 550 1309 550 2009 
Q 550 2706 781 3412 
Q 1013 4119 1484 4856 
L 1984 4856 
z
" transform="scale(0.015625)"/>
       <path id="DejaVuSans-73" d="M 2834 3397 
L 2834 2853 
Q 2591 2978 2328 3040 
Q 2066 3103 1784 3103 
Q 1356 3103 1142 2972 
Q 928 2841 928 2578 
Q 928 2378 1081 2264 
Q 1234 2150 1697 2047 
L 1894 2003 
Q 2506 1872 2764 1633 
Q 3022 1394 3022 966 
Q 3022 478 2636 193 
Q 2250 -91 1575 -91 
Q 1294 -91 989 -36 
Q 684 19 347 128 
L 347 722 
Q 666 556 975 473 
Q 1284 391 1588 391 
Q 1994 391 2212 530 
Q 2431 669 2431 922 
Q 2431 1156 2273 1281 
Q 2116 1406 1581 1522 
L 1381 1569 
Q 847 1681 609 1914 
Q 372 2147 372 2553 
Q 372 3047 722 3315 
Q 1072 3584 1716 3584 
Q 2034 3584 2315 3537 
Q 2597 3491 2834 3397 
z
" transform="scale(0.015625)"/>
       <path id="DejaVuSans-29" d="M 513 4856 
L 1013 4856 
Q 1481 4119 1714 3412 
Q 1947 2706 1947 2009 
Q 1947 1309 1714 600 
Q 1481 -109 1013 -844 
L 513 -844 
Q 928 -128 1133 580 
Q 1338 1288 1338 2009 
Q 1338 2731 1133 3434 
Q 928 4138 513 4856 
z
" transform="scale(0.015625)"/>
      </defs>
      <use xlink:href="#DejaVuSans-6c"/>
      <use xlink:href="#DejaVuSans-6f" x="27.783203"/>
      <use xlink:href="#DejaVuSans-67" x="88.964844"/>
      <use xlink:href="#DejaVuSans-28" x="152.441406"/>
      <use xlink:href="#DejaVuSans-6c" x="191.455078"/>
      <use xlink:href="#DejaVuSans-6f" x="219.238281"/>
      <use xlink:href="#DejaVuSans-73" x="280.419922"/>
      <use xlink:href="#DejaVuSans-73" x="332.519531"/>
      <use xlink:href="#DejaVuSans-29" x="384.619141"/>
     </g>
    </g>
   </g>
   <g id="line2d_48">
    <path d="M 76.440597 23.98 
L 77.152495 183.797188 
L 77.330469 188.775011 
L 77.864392 183.118788 
L 78.042367 180.792723 
L 78.220341 180.113172 
L 78.398316 178.003629 
L 78.57629 177.944673 
L 78.754264 177.038159 
L 78.932239 177.698387 
L 79.110213 176.905741 
L 79.466162 176.782514 
L 79.644136 177.569079 
L 79.822111 177.732821 
L 80.17806 179.08061 
L 80.356034 179.686783 
L 80.534009 179.668963 
L 80.889957 182.195272 
L 81.245906 183.584449 
L 81.423881 183.99364 
L 81.779829 187.002015 
L 81.957804 187.148784 
L 82.491727 191.036528 
L 82.669702 191.735894 
L 83.02565 194.249678 
L 83.559574 196.421757 
L 83.737548 196.733845 
L 84.271471 199.437158 
L 84.449446 200.187436 
L 84.62742 200.329864 
L 85.161343 202.572797 
L 85.339318 202.993948 
L 85.695267 205.292179 
L 85.873241 205.145584 
L 86.051215 206.055661 
L 86.22919 206.285739 
L 86.941088 208.287382 
L 87.119062 208.336266 
L 87.297036 209.779006 
L 87.475011 210.081612 
L 88.008934 211.556941 
L 88.542857 212.917736 
L 88.720832 212.631819 
L 89.254755 215.063459 
L 89.432729 214.777208 
L 89.610704 215.959349 
L 89.788678 215.494956 
L 90.322601 217.433278 
L 90.500576 216.507792 
L 90.67855 217.47838 
L 90.856525 217.009497 
L 91.212474 219.187775 
L 91.390448 218.157526 
L 91.568422 219.243384 
L 92.102346 219.950955 
L 92.28032 220.82741 
L 92.458294 220.727855 
L 92.636269 220.248967 
L 92.814243 220.406581 
L 92.992218 221.455396 
L 93.348167 221.617858 
L 93.526141 221.413385 
L 93.704115 222.826819 
L 93.88209 222.695763 
L 94.060064 222.863997 
L 94.238039 222.727475 
L 94.416013 223.483319 
L 94.593987 223.293034 
L 94.771962 223.420177 
L 94.949936 222.8875 
L 95.127911 223.083804 
L 95.305885 224.847165 
L 95.48386 223.563156 
L 95.839808 225.178452 
L 96.195757 224.562151 
L 96.373732 225.311268 
L 96.551706 225.354816 
L 96.72968 225.631397 
L 96.907655 226.652193 
L 97.263604 226.98801 
L 97.441578 226.617982 
L 97.619553 226.859403 
L 97.797527 226.018527 
L 97.975501 226.256579 
L 98.153476 227.821665 
L 98.33145 227.717036 
L 98.509425 227.188852 
L 98.687399 228.330116 
L 98.865373 228.696876 
L 99.221322 227.944337 
L 99.399297 229.492804 
L 99.577271 229.3076 
L 99.755246 228.500811 
L 100.111194 229.547879 
L 100.289169 229.56749 
L 100.467143 228.996952 
L 100.645118 228.900588 
L 100.823092 230.134741 
L 101.179041 230.092137 
L 101.357015 229.854149 
L 101.53499 229.400326 
L 101.712964 231.276886 
L 102.068913 230.174144 
L 102.246887 230.928846 
L 102.424862 230.295279 
L 102.602836 230.629986 
L 102.780811 231.772323 
L 102.958785 230.722217 
L 103.136759 230.726903 
L 103.492708 231.684177 
L 103.848657 231.856936 
L 104.204606 231.466344 
L 104.38258 231.739244 
L 104.738529 233.32792 
L 104.916504 232.244731 
L 105.094478 232.77647 
L 105.272453 232.860675 
L 105.450427 232.618374 
L 105.98435 233.711217 
L 106.162325 233.874616 
L 106.340299 233.508544 
L 106.518273 233.968835 
L 106.696248 233.888991 
L 107.052197 235.096257 
L 107.408146 233.962174 
L 107.58612 234.006875 
L 107.764094 234.625153 
L 107.942069 234.771296 
L 108.120043 234.265295 
L 108.298018 235.582989 
L 108.475992 234.463764 
L 108.653966 235.196398 
L 108.831941 235.418614 
L 109.18789 236.377875 
L 109.365864 236.521607 
L 109.543839 235.569759 
L 109.721813 235.373621 
L 109.899787 236.328054 
L 110.077762 235.599443 
L 110.255736 235.923379 
L 110.433711 235.627409 
L 110.611685 236.170387 
L 110.967634 236.021763 
L 111.323583 236.096589 
L 111.679532 235.817946 
L 112.03548 236.542209 
L 112.213455 236.675219 
L 112.391429 237.405591 
L 112.747378 237.388327 
L 112.925352 236.6341 
L 113.281301 237.772523 
L 113.459276 237.090962 
L 113.63725 237.642569 
L 113.815225 236.955295 
L 113.993199 237.226766 
L 114.171173 237.999315 
L 114.349148 237.107787 
L 114.527122 238.137405 
L 114.705097 237.836232 
L 114.883071 237.773179 
L 115.061045 238.879058 
L 115.23902 238.226615 
L 115.594969 238.159564 
L 115.772943 239.08505 
L 115.950918 238.74318 
L 116.306866 238.785411 
L 116.484841 238.111216 
L 116.662815 239.190354 
L 116.84079 239.11624 
L 117.196738 237.936662 
L 117.552687 239.257419 
L 117.730662 238.672145 
L 118.086611 239.630365 
L 118.264585 240.324465 
L 118.442559 238.834294 
L 118.798508 240.753294 
L 118.976483 239.733875 
L 119.154457 239.498915 
L 119.510406 240.83406 
L 119.866355 240.201578 
L 120.044329 240.382528 
L 120.222304 239.926875 
L 120.400278 239.093673 
L 120.578252 241.081854 
L 120.756227 240.462293 
L 120.934201 241.232716 
L 121.112176 240.237166 
L 121.29015 240.29238 
L 121.468124 241.316207 
L 121.646099 240.89123 
L 121.824073 241.671793 
L 122.002048 241.741593 
L 122.180022 240.974345 
L 122.357997 242.405647 
L 122.535971 240.501245 
L 122.713945 240.811959 
L 122.89192 241.640026 
L 123.069894 240.566682 
L 123.247869 241.491587 
L 123.425843 241.467976 
L 123.603817 240.950827 
L 123.781792 242.275115 
L 123.959766 241.610359 
L 124.137741 242.00713 
L 124.315715 241.903132 
L 124.49369 242.376117 
L 124.671664 242.168199 
L 125.027613 242.811189 
L 125.205587 242.193886 
L 125.383562 243.045891 
L 125.561536 241.468711 
L 125.73951 242.517732 
L 125.917485 242.443582 
L 126.095459 243.217524 
L 126.273434 242.531768 
L 126.451408 242.501688 
L 126.807357 242.879321 
L 126.985331 242.363349 
L 127.163306 243.438131 
L 127.34128 242.892363 
L 127.519255 243.568474 
L 127.875203 243.732005 
L 128.053178 244.273061 
L 128.231152 243.403706 
L 128.409127 244.323876 
L 128.587101 244.643022 
L 128.765076 244.282107 
L 128.94305 244.224242 
L 129.121024 243.799652 
L 129.298999 244.342591 
L 129.476973 243.743974 
L 129.654948 244.574354 
L 129.832922 244.556793 
L 130.010897 243.667545 
L 130.188871 244.474286 
L 130.366845 244.115908 
L 130.54482 244.701128 
L 130.722794 244.274818 
L 130.900769 244.567547 
L 131.434692 244.465042 
L 131.612666 245.326094 
L 131.790641 245.055654 
L 131.968615 244.487256 
L 132.14659 244.859302 
L 132.502538 244.853582 
L 132.858487 245.768608 
L 133.214436 244.468898 
L 133.39241 246.212201 
L 133.748359 245.845353 
L 133.926334 246.637775 
L 134.104308 245.836 
L 134.282283 245.844029 
L 134.460257 245.558531 
L 134.638231 246.48739 
L 134.816206 246.295021 
L 135.172155 245.668188 
L 135.350129 247.060068 
L 135.528103 246.391624 
L 135.706078 246.351027 
L 135.884052 246.89617 
L 136.062027 246.930507 
L 136.240001 246.322217 
L 136.417976 246.632679 
L 136.773924 246.309569 
L 137.129873 246.938533 
L 137.307848 246.481151 
L 137.485822 247.517355 
L 137.663796 246.486421 
L 137.841771 247.308209 
L 138.019745 246.350784 
L 138.19772 247.103944 
L 138.375694 247.09002 
L 138.553669 247.89239 
L 138.731643 246.406969 
L 138.909617 247.504526 
L 139.087592 247.368095 
L 139.265566 247.414945 
L 139.443541 247.290846 
L 139.621515 248.557894 
L 139.799489 247.334067 
L 139.977464 247.620559 
L 140.155438 248.325696 
L 140.333413 247.722813 
L 140.689362 248.571325 
L 141.04531 247.731473 
L 141.223285 248.176034 
L 141.401259 248.103052 
L 141.757208 248.715038 
L 141.935182 248.695419 
L 142.113157 249.101892 
L 142.291131 248.478399 
L 142.469106 248.682828 
L 142.64708 249.258457 
L 142.825055 249.16629 
L 143.003029 248.761729 
L 143.181003 249.407075 
L 143.358978 248.970387 
L 143.536952 249.429701 
L 143.714927 249.040805 
L 143.892901 249.129909 
L 144.070875 249.443666 
L 144.24885 249.342318 
L 144.426824 248.983272 
L 144.782773 250.373149 
L 145.316696 249.537988 
L 145.494671 249.809406 
L 145.672645 249.3353 
L 145.85062 250.811017 
L 146.206568 249.568512 
L 146.562517 250.276846 
L 146.740492 251.045196 
L 147.096441 249.959682 
L 147.452389 250.828933 
L 147.630364 249.757365 
L 147.808338 250.242443 
L 147.986313 251.282699 
L 148.164287 250.767998 
L 148.342261 250.729177 
L 148.520236 250.43955 
L 148.69821 250.514788 
L 148.876185 251.385928 
L 149.054159 251.518916 
L 149.410108 250.553837 
L 149.588082 251.558812 
L 149.944031 250.847634 
L 150.122006 250.865871 
L 150.29998 251.111462 
L 150.477954 251.806665 
L 150.833903 251.527944 
L 151.011878 252.053529 
L 151.189852 250.888882 
L 151.367827 251.56068 
L 151.723775 251.618186 
L 151.90175 251.054581 
L 152.435673 252.479561 
L 152.613647 252.957799 
L 152.791622 252.204016 
L 153.325545 251.865612 
L 153.681494 253.089402 
L 153.859468 252.373617 
L 154.037443 252.680518 
L 154.215417 252.098622 
L 154.393392 251.920434 
L 154.749341 252.818939 
L 154.927315 253.167773 
L 155.105289 252.609494 
L 155.283264 252.993541 
L 155.639213 252.152381 
L 155.817187 253.319973 
L 155.995161 252.681164 
L 156.173136 253.158224 
L 156.35111 252.728661 
L 156.529085 253.510622 
L 156.707059 253.419954 
L 156.885034 253.792178 
L 157.063008 253.517207 
L 157.240982 252.820601 
L 157.596931 252.861833 
L 157.774906 253.636516 
L 158.130854 253.485048 
L 158.308829 253.805654 
L 158.486803 252.661721 
L 158.664778 254.900778 
L 158.842752 254.467135 
L 159.020727 255.340882 
L 159.198701 253.840938 
L 159.376675 254.01609 
L 159.732624 253.986896 
L 159.910599 254.40952 
L 160.088573 254.292982 
L 160.266547 254.477841 
L 160.444522 253.996967 
L 160.622496 254.205573 
L 160.800471 254.824904 
L 160.978445 253.935849 
L 161.15642 254.773381 
L 161.334394 254.361092 
L 161.512368 255.017604 
L 161.690343 255.059045 
L 162.046292 255.611696 
L 162.40224 253.831903 
L 162.580215 255.144441 
L 162.758189 254.985704 
L 162.936164 255.359154 
L 163.114138 254.301488 
L 163.292113 255.937011 
L 163.470087 255.158475 
L 163.648061 255.230501 
L 163.826036 255.490167 
L 164.00401 254.988815 
L 164.181985 255.747666 
L 164.359959 254.112266 
L 164.537933 255.452117 
L 164.715908 254.992805 
L 164.893882 255.73955 
L 165.071857 255.448909 
L 165.249831 255.456929 
L 165.60578 256.421179 
L 165.783754 255.80885 
L 165.961729 255.82047 
L 166.139703 255.718811 
L 166.317678 255.850751 
L 166.495652 256.540466 
L 166.673626 256.067271 
L 166.851601 256.819818 
L 167.029575 256.930037 
L 167.20755 255.711143 
L 167.385524 256.601695 
L 167.741473 256.108484 
L 167.919447 256.071789 
L 168.097422 257.083992 
L 168.275396 256.493957 
L 168.453371 255.362979 
L 168.631345 257.152636 
L 168.809319 257.363417 
L 168.987294 256.561283 
L 169.165268 256.703079 
L 169.343243 257.660234 
L 169.521217 257.076168 
L 169.699192 257.340384 
L 169.877166 256.664054 
L 170.05514 256.44988 
L 170.233115 256.825304 
L 170.411089 257.589829 
L 170.589064 256.81221 
L 170.767038 257.395135 
L 171.122987 257.155369 
L 171.300961 257.299711 
L 171.478936 257.253011 
L 171.834885 257.516549 
L 172.012859 257.597861 
L 172.190833 256.966966 
L 172.368808 257.265805 
L 172.546782 257.783974 
L 172.724757 256.961443 
L 172.902731 257.150567 
L 173.080705 258.265669 
L 173.25868 257.298018 
L 173.436654 258.046106 
L 173.614629 258.110709 
L 173.792603 258.354522 
L 173.970578 257.73222 
L 174.148552 258.06778 
L 174.326526 257.939267 
L 174.504501 257.578653 
L 174.682475 258.018076 
L 174.86045 258.154868 
L 175.216398 258.064993 
L 175.394373 257.628779 
L 175.750322 258.641729 
L 175.928296 258.180361 
L 176.106271 258.687278 
L 176.284245 258.660791 
L 176.462219 258.096729 
L 176.640194 258.767178 
L 176.818168 258.586771 
L 176.996143 259.098532 
L 177.174117 257.607147 
L 177.352091 259.363019 
L 177.530066 259.065748 
L 177.70804 258.038846 
L 177.886015 259.156508 
L 178.063989 259.140548 
L 178.597912 258.483198 
L 178.775887 259.379479 
L 178.953861 259.355203 
L 179.131836 258.723676 
L 179.30981 259.03604 
L 179.487784 259.642276 
L 179.843733 257.893526 
L 180.021708 259.355853 
L 180.199682 259.853226 
L 180.555631 259.285026 
L 180.733605 258.598611 
L 180.91158 258.689959 
L 181.089554 259.828117 
L 181.267529 259.034996 
L 181.445503 259.185183 
L 181.623478 259.173488 
L 181.801452 259.309709 
L 181.979426 259.610304 
L 182.157401 259.516785 
L 182.335375 260.4741 
L 182.51335 259.71157 
L 182.691324 259.849244 
L 182.869298 260.264873 
L 183.047273 259.962566 
L 183.225247 260.510084 
L 183.403222 259.927146 
L 183.581196 260.701055 
L 183.759171 259.524784 
L 183.937145 259.877648 
L 184.115119 260.548616 
L 184.293094 260.324511 
L 184.471068 260.510379 
L 184.649043 259.276091 
L 184.827017 259.831962 
L 185.004991 261.088253 
L 185.182966 259.897458 
L 185.538915 260.987951 
L 185.894864 260.47667 
L 186.072838 260.670321 
L 186.250812 260.188969 
L 186.428787 260.110967 
L 186.606761 260.51909 
L 186.784736 260.443466 
L 186.96271 261.36726 
L 187.318659 260.525901 
L 187.496633 261.083092 
L 187.674608 260.545965 
L 187.852582 261.473792 
L 188.030557 260.811952 
L 188.208531 261.35851 
L 188.386505 260.664994 
L 188.56448 261.38579 
L 188.742454 260.75045 
L 188.920429 261.748013 
L 189.098403 260.835279 
L 189.276377 261.428167 
L 189.454352 260.690441 
L 189.632326 261.186817 
L 189.810301 262.198956 
L 189.988275 261.403306 
L 190.16625 262.200733 
L 190.344224 261.9851 
L 190.522198 262.196502 
L 190.700173 262.172702 
L 190.878147 262.815154 
L 191.056122 261.242587 
L 191.234096 262.319963 
L 191.41207 261.412255 
L 191.590045 261.372149 
L 191.945994 262.46334 
L 192.123968 261.487666 
L 192.301943 261.5206 
L 192.479917 261.375121 
L 192.657891 262.333288 
L 192.835866 262.440509 
L 193.191815 261.680747 
L 193.369789 261.667415 
L 193.547763 261.858719 
L 193.725738 261.265359 
L 193.903712 262.52532 
L 194.081687 261.371367 
L 194.259661 261.711097 
L 194.437636 262.567642 
L 194.61561 261.769897 
L 194.793584 262.336794 
L 194.971559 262.344044 
L 195.327508 263.500549 
L 195.505482 262.332366 
L 195.683456 262.344209 
L 196.039405 262.947916 
L 196.21738 262.917665 
L 196.395354 261.57473 
L 196.573329 263.300443 
L 196.751303 263.519582 
L 196.929277 263.978069 
L 197.107252 262.178815 
L 197.285226 263.591087 
L 197.463201 263.728431 
L 197.641175 263.40238 
L 197.819149 263.358096 
L 197.997124 262.643536 
L 198.353073 263.661059 
L 198.531047 262.851909 
L 198.709022 262.694162 
L 198.886996 263.397074 
L 199.06497 263.162927 
L 199.420919 263.728088 
L 199.598894 262.75893 
L 199.776868 263.301532 
L 199.954842 262.991687 
L 200.132817 263.713483 
L 200.310791 263.418194 
L 200.66674 264.232222 
L 200.844715 263.151719 
L 201.022689 264.282426 
L 201.200663 263.080633 
L 201.378638 263.687669 
L 201.556612 264.757969 
L 201.734587 263.477125 
L 201.912561 264.156375 
L 202.090535 263.930902 
L 202.26851 263.213576 
L 202.446484 263.545842 
L 202.624459 264.154228 
L 202.802433 263.532983 
L 202.980408 264.525138 
L 203.158382 264.027939 
L 203.336356 264.614942 
L 203.692305 263.608857 
L 203.87028 264.254459 
L 204.048254 264.124572 
L 204.226228 264.594912 
L 204.404203 264.379524 
L 204.582177 264.695702 
L 204.938126 264.467692 
L 205.116101 265.067926 
L 205.472049 263.980685 
L 205.650024 265.360519 
L 205.827998 265.125816 
L 206.005973 263.953814 
L 206.361922 264.871074 
L 206.539896 263.929314 
L 206.71787 264.758894 
L 206.895845 264.025923 
L 207.073819 265.364676 
L 207.251794 265.677211 
L 207.607742 264.50916 
L 207.785717 264.788245 
L 207.963691 265.881331 
L 208.141666 264.481114 
L 208.31964 264.827206 
L 208.497615 265.541577 
L 208.675589 264.967115 
L 209.031538 265.234542 
L 209.209512 265.828005 
L 209.387487 265.798112 
L 209.743435 265.198017 
L 209.92141 264.498382 
L 210.277359 266.122228 
L 210.633308 265.100533 
L 210.989256 266.106983 
L 211.167231 265.589443 
L 211.345205 265.59608 
L 211.52318 266.085589 
L 211.701154 265.439432 
L 211.879128 265.939214 
L 212.057103 266.041842 
L 212.235077 265.892917 
L 212.413052 266.217195 
L 212.769001 265.616106 
L 213.124949 267.721928 
L 213.302924 266.031942 
L 213.480898 265.934248 
L 213.658873 266.705406 
L 213.836847 266.356793 
L 214.37077 266.38248 
L 214.548745 267.435375 
L 214.904694 266.536045 
L 215.260642 266.652552 
L 215.438617 267.151594 
L 215.616591 266.969119 
L 215.794566 266.505913 
L 215.97254 267.322919 
L 216.150514 266.495588 
L 216.684438 266.786648 
L 216.862412 267.423419 
L 217.040387 266.681517 
L 217.396335 266.981574 
L 217.57431 268.023753 
L 217.930259 266.703081 
L 218.108233 267.184814 
L 218.286207 266.127407 
L 218.464182 266.659389 
L 218.642156 266.659744 
L 218.820131 266.941455 
L 218.998105 267.802695 
L 219.17608 267.512701 
L 219.354054 268.205429 
L 219.710003 266.176562 
L 220.065952 268.600541 
L 220.4219 267.662325 
L 220.599875 267.60147 
L 220.777849 267.15247 
L 220.955824 267.35845 
L 221.133798 268.35664 
L 221.311773 268.231249 
L 221.489747 267.950892 
L 221.667721 268.528064 
L 222.02367 267.105408 
L 222.201645 268.264232 
L 222.379619 267.769246 
L 222.557593 268.862491 
L 222.735568 267.342059 
L 222.913542 267.411233 
L 223.091517 267.991668 
L 223.269491 269.409021 
L 223.447466 267.722409 
L 223.62544 268.853321 
L 223.803414 267.62752 
L 223.981389 269.278454 
L 224.159363 267.669326 
L 224.515312 268.879809 
L 224.693286 268.129276 
L 224.871261 269.25928 
L 225.049235 268.295245 
L 225.405184 269.246472 
L 225.583159 268.350824 
L 225.761133 269.375551 
L 225.939107 269.029877 
L 226.117082 268.010373 
L 226.295056 268.507581 
L 226.473031 268.006248 
L 226.651005 268.498216 
L 226.828979 267.971265 
L 227.006954 269.674859 
L 227.184928 269.185079 
L 227.362903 267.597179 
L 227.896826 269.352248 
L 228.0748 268.470078 
L 228.252775 269.381188 
L 228.430749 269.612615 
L 228.608724 268.575494 
L 228.786698 268.276639 
L 228.964672 269.032897 
L 229.142647 268.748175 
L 229.320621 268.880563 
L 229.498596 269.301325 
L 229.67657 269.342227 
L 229.854545 268.217914 
L 230.210493 269.945188 
L 230.388468 269.69173 
L 230.566442 269.124188 
L 230.922391 269.434778 
L 231.100366 269.14362 
L 231.27834 269.269844 
L 231.634289 270.071975 
L 231.812263 269.092156 
L 231.990238 269.264091 
L 232.168212 269.918834 
L 232.346186 268.828877 
L 232.524161 269.057851 
L 232.88011 269.822886 
L 233.058084 269.886012 
L 233.236059 269.168668 
L 233.414033 270.66789 
L 233.592007 268.608519 
L 233.769982 268.887925 
L 233.947956 269.80291 
L 234.125931 269.669741 
L 234.303905 270.244142 
L 234.481879 269.600413 
L 234.659854 269.698863 
L 234.837828 270.344144 
L 235.015803 270.373817 
L 235.193777 269.822665 
L 235.549726 270.336799 
L 235.7277 269.852029 
L 235.905675 269.752791 
L 236.261624 270.749274 
L 236.439598 270.069771 
L 236.617572 270.992984 
L 236.795547 270.137209 
L 236.973521 270.279495 
L 237.151496 270.867315 
L 237.32947 270.877577 
L 237.507445 270.094294 
L 237.685419 270.476325 
L 237.863393 270.573083 
L 238.041368 269.757049 
L 238.219342 269.54421 
L 238.397317 271.140582 
L 238.753265 270.427803 
L 238.93124 271.20291 
L 239.109214 271.270941 
L 239.287189 269.836074 
L 239.465163 271.729233 
L 239.643138 270.655676 
L 239.821112 270.565994 
L 239.999086 270.76839 
L 240.177061 271.220104 
L 240.355035 270.928077 
L 240.53301 270.949779 
L 240.710984 271.269831 
L 240.888958 270.740575 
L 241.066933 271.219964 
L 241.244907 270.926606 
L 241.422882 270.071887 
L 241.600856 269.87118 
L 241.778831 270.02103 
L 241.956805 270.875842 
L 242.134779 270.85726 
L 242.490728 270.087096 
L 242.668703 270.23941 
L 242.846677 270.880829 
L 243.024651 270.954959 
L 243.202626 271.500081 
L 243.558575 270.546925 
L 243.736549 271.936221 
L 243.914524 270.480391 
L 244.092498 270.255504 
L 244.270472 271.735452 
L 244.448447 272.267765 
L 244.626421 271.023222 
L 244.804396 271.379552 
L 244.98237 270.974109 
L 245.160344 271.273554 
L 245.338319 271.172377 
L 245.516293 270.927624 
L 245.694268 271.921972 
L 245.872242 271.561042 
L 246.050217 272.294065 
L 246.406165 270.557731 
L 246.58414 271.539157 
L 246.762114 271.369263 
L 247.118063 272.434733 
L 247.296037 272.218234 
L 247.474012 271.21602 
L 247.651986 272.471187 
L 247.829961 270.650238 
L 248.18591 272.535749 
L 248.363884 271.182518 
L 248.719833 272.270379 
L 248.897807 271.604056 
L 249.075782 271.39214 
L 249.253756 272.203041 
L 249.43173 271.783759 
L 249.609705 271.798538 
L 249.787679 273.262278 
L 250.143628 272.176335 
L 250.321603 272.729709 
L 250.499577 271.059522 
L 250.855526 272.466493 
L 251.0335 273.134634 
L 251.211475 272.512176 
L 251.389449 272.362711 
L 251.745398 271.0149 
L 252.101347 272.96903 
L 252.457296 271.703334 
L 252.63527 272.876623 
L 252.813244 272.92799 
L 252.991219 273.196958 
L 253.169193 272.501415 
L 253.347168 272.539923 
L 253.525142 272.382185 
L 253.703116 272.742841 
L 253.881091 272.793576 
L 254.23704 271.690071 
L 254.415014 272.520011 
L 254.592989 272.59898 
L 254.770963 272.408813 
L 254.948937 272.413753 
L 255.126912 273.32541 
L 255.304886 272.914327 
L 255.482861 272.154637 
L 255.660835 272.113876 
L 255.838809 272.679292 
L 256.016784 272.571818 
L 256.194758 272.290146 
L 256.372733 273.814298 
L 256.550707 272.816735 
L 256.728682 272.773949 
L 256.906656 272.136947 
L 257.08463 273.674336 
L 257.262605 272.196454 
L 257.440579 273.223696 
L 257.618554 273.212655 
L 257.796528 274.689341 
L 258.330451 273.43915 
L 258.508426 273.093219 
L 258.6864 274.079545 
L 258.864375 273.979184 
L 259.042349 273.037001 
L 259.220323 273.947764 
L 259.398298 274.038727 
L 259.576272 272.749025 
L 259.932221 273.598026 
L 260.110196 272.874932 
L 260.28817 273.351518 
L 260.466144 274.238886 
L 260.644119 272.649257 
L 260.822093 273.131555 
L 261.000068 272.715251 
L 261.178042 273.127904 
L 261.356016 272.768103 
L 261.711965 273.292763 
L 261.88994 273.140776 
L 262.067914 273.401611 
L 262.245889 274.121261 
L 262.423863 273.017729 
L 262.601837 273.729574 
L 262.779812 273.813259 
L 262.957786 273.412539 
L 263.135761 273.751006 
L 263.313735 273.39817 
L 263.491709 274.864216 
L 263.847658 273.659175 
L 264.025633 274.0686 
L 264.203607 273.737471 
L 264.381582 273.738014 
L 264.559556 272.740108 
L 264.73753 274.90639 
L 264.915505 274.988401 
L 265.093479 273.435287 
L 265.271454 273.845022 
L 265.627402 272.804078 
L 265.805377 273.88563 
L 265.983351 274.220222 
L 266.161326 274.043835 
L 266.3393 274.053506 
L 266.517275 273.806422 
L 266.695249 273.7501 
L 267.051198 274.615808 
L 267.229172 273.463331 
L 267.407147 273.817599 
L 267.585121 273.366243 
L 267.763095 272.291915 
L 267.94107 273.723052 
L 268.119044 274.130562 
L 268.297019 273.999672 
L 268.474993 274.080309 
L 268.652968 275.230857 
L 268.830942 273.888798 
L 269.008916 274.244931 
L 269.186891 274.285903 
L 269.364865 274.654046 
L 269.54284 274.245064 
L 269.720814 274.262426 
L 269.898788 273.840322 
L 270.076763 274.816794 
L 270.432712 274.05515 
L 270.610686 275.427364 
L 270.788661 274.469291 
L 270.966635 275.603128 
L 271.144609 275.800398 
L 271.500558 273.88053 
L 271.678533 274.340304 
L 271.856507 274.225278 
L 272.034481 273.594542 
L 272.212456 275.074171 
L 272.568405 273.939051 
L 272.746379 274.835352 
L 272.924354 274.247975 
L 273.102328 275.255205 
L 273.280302 274.568347 
L 273.458277 274.396628 
L 273.636251 275.206931 
L 273.814226 274.450523 
L 273.9922 275.363008 
L 274.170174 275.459015 
L 274.526123 274.602472 
L 274.704098 275.140177 
L 274.882072 274.377292 
L 275.060047 275.454658 
L 275.415995 275.399189 
L 275.59397 274.681089 
L 275.949919 275.225607 
L 276.127893 274.294241 
L 276.661816 275.866662 
L 276.839791 275.448557 
L 277.017765 274.282044 
L 277.19574 275.342855 
L 277.373714 275.055695 
L 277.551688 275.718318 
L 277.729663 275.831227 
L 278.085612 274.379549 
L 278.263586 275.566253 
L 278.619535 274.854099 
L 278.797509 275.750729 
L 278.975484 274.920299 
L 279.153458 275.61904 
L 279.331433 275.050024 
L 279.509407 275.717608 
L 279.687381 275.130609 
L 279.865356 275.653427 
L 280.04333 275.256584 
L 280.221305 275.35622 
L 280.399279 275.603016 
L 280.577253 275.574373 
L 280.755228 276.486356 
L 280.933202 274.993808 
L 281.111177 274.641697 
L 281.289151 275.613277 
L 281.467126 275.192053 
L 281.6451 276.12964 
L 281.823074 275.354953 
L 282.001049 275.410203 
L 282.179023 274.980618 
L 282.356998 276.149451 
L 282.534972 274.963709 
L 282.712947 275.617542 
L 282.890921 274.81635 
L 283.068895 275.069567 
L 283.24687 274.114232 
L 283.424844 275.53939 
L 283.602819 274.848128 
L 283.780793 276.422496 
L 283.958767 275.714832 
L 284.136742 275.634799 
L 284.314716 276.693347 
L 284.492691 275.018596 
L 284.670665 276.434112 
L 284.84864 276.194368 
L 285.204588 275.257698 
L 285.382563 275.646658 
L 285.560537 275.207897 
L 285.738512 276.156807 
L 285.916486 276.208882 
L 286.09446 275.268851 
L 286.272435 274.970681 
L 286.450409 277.048095 
L 286.628384 275.662293 
L 286.806358 275.675164 
L 286.984333 274.872003 
L 287.340281 276.641285 
L 287.518256 275.761956 
L 287.69623 277.003531 
L 287.874205 276.589947 
L 288.052179 276.742573 
L 288.230153 276.045102 
L 288.586102 276.149535 
L 288.764077 276.060813 
L 288.942051 275.84335 
L 289.120026 276.701989 
L 289.298 276.321998 
L 289.475974 275.566166 
L 289.831923 276.829163 
L 290.009898 276.98709 
L 290.187872 276.665002 
L 290.365846 276.926224 
L 290.543821 275.286856 
L 290.721795 275.863077 
L 290.89977 275.929022 
L 291.077744 275.703255 
L 291.255719 276.433567 
L 291.433693 275.911319 
L 291.611667 275.79778 
L 291.789642 276.715469 
L 291.967616 276.373258 
L 292.145591 276.657603 
L 292.323565 276.726735 
L 292.501539 275.908996 
L 292.857488 276.255752 
L 293.035463 278.021287 
L 293.213437 276.517962 
L 293.391412 277.176779 
L 293.569386 276.963789 
L 293.925335 278.236307 
L 294.103309 276.04267 
L 294.281284 277.388316 
L 294.637232 276.4094 
L 294.815207 276.863856 
L 294.993181 276.311047 
L 295.171156 276.825828 
L 295.34913 277.707261 
L 295.527105 277.601718 
L 295.705079 275.561611 
L 295.883053 275.503271 
L 296.061028 277.048983 
L 296.239002 276.538567 
L 296.416977 277.658171 
L 296.594951 276.820967 
L 296.772925 276.796898 
L 296.9509 277.497141 
L 297.128874 277.201779 
L 297.306849 277.124558 
L 297.484823 277.569499 
L 298.018746 276.874439 
L 298.196721 276.842159 
L 298.374695 277.152496 
L 298.55267 276.793684 
L 298.730644 276.713258 
L 298.908618 277.169629 
L 299.086593 276.868212 
L 299.442542 278.084001 
L 299.620516 277.797955 
L 299.798491 276.431933 
L 299.976465 276.457365 
L 300.154439 277.106655 
L 300.332414 277.074074 
L 300.510388 276.70918 
L 300.688363 277.299475 
L 300.866337 277.332263 
L 301.044311 277.081451 
L 301.222286 278.281334 
L 301.40026 277.742526 
L 301.578235 278.599204 
L 301.756209 276.460112 
L 301.934184 277.555368 
L 302.112158 277.019792 
L 302.290132 277.281394 
L 302.646081 278.619884 
L 302.824056 277.336276 
L 303.00203 278.174498 
L 303.180004 278.063193 
L 303.357979 277.022291 
L 303.535953 277.075979 
L 303.713928 278.637453 
L 303.891902 277.631263 
L 304.069877 277.907409 
L 304.247851 278.405029 
L 304.425825 277.828421 
L 304.6038 278.229621 
L 304.959749 278.176662 
L 305.137723 278.375497 
L 305.315697 278.253391 
L 305.493672 278.447606 
L 305.671646 277.841113 
L 306.027595 278.612863 
L 306.20557 277.129749 
L 306.561518 278.291313 
L 306.739493 277.519795 
L 306.917467 278.340455 
L 307.095442 276.907234 
L 307.273416 277.042933 
L 307.451391 277.90554 
L 307.629365 278.130581 
L 307.807339 277.832644 
L 307.985314 277.756498 
L 308.163288 278.810016 
L 308.341263 277.342108 
L 308.519237 278.753287 
L 308.697211 278.992199 
L 308.875186 277.23359 
L 309.05316 277.961152 
L 309.231135 277.631089 
L 309.409109 278.192596 
L 309.587084 277.722461 
L 309.765058 278.871099 
L 310.121007 278.011049 
L 310.298981 278.771183 
L 310.476956 277.958502 
L 310.65493 278.73271 
L 311.010879 277.628861 
L 311.188853 278.599896 
L 311.366828 278.465819 
L 311.722777 278.54908 
L 311.900751 278.007648 
L 312.2567 279.252756 
L 312.434674 278.6236 
L 312.612649 278.45885 
L 312.790623 279.095015 
L 312.968597 277.622994 
L 313.146572 278.058077 
L 313.324546 277.842566 
L 313.502521 278.735384 
L 313.680495 278.361339 
L 313.85847 279.453103 
L 314.036444 278.485992 
L 314.214418 278.724549 
L 314.392393 277.450617 
L 314.570367 279.150246 
L 314.748342 277.840098 
L 315.10429 279.088088 
L 315.638214 278.502187 
L 315.816188 279.794607 
L 316.172137 278.21079 
L 316.350111 278.62636 
L 316.528086 279.504215 
L 316.70606 278.95986 
L 316.884035 277.812226 
L 317.239983 279.188579 
L 317.417958 278.326258 
L 317.773907 278.962338 
L 317.951881 278.046666 
L 318.129856 278.367015 
L 318.485804 278.28496 
L 318.663779 277.735229 
L 318.841753 278.655963 
L 319.019728 278.179513 
L 319.197702 279.085901 
L 319.375676 279.124619 
L 319.553651 277.361136 
L 319.731625 279.311922 
L 320.087574 278.028044 
L 320.265549 279.583259 
L 320.443523 279.373631 
L 320.621497 279.627658 
L 320.799472 278.20124 
L 321.155421 279.272053 
L 321.333395 278.978696 
L 321.511369 278.305495 
L 321.689344 279.415434 
L 321.867318 278.104808 
L 322.045293 279.238696 
L 322.223267 279.555926 
L 322.401242 279.138473 
L 322.579216 279.113177 
L 322.75719 279.953608 
L 322.935165 279.956366 
L 323.113139 278.632416 
L 323.291114 279.250093 
L 323.469088 279.143374 
L 323.647062 278.701895 
L 323.825037 279.46752 
L 324.003011 279.245132 
L 324.180986 278.594433 
L 324.35896 279.568237 
L 324.536935 279.618055 
L 324.714909 279.896715 
L 324.892883 279.608918 
L 325.070858 279.579198 
L 325.248832 279.173541 
L 325.426807 280.477433 
L 325.604781 280.770868 
L 325.782755 279.849797 
L 325.96073 280.211035 
L 326.138704 278.804333 
L 326.316679 279.113443 
L 326.494653 280.40183 
L 326.850602 279.813862 
L 327.028576 279.009026 
L 327.206551 279.041284 
L 327.384525 280.254287 
L 327.5625 280.146452 
L 327.740474 279.688367 
L 327.918448 279.719111 
L 328.096423 281.161797 
L 328.274397 279.798541 
L 328.452372 280.847694 
L 328.630346 279.51712 
L 328.808321 279.208904 
L 328.986295 279.59317 
L 329.164269 279.573567 
L 329.342244 279.352047 
L 329.520218 279.733888 
L 329.698193 278.371298 
L 330.054141 279.209547 
L 330.232116 280.006047 
L 330.41009 280.066818 
L 330.588065 279.409304 
L 330.766039 279.366538 
L 330.944014 280.837857 
L 331.299962 279.734126 
L 331.477937 281.364958 
L 331.833886 280.224401 
L 332.01186 279.46023 
L 332.189835 280.224602 
L 332.367809 280.07809 
L 332.545783 280.128443 
L 332.723758 279.244449 
L 332.901732 280.095857 
L 333.079707 279.810329 
L 333.257681 280.598348 
L 333.61363 279.931318 
L 333.791604 279.949185 
L 333.969579 281.728266 
L 334.325528 279.395962 
L 334.503502 280.255915 
L 334.859451 280.167585 
L 335.393374 279.375045 
L 335.571348 280.577206 
L 335.749323 279.958091 
L 335.927297 280.583731 
L 336.105272 280.320025 
L 336.283246 280.469235 
L 336.461221 279.041811 
L 336.639195 279.793267 
L 336.817169 279.936761 
L 337.173118 279.512125 
L 337.529067 280.085645 
L 337.707041 279.115401 
L 337.885016 279.152457 
L 338.240965 280.266597 
L 338.418939 280.558228 
L 338.596914 280.52221 
L 338.774888 280.023061 
L 339.130837 280.441841 
L 339.308811 280.574035 
L 339.66476 280.112826 
L 339.842734 281.483955 
L 340.020709 280.743417 
L 340.198683 281.094424 
L 340.376658 280.596343 
L 340.554632 279.476328 
L 340.910581 281.523006 
L 341.088555 280.586291 
L 341.26653 280.341022 
L 341.444504 281.282841 
L 341.622479 280.611304 
L 341.800453 281.426245 
L 341.978427 280.10378 
L 342.156402 280.82557 
L 342.334376 282.299483 
L 342.512351 280.274407 
L 342.8683 281.134175 
L 343.046274 280.245062 
L 343.224248 280.923591 
L 343.402223 280.395679 
L 343.580197 280.349231 
L 343.758172 281.05511 
L 343.936146 281.24839 
L 344.11412 280.88181 
L 344.292095 281.142508 
L 344.470069 280.746462 
L 344.648044 280.662819 
L 344.826018 281.175675 
L 345.003993 280.485167 
L 345.181967 281.973354 
L 345.537916 280.310569 
L 345.71589 281.418993 
L 345.893865 281.225596 
L 346.071839 281.495868 
L 346.249813 280.403544 
L 346.427788 282.261056 
L 346.605762 279.885175 
L 346.783737 281.73795 
L 346.961711 280.951333 
L 347.139686 280.705428 
L 347.31766 281.348212 
L 347.495634 281.329602 
L 347.673609 281.111982 
L 347.851583 281.877569 
L 348.385506 281.33679 
L 348.563481 282.220184 
L 348.741455 281.585516 
L 348.91943 280.344522 
L 349.097404 280.294512 
L 349.275379 282.050454 
L 349.453353 281.877711 
L 349.631327 281.152406 
L 349.809302 282.01867 
L 349.987276 280.398744 
L 350.343225 282.737699 
L 350.521199 282.605394 
L 350.699174 281.508404 
L 350.877148 281.667148 
L 351.055123 282.821801 
L 351.233097 281.579295 
L 351.411072 281.676037 
L 351.589046 282.27767 
L 351.944995 281.226131 
L 352.122969 282.180184 
L 352.300944 281.866806 
L 352.478918 280.545733 
L 352.656892 280.649604 
L 353.012841 282.737869 
L 353.190816 280.505241 
L 353.36879 281.593609 
L 353.724739 280.652192 
L 353.902713 282.483009 
L 354.080688 282.175304 
L 354.258662 280.990789 
L 354.436637 281.975408 
L 354.614611 281.767247 
L 354.792585 281.174081 
L 354.97056 282.154201 
L 355.148534 282.045896 
L 355.326509 281.218727 
L 355.504483 281.262892 
L 355.682458 282.445112 
L 355.860432 281.669644 
L 356.038406 281.573364 
L 356.216381 281.655944 
L 356.394355 281.356447 
L 356.57233 281.384476 
L 356.750304 280.51379 
L 356.928278 281.030355 
L 357.106253 282.579069 
L 357.284227 281.277527 
L 357.462202 282.17891 
L 357.640176 281.298862 
L 357.818151 281.222357 
L 357.996125 282.598629 
L 358.174099 280.615321 
L 358.352074 281.563489 
L 358.530048 283.4056 
L 358.708023 281.59771 
L 359.063972 282.628303 
L 359.241946 280.642687 
L 359.41992 280.451144 
L 359.597895 282.94144 
L 359.775869 280.8532 
L 359.953844 281.203722 
L 360.131818 282.126496 
L 360.309792 281.612761 
L 360.487767 282.836887 
L 360.665741 282.056334 
L 360.843716 282.79219 
L 361.199665 281.497092 
L 361.555613 282.5789 
L 361.733588 282.140564 
L 361.911562 282.300255 
L 362.089537 281.491541 
L 362.267511 282.108227 
L 362.445485 281.279288 
L 362.62346 282.501132 
L 362.801434 281.851083 
L 362.979409 282.860568 
L 363.157383 281.337738 
L 363.335358 283.187321 
L 363.513332 282.168161 
L 363.691306 282.164476 
L 363.869281 282.87867 
L 364.047255 282.603412 
L 364.22523 283.141805 
L 364.403204 281.373885 
L 364.581178 281.855997 
L 364.759153 281.671227 
L 364.937127 283.414135 
L 365.115102 281.670525 
L 365.293076 282.259856 
L 365.471051 281.550758 
L 365.649025 282.710133 
L 366.004974 281.251632 
L 366.182948 282.920686 
L 366.360923 282.494057 
L 366.538897 282.628468 
L 366.716871 283.216193 
L 366.894846 282.309549 
L 367.07282 282.662612 
L 367.250795 283.475778 
L 367.428769 281.547883 
L 367.606744 283.648714 
L 367.784718 282.393451 
L 367.962692 282.278408 
L 368.140667 282.403728 
L 368.318641 281.449051 
L 368.496616 282.489397 
L 368.67459 282.773263 
L 368.852564 282.489642 
L 369.030539 282.926117 
L 369.208513 281.845019 
L 369.386488 283.891962 
L 369.564462 283.446318 
L 369.742437 282.368285 
L 369.920411 282.26824 
L 370.098385 283.568007 
L 370.27636 282.574323 
L 370.454334 282.475675 
L 370.632309 283.754401 
L 370.810283 282.502817 
L 371.166232 282.048041 
L 371.344206 282.626646 
L 371.522181 284.451082 
L 371.700155 282.629619 
L 372.056104 282.109154 
L 372.234078 282.854484 
L 372.412053 281.958433 
L 372.590027 282.982015 
L 372.768002 283.031628 
L 372.945976 282.595603 
L 373.12395 283.669255 
L 373.301925 283.151974 
L 373.479899 282.991182 
L 373.657874 283.094397 
L 373.835848 282.042301 
L 374.191797 283.564136 
L 374.369771 284.003834 
L 374.547746 282.150484 
L 374.72572 283.960013 
L 375.081669 281.382359 
L 375.259643 284.036024 
L 375.437618 284.156246 
L 375.615592 282.925685 
L 375.971541 281.966805 
L 376.149516 283.483842 
L 376.32749 282.825581 
L 376.505464 281.37912 
L 376.683439 283.350892 
L 376.861413 283.302089 
L 377.039388 283.717834 
L 377.573311 282.271613 
L 377.92926 283.763551 
L 378.107234 282.513159 
L 378.463183 283.812646 
L 378.641157 282.674735 
L 378.819132 283.646919 
L 378.997106 283.041187 
L 379.175081 283.15074 
L 379.353055 282.687839 
L 379.531029 284.78087 
L 379.709004 282.857819 
L 379.886978 283.761284 
L 380.064953 282.881144 
L 380.242927 283.455727 
L 380.420902 281.816794 
L 380.77685 284.327774 
L 380.954825 283.225983 
L 381.132799 284.43633 
L 381.310774 282.549683 
L 381.488748 284.09928 
L 381.666722 284.637476 
L 381.844697 283.403217 
L 382.022671 283.545307 
L 382.200646 284.458383 
L 382.37862 283.740508 
L 382.556595 283.784875 
L 382.734569 283.000061 
L 382.912543 282.844548 
L 383.090518 283.953392 
L 383.446467 282.880012 
L 383.624441 282.868971 
L 383.98039 283.430109 
L 384.158364 283.7208 
L 384.336339 282.643249 
L 384.514313 282.279435 
L 384.692288 282.945945 
L 384.870262 282.798738 
L 385.048236 281.779342 
L 385.226211 284.472601 
L 385.404185 284.541214 
L 385.58216 283.009455 
L 385.938109 284.511059 
L 386.116083 282.658524 
L 386.472032 284.185058 
L 386.827981 282.432428 
L 387.005955 284.451109 
L 387.183929 284.468657 
L 387.361904 282.946852 
L 387.539878 284.262136 
L 387.895827 282.848018 
L 388.42975 283.974095 
L 388.607725 284.492509 
L 389.141648 282.495103 
L 389.319622 283.626993 
L 389.497597 283.833994 
L 389.675571 284.655724 
L 390.03152 282.894785 
L 390.209495 284.544015 
L 390.387469 283.569283 
L 390.565443 284.349461 
L 390.743418 284.541396 
L 390.921392 283.247702 
L 391.099367 283.306261 
L 391.455315 284.994585 
L 391.63329 284.332646 
L 391.811264 284.623159 
L 392.167213 282.894563 
L 392.345188 283.31079 
L 392.523162 283.388196 
L 392.701136 283.754728 
L 393.057085 283.347606 
L 393.23506 284.937751 
L 393.413034 283.707649 
L 393.591008 283.629596 
L 393.768983 284.411173 
L 393.946957 284.161129 
L 394.124932 285.048848 
L 394.302906 283.590668 
L 394.480881 284.820871 
L 394.658855 282.564679 
L 394.836829 285.267118 
L 395.192778 283.766398 
L 395.370753 284.354712 
L 395.548727 283.570425 
L 395.726701 284.140917 
L 395.904676 283.245152 
L 396.08265 284.527558 
L 396.260625 282.697443 
L 396.438599 282.253814 
L 396.616574 284.139602 
L 396.794548 284.020716 
L 396.972522 283.587199 
L 397.150497 284.723228 
L 397.328471 284.116929 
L 397.68442 283.729869 
L 397.862394 282.358864 
L 398.040369 284.210312 
L 398.218343 282.590519 
L 398.396318 284.245182 
L 398.574292 284.852839 
L 398.752267 283.797198 
L 398.930241 285.012095 
L 399.108215 284.598066 
L 399.28619 285.183071 
L 399.464164 283.122574 
L 399.642139 284.460948 
L 399.820113 284.127734 
L 399.998087 284.613576 
L 400.176062 283.48882 
L 400.354036 284.838637 
L 400.532011 285.295456 
L 400.709985 285.247753 
L 400.88796 284.29748 
L 401.065934 284.074455 
L 401.243908 284.562538 
L 401.421883 284.503958 
L 401.599857 284.154292 
L 401.777832 284.411709 
L 401.955806 284.460589 
L 402.13378 284.873284 
L 402.311755 284.946554 
L 402.489729 284.612589 
L 402.667704 284.889864 
L 403.023653 284.784302 
L 403.201627 286.014249 
L 403.379601 284.556934 
L 403.73555 285.080244 
L 403.913525 284.796847 
L 404.091499 285.472233 
L 404.269473 284.870184 
L 404.447448 285.20151 
L 404.625422 284.137979 
L 404.803397 284.291315 
L 405.159346 285.514568 
L 405.33732 285.716813 
L 405.693269 284.536797 
L 405.871243 284.836742 
L 406.049218 283.715552 
L 406.227192 285.404719 
L 406.405166 285.088847 
L 406.761115 284.110213 
L 406.93909 284.882316 
L 407.117064 284.665765 
L 407.295039 284.930987 
L 407.473013 284.260892 
L 407.650987 285.552237 
L 408.006936 284.126336 
L 408.184911 286.15902 
L 408.54086 283.541915 
L 408.896808 285.798176 
L 409.074783 283.988704 
L 409.252757 284.723125 
L 409.430732 284.257523 
L 409.608706 284.665044 
L 409.78668 283.839597 
L 409.964655 284.145776 
L 410.142629 285.286306 
L 410.320604 285.524225 
L 410.498578 284.440462 
L 410.676553 284.893739 
L 410.854527 284.898823 
L 411.210476 283.197591 
L 411.566425 284.800741 
L 411.744399 282.885672 
L 411.922373 284.653984 
L 412.100348 285.251652 
L 412.278322 285.148612 
L 412.456297 283.286698 
L 412.634271 285.508336 
L 412.812246 285.168004 
L 412.99022 286.238224 
L 413.168194 284.011954 
L 413.524143 286.258088 
L 413.702118 284.96573 
L 414.058066 285.310983 
L 414.236041 285.280648 
L 414.414015 285.025833 
L 414.59199 285.565716 
L 414.769964 285.290754 
L 414.947939 283.950007 
L 415.125913 283.847581 
L 415.303887 285.673113 
L 415.481862 285.194213 
L 415.659836 284.140376 
L 415.837811 285.90137 
L 416.015785 284.965403 
L 416.193759 285.787151 
L 416.371734 284.190438 
L 416.549708 285.263281 
L 416.727683 284.247232 
L 416.905657 284.697761 
L 417.083632 285.586169 
L 417.261606 284.469304 
L 417.43958 286.399366 
L 417.795529 284.787659 
L 418.151478 285.262464 
L 418.329452 284.648657 
L 418.507427 284.577475 
L 418.685401 285.078603 
L 418.863376 285.081826 
L 419.04135 284.950546 
L 419.219325 287.390895 
L 419.397299 284.693877 
L 419.575273 286.30291 
L 419.753248 284.888427 
L 419.931222 285.432518 
L 420.109197 284.782534 
L 420.287171 285.749546 
L 420.465145 285.072208 
L 420.64312 286.063558 
L 420.821094 285.390404 
L 420.999069 285.774653 
L 421.177043 284.541014 
L 421.355018 286.678467 
L 421.532992 284.859773 
L 421.710966 285.844294 
L 422.066915 286.47766 
L 422.24489 285.075534 
L 422.422864 285.82589 
L 422.600838 285.824957 
L 422.778813 285.338057 
L 423.134762 287.415309 
L 423.490711 285.169504 
L 423.668685 286.405635 
L 424.024634 285.154797 
L 424.558557 287.518098 
L 424.736531 286.197698 
L 424.914506 287.58 
L 425.09248 285.749295 
L 425.270455 286.552223 
L 425.448429 285.897546 
L 425.626404 286.674834 
L 425.804378 285.81542 
L 425.982352 286.274939 
L 426.160327 286.36104 
L 426.338301 285.204818 
L 426.516276 286.971301 
L 426.69425 286.336511 
L 426.872224 284.876746 
L 427.050199 286.092161 
L 427.228173 285.762105 
L 427.406148 284.819093 
L 427.584122 285.975088 
L 427.762097 285.09193 
L 427.940071 285.476783 
L 428.118045 285.567129 
L 428.29602 286.00017 
L 428.473994 284.992306 
L 428.651969 286.284597 
L 429.007917 286.882633 
L 429.185892 286.195982 
L 429.363866 284.475766 
L 429.541841 287.025391 
L 429.719815 286.734331 
L 429.89779 285.30698 
L 430.075764 286.406052 
L 430.253738 286.68058 
L 430.431713 286.420041 
L 430.609687 286.646282 
L 430.787662 286.136369 
L 430.965636 285.14718 
L 431.321585 286.923826 
L 431.499559 286.194317 
L 431.677534 286.318576 
L 432.033483 287.472964 
L 432.211457 285.745187 
L 432.211457 285.745187 
" clip-path="url(#pe3cc694dd3)" style="fill: none; stroke: #e24a33; stroke-width: 1.5; stroke-linecap: square"/>
   </g>
   <g id="patch_3">
    <path d="M 58.652054 300.76 
L 58.652054 10.8 
" style="fill: none; stroke: #ffffff; stroke-linejoin: miter; stroke-linecap: square"/>
   </g>
   <g id="patch_4">
    <path d="M 450 300.76 
L 450 10.8 
" style="fill: none; stroke: #ffffff; stroke-linejoin: miter; stroke-linecap: square"/>
   </g>
   <g id="patch_5">
    <path d="M 58.652054 300.76 
L 450 300.76 
" style="fill: none; stroke: #ffffff; stroke-linejoin: miter; stroke-linecap: square"/>
   </g>
   <g id="patch_6">
    <path d="M 58.652054 10.8 
L 450 10.8 
" style="fill: none; stroke: #ffffff; stroke-linejoin: miter; stroke-linecap: square"/>
   </g>
  </g>
 </g>
 <defs>
  <clipPath id="pe3cc694dd3">
   <rect x="58.652054" y="10.8" width="391.347946" height="289.96"/>
  </clipPath>
 </defs>
</svg>
